<svg width="100" height="100" viewBox="0 0 26.458 26.458" xmlns="http://www.w3.org/2000/svg"><path d="M6.833 2.359c-.12 0-.24.005-.36.012l-.106.007c-.175.014-.35.035-.525.065l-.062.01a5.934 5.934 0 0 0-.543.124c-.016.004-.032.01-.048.013a5.98 5.98 0 0 0-.374.121l-.015.005-.01.004a6.45 6.45 0 0 0-.551.232l-.004.002a6.004 6.004 0 0 0-2.31 1.967l-.01.013c-.469.67-.8 1.427-.973 2.226l-.01.045c-.04.19-.072.384-.095.579l-.003.024a6.42 6.42 0 0 0-.039.607v.007c-.003.205.004.41.021.617v.008c.017.2.044.399.08.598l.006.034c.06.32.143.634.25.941l.004.011.022.065.024.06.001-.001c1.203 3.217 4.714 4.887 7.87 3.744 2.118-.77 3.631-2.667 3.942-4.94l1.216-.44a.886.886 0 0 0 .52-1.143l-.108-.295c.316.2.683.307 1.057.307.094-.001.187-.008.28-.023a2.762 2.762 0 0 0 1.6 1.364c.013.39.143.768.372 1.085h-.625a.886.886 0 0 0-.898.878v1.268a1.226 1.226 0 0 0-.054.05 5.562 5.562 0 0 0-.113.067 6.21 6.21 0 0 0-2.078 1.904 6.134 6.134 0 0 0-.957 2.327l-.01.05a5.99 5.99 0 0 0-.087 1.005v.02a6 6 0 0 0 1.092 3.446l.009.012c.35.497.77.94 1.25 1.314.015.012.03.025.047.037a6.29 6.29 0 0 0 1.016.636l.02.01c.181.09.367.171.557.244l.01.004c.19.072.385.135.583.19l.011.003c.192.051.388.094.587.128l.036.006c.324.053.652.082.98.085l.069.002.064-.002v-.001c3.435-.034 6.202-2.765 6.203-6.123-.002-2.252-1.27-4.322-3.3-5.389v-1.294c0-.486-.4-.877-.897-.877h-.317a1.966 1.966 0 0 0-.208-2.556c.12-.26.198-.538.232-.823l.001-.006h0a2.76 2.76 0 0 0 .022-.323 2.762 2.762 0 0 0-2.762-2.762 2.75 2.75 0 0 0-.72.099c-.3.08-.584.21-.84.384a1.975 1.975 0 0 0-1.175-.39 1.975 1.975 0 0 0-1.879 1.376l-.482-1.33a.886.886 0 0 0-1.131-.544l-1.192.432a1.437 1.437 0 0 0-.065-.034 6.755 6.755 0 0 0-.105-.086 6.4 6.4 0 0 0-1.31-.863 6.09 6.09 0 0 0-2.567-.628l-.135-.002z" fill="#fff" stroke="#fff" stroke-width="1.589" stroke-linecap="round" stroke-linejoin="round" paint-order="stroke fill markers"/><path d="M18.427 3.937a2.762 2.762 0 0 0-2.762 2.762 2.762 2.762 0 0 0 2.762 2.762A2.762 2.762 0 0 0 21.189 6.7a2.762 2.762 0 0 0-2.762-2.762zm0 .936A1.827 1.827 0 0 1 20.254 6.7a1.827 1.827 0 0 1-1.827 1.826A1.827 1.827 0 0 1 16.6 6.699a1.827 1.827 0 0 1 1.827-1.826z" fill="#707070" paint-order="stroke fill markers"/><path d="M15.692 4.03a1.975 1.975 0 0 0-1.975 1.976 1.975 1.975 0 0 0 1.975 1.974 1.975 1.975 0 0 0 1.976-1.975 1.975 1.975 0 0 0-1.976-1.975zm0 .95a1.026 1.026 0 0 1 1.027 1.025 1.026 1.026 0 0 1-1.027 1.027 1.026 1.026 0 0 1-1.026-1.027 1.026 1.026 0 0 1 1.026-1.026zm3.851 2.296a1.975 1.975 0 0 0-1.975 1.976 1.975 1.975 0 0 0 1.976 1.975 1.975 1.975 0 0 0 1.974-1.976 1.975 1.975 0 0 0-1.975-1.975zm0 .95a1.026 1.026 0 0 1 1.026 1.025 1.026 1.026 0 0 1-1.026 1.027 1.026 1.026 0 0 1-1.026-1.027 1.026 1.026 0 0 1 1.026-1.026z" fill="#666" paint-order="stroke fill markers"/><g transform="translate(53.033 -238.71) scale(.61936)" paint-order="stroke fill markers"><path d="M-54.321 404.534a10.119 9.89 0 0 0-10.119 9.89 10.119 9.89 0 0 0 10.119 9.89 10.119 9.89 0 0 0 10.119-9.89 10.119 9.89 0 0 0-10.119-9.89zm0 4.145a5.745 5.745 0 0 1 5.745 5.745 5.745 5.745 0 0 1-5.745 5.745 5.745 5.745 0 0 1-5.745-5.745 5.745 5.745 0 0 1 5.745-5.745z" fill="#c3c3c3"/><rect width="9.583" height="5.874" x="-59.112" y="402.217" rx="1.449" ry="1.417" fill="#c3c3c3"/><path d="m-59.09 405.668-.022.055c-3.278 1.722-5.324 5.064-5.328 8.7 0 5.463 4.53 9.891 10.12 9.891.034 0 .068-.002.102-.004v-4.147l-.103.005a5.745 5.745 0 0 1-2.411-10.959z" fill="#b3b3b3"/><g transform="translate(-.592 -.871)" fill="#666"><circle r="1.153" cy="406.507" cx="-53.729"/><rect ry=".585" y="404.422" x="-54.314" height="2.713" width="1.169"/></g><path d="M-58.645 406.337a9.227 9.227 0 0 0-4.903 8.146 9.227 9.227 0 0 0 9.227 9.228 9.227 9.227 0 0 0 .103-.005v-2.541a6.685 6.685 0 0 1-.103.004 6.685 6.685 0 0 1-6.685-6.685 6.685 6.685 0 0 1 3.78-6.016z" fill="#b9b9b9"/><ellipse cx="-54.45" cy="422.238" rx="2.031" ry="2.074" fill="#c3c3c3"/><circle cx="-54.45" cy="422.238" r=".588" fill="#b3b3b3"/><ellipse cx="-229.311" cy="341.616" rx="2.093" ry="2.136" transform="rotate(-25.791) skewX(.017)" fill="#c3c3c3"/><g transform="translate(.015)" fill="#b3b3b3"><circle r=".398" cy="403.312" cx="-57.813"/><circle r=".398" cy="403.312" cx="-50.86"/></g></g><g transform="rotate(70.066 163.57 161.576) scale(.61936)" paint-order="stroke fill markers"><path d="M-54.321 404.534a10.119 9.89 0 0 0-10.119 9.89 10.119 9.89 0 0 0 10.119 9.89 10.119 9.89 0 0 0 10.119-9.89 10.119 9.89 0 0 0-10.119-9.89zm0 4.145a5.745 5.745 0 0 1 5.745 5.745 5.745 5.745 0 0 1-5.745 5.745 5.745 5.745 0 0 1-5.745-5.745 5.745 5.745 0 0 1 5.745-5.745z" fill="#c3c3c3"/><rect width="9.583" height="5.874" x="-59.112" y="402.217" rx="1.449" ry="1.417" fill="#c3c3c3"/><path d="m-59.09 405.668-.022.055c-3.278 1.722-5.324 5.064-5.328 8.7 0 5.463 4.53 9.891 10.12 9.891.034 0 .068-.002.102-.004v-4.147l-.103.005a5.745 5.745 0 0 1-2.411-10.959z" fill="#b3b3b3"/><g transform="translate(-.592 -.871)" fill="#666"><circle r="1.153" cy="406.507" cx="-53.729"/><rect ry=".585" y="404.422" x="-54.314" height="2.713" width="1.169"/></g><path d="M-58.645 406.337a9.227 9.227 0 0 0-4.903 8.146 9.227 9.227 0 0 0 9.227 9.228 9.227 9.227 0 0 0 .103-.005v-2.541a6.685 6.685 0 0 1-.103.004 6.685 6.685 0 0 1-6.685-6.685 6.685 6.685 0 0 1 3.78-6.016z" fill="#b9b9b9"/><ellipse cx="-54.45" cy="422.238" rx="2.031" ry="2.074" fill="#c3c3c3"/><circle cx="-54.45" cy="422.238" r=".588" fill="#b3b3b3"/><ellipse cx="-229.311" cy="341.616" rx="2.093" ry="2.136" transform="rotate(-25.791) skewX(.017)" fill="#c3c3c3"/><g transform="translate(.015)" fill="#b3b3b3"><circle r=".398" cy="403.312" cx="-57.813"/><circle r=".398" cy="403.312" cx="-50.86"/></g></g><path d="M17.705 4.036a2.762 2.762 0 0 0-1.889 1.767v.131c0 .2.162.362.362.362h.468a1.826 1.826 0 0 1 1.27-1.35v-.582a.36.36 0 0 0-.211-.328zm2.523 2.942a1.826 1.826 0 0 1-.942 1.33v.364c0 .201.162.363.363.363h.244a2.762 2.762 0 0 0 1.273-2.013.36.36 0 0 0-.17-.044z" fill="#707070" paint-order="stroke fill markers"/></svg>