<svg width="100" height="100" viewBox="0 0 26.458 26.458" xmlns="http://www.w3.org/2000/svg"><g clip-rule="evenodd" image-rendering="optimizeQuality" shape-rendering="geometricPrecision" text-rendering="geometricPrecision"><path d="M15.593.793s-.231.344-.439.886h-4.488A1.906 1.906 0 0 0 8.76 3.585v.916c0 .304.073.591.2.846a.638.638 0 0 0-.341.184h-1.29a1.382 1.382 0 0 0 0 2.764h.317a38.26 38.26 0 0 0-.025 1.56c0 .407.302.753.75.914a.826.826 0 0 1 .05-.005 4.784 5.917 0 0 0 .37 2.05H5.194a.3.3 0 0 0-.052.006.261.261 0 0 0-.209.256l.044.258 1.005 5.874-1.58 3.523c-.118.261-.11.746-.11 1.063v.808c0 .587.427 1.062.954 1.062h15.98c.527 0 .954-.475.954-1.062 0-.398.029-1.566-.11-1.87l-2.193-4.885c-.164-.366-.481-.586-.821-.618a.954.954 0 0 0-.689-.306h-3.35c-.05.042-.103.08-.158.119l-.029.02-.03.018v-.985a4.784 5.917 0 0 0 3.164-5.107l.004.004c.395-.163.658-.498.658-.874 0-.632-.004-1.249-.022-1.824h.125a1.381 1.381 0 1 0 0-2.763h-.876a.637.637 0 0 0-.342-.184c.127-.255.2-.542.2-.847v-.63c.033-.041.066-.082.097-.126.643-.906.883-1.903.972-2.431a.18.18 0 0 0 .014-.081c.028-.184.037-.299.037-.299s-.105.047-.27.135a.188.188 0 0 0-.072.04 6.32 6.32 0 0 0-1.414 1.057 1.895 1.895 0 0 0-1.128-.48 4.807 4.807 0 0 0-.354-.892zM9.059 13.477a4.784 5.917 0 0 0 2.538 2.617v.987l-.028-.018-.034-.023a2.175 2.175 0 0 1-.155-.117H8.901z" fill="#906448" stroke="#fff" stroke-width="1.587" stroke-linejoin="round"/><g transform="translate(-120.705 -81.29) scale(.11533)" fill-rule="evenodd"><path d="M1100.358 882.321h22.01l2.83-62.005.101-2.234a2.262 2.262 0 0 0-2.27-2.266h-31.399a2.268 2.268 0 0 0-2.267 2.266l.385 2.234z" fill="#906448" fill-rule="nonzero"/><path class="fil2" d="M1100.358 882.321h8.772v-66.505h-17.5a2.268 2.268 0 0 0-2.267 2.266l.385 2.234z" fill="#82553e" fill-rule="nonzero"/><path d="M1125.198 820.316h-35.45l-.385-2.234a2.268 2.268 0 0 1 2.267-2.266h31.4a2.262 2.262 0 0 1 2.269 2.266z" fill="#82553c" fill-rule="nonzero"/><path d="M1109.13 820.316h-19.382l-.385-2.234a2.268 2.268 0 0 1 2.267-2.266h17.5z" fill="#724834" fill-rule="nonzero"/><path d="M1174.922 861.562a4.63 4.63 0 0 1-4.625 4.631h-18.516a4.63 4.63 0 0 1-4.626-4.631v-20.247a4.63 4.63 0 0 1 4.626-4.628h18.516a4.63 4.63 0 0 1 4.625 4.628z" fill="#f8c47b" fill-rule="nonzero"/><ellipse cx="1161.038" cy="795.975" rx="41.484" ry="51.302" fill="#f9cb8a"/><path class="fil2" d="M1208.104 792.433c0 3.267-2.286 6.168-5.708 7.583-13.718-13.383-6.598-24.01-5.447-25.156l-20.158 10.627 5.306-14.842c-9.697 19.337-42.922 25.498-62.912 27.433-3.889-1.4-6.507-4.4-6.507-7.92 0-14.266.321-25.71 3.317-34.396h89.575c2.314 8.49 2.534 22.093 2.534 36.671z" fill="#82553e" fill-rule="nonzero"/><path class="fil7" d="M1220.972 764.642c0 6.62-5.365 11.983-11.982 11.983h-98.84c-6.618 0-11.983-5.363-11.983-11.983 0-6.614 5.365-11.98 11.982-11.98h98.841c6.617 0 11.982 5.366 11.982 11.98z" fill="#32a067" fill-rule="nonzero"/><path class="fil8" d="M1200.17 743.727c0 9.124-7.395 16.523-16.523 16.523h-44.572c-9.126 0-16.523-7.4-16.523-16.523v-7.942c0-9.123 7.397-16.525 16.523-16.525h44.572c9.128 0 16.523 7.402 16.523 16.525z" fill="#328c69" fill-rule="nonzero"/><path d="M1201.005 737.166c-8.002 11.26-20.088 16.405-20.088 16.405s.887-13.11 8.882-24.367c7.997-11.261 20.08-16.405 20.08-16.405s-.878 13.105-8.874 24.367z" fill="#ee4037" fill-rule="nonzero"/><path d="M1177.089 758.675a1.585 1.585 0 0 1-.238-2.107l29.835-42.009a1.583 1.583 0 0 1 2.208-.37c.728.515.878 1.491.368 2.206l-29.834 42.002c-.508.71-1.49.878-2.209.376l-.13-.098z" fill="#f27062" fill-rule="nonzero"/><path d="M1186.612 732.542c-.488 11.443-6.58 20.474-6.58 20.474s-5.294-9.522-4.808-20.962c.486-11.44 6.576-20.474 6.576-20.474s5.3 9.519 4.812 20.962z" fill="#f58334" fill-rule="nonzero"/><path d="M1179.714 757.63a1.146 1.146 0 0 1-.974-1.186l1.588-37.32a1.148 1.148 0 0 1 1.197-1.097 1.137 1.137 0 0 1 1.095 1.198l-1.59 37.317a1.153 1.153 0 0 1-1.196 1.097c-.044-.003-.084-.003-.12-.008z" fill="#fec52b" fill-rule="nonzero"/><path d="M1202.384 756.102c0 2.29-2.39 4.148-5.339 4.148h-71.368c-2.949 0-5.34-1.858-5.34-4.148v-1.049c0-2.289 2.391-4.147 5.34-4.147h71.369c2.948 0 5.338 1.858 5.338 4.147z" fill="#197e59" fill-rule="nonzero"/><path d="m1237.97 901.803-19.02-42.353c-1.427-3.172-4.177-5.077-7.124-5.358-1.57-1.632-3.657-2.652-5.973-2.652h-29.042c-3.8 3.557-9.455 5.814-15.773 5.814-6.317 0-11.973-2.257-15.772-5.814h-30.653c-2.714 0-5.111 1.405-6.723 3.566-1.72.906-3.206 2.399-4.127 4.444l-19.009 42.353c-1.019 2.26-.947 6.47-.947 9.215v7.01c0 5.087 3.704 9.21 8.274 9.21h138.558c4.572 0 8.276-4.123 8.276-9.21 0-3.45.25-13.579-.944-16.225z" fill="#198862" fill-rule="nonzero"/><path class="fil15" d="M1212.786 901.229h-4.387c-8.475 0-15.369-6.322-15.369-14.097V853.61c0-1.197-1.06-2.17-2.366-2.17h-13.853c-3.8 3.327-9.455 5.438-15.773 5.438-6.317 0-11.973-2.11-15.772-5.438l-15.97.138c-1.305 0-2.365.972-2.365 2.169v33.522c0 7.775-9.738 13.96-18.214 13.96h-4.386c-1.308 0-2.365.97-2.365 2.167v16.255c0 4.183 3.712 7.587 8.276 7.587h96.633c4.564 0 8.277-3.404 8.277-7.587v-16.255c0-1.197-1.059-2.167-2.366-2.167z" fill="#41b97f" fill-rule="nonzero"/><path class="fil15" d="M1195.972 895.416c-1.85-2.327-2.942-5.19-2.942-8.284V853.61c0-1.197-1.06-2.17-2.366-2.17h-13.853c-.587.514-1.218.999-1.889 1.451v42.525z" fill="#41b97f" fill-rule="nonzero"/><path class="fil8" d="M1177.234 859.43c0 30.053-16.203 54.413-16.203 54.413s-16.189-24.36-16.189-54.414c0-2.72.06-5.375.167-7.989h.257c3.8 3.176 9.455 5.191 15.772 5.191 6.318 0 11.974-2.015 15.773-5.19h.256c.108 2.613.167 5.268.167 7.988z" fill="#328c69" fill-rule="nonzero"/><path class="fil8" d="M1158.368 919.173h5.338V893.41h-5.338z" fill="#328c69" fill-rule="nonzero"/><path class="fil7" d="M1146.815 903.5v21.8a1.944 1.944 0 0 1-1.936 1.938h-20.85a1.944 1.944 0 0 1-1.938-1.939v-21.8c0-1.065.872-1.938 1.939-1.938h20.85c1.064 0 1.935.873 1.935 1.938z" fill="#32a067" fill-rule="nonzero"/><path class="fil16" d="M1146.815 903.5v4.027c0 1.08-.871 1.94-1.936 1.94h-20.85a1.937 1.937 0 0 1-1.938-1.94v-4.028c0-1.065.872-1.938 1.939-1.938h20.85c1.064 0 1.935.873 1.935 1.938z" fill="#81caa9" fill-rule="nonzero"/><path class="fil8" d="M1137.263 909.468a2.808 2.808 0 1 1-5.617 0 2.808 2.808 0 0 1 5.617 0z" fill="#328c69" fill-rule="nonzero"/><path class="fil7" d="M1201.355 903.5v21.8c0 1.065-.87 1.938-1.937 1.938h-20.851a1.944 1.944 0 0 1-1.937-1.939v-21.8c0-1.065.872-1.938 1.937-1.938h20.851c1.066 0 1.937.873 1.937 1.938z" fill="#32a067" fill-rule="nonzero"/><path class="fil16" d="M1201.355 903.5v4.027c0 1.08-.87 1.94-1.937 1.94h-20.851a1.937 1.937 0 0 1-1.937-1.94v-4.028c0-1.065.872-1.938 1.937-1.938h20.851c1.066 0 1.937.873 1.937 1.938z" fill="#81caa9" fill-rule="nonzero"/><path class="fil8" d="M1191.8 909.468a2.808 2.808 0 1 1-5.615 0 2.808 2.808 0 0 1 5.616 0z" fill="#328c69" fill-rule="nonzero"/><path d="M1123.161 926.28c0 .53-.41.958-.914.958h-9.525c-.505 0-.916-.428-.916-.958v-76.255c0-.531.411-.958.915-.958h9.526c.505 0 .914.427.914.958z" fill="#87583e" fill-rule="nonzero"/><ellipse class="fil18" cx="1144.704" cy="804.789" rx="4.165" ry="4.038" fill="#464648"/><ellipse class="fil18" cx="1176.661" cy="804.789" rx="4.165" ry="4.038" fill="#464648"/><path class="fil19" d="m1168.83 796.388 15.217-3.733.711 2.898-15.216 3.733zM1152.905 797.71l-14.847-5.005-.953 2.828 14.847 5.005z" fill="#82553e"/><path d="M1147.155 854.966c3.737 2.199 8.585 3.527 13.883 3.527 5.299 0 10.147-1.328 13.884-3.527.791-.465 1.533-.97 2.218-1.509-.02-.675-.046-1.347-.073-2.017h-.256c-.587.49-1.218.954-1.889 1.385-3.673 2.365-8.542 3.806-13.884 3.806-5.341 0-10.21-1.44-13.883-3.806a18.869 18.869 0 0 1-1.89-1.385h-.256c-.028.67-.052 1.342-.073 2.017.685.54 1.427 1.044 2.219 1.51z" fill="#3c9d7a"/></g></g></svg>