<svg width="100" height="100" viewBox="0 0 26.458 26.458" xmlns="http://www.w3.org/2000/svg"><path d="M13.077.794a4.253 5.2 0 0 0-4.254 5.2 4.253 5.2 0 0 0 .045.711l.003.09h-.007l-.003.053c0 .093.004.184.009.274.038.47.222 1.383 1.016 2.301a4.253 5.2 0 0 0 .355.44c-.039.018-.065.037-.07.058-.052.193-.3.496-.53.747a1.12 1.12 0 0 0-.397-.051c-.814.081-1.668 1.098-1.668 1.098s-4.107-.122-4.351 3.253l.092.494-.066.032a345.76 345.76 0 0 0 .306 2.135c.027.184.05.341.08.528.077.514.155 1.006.23 1.437l.02.114a24.713 24.713 0 0 0 .12.626c.013.06.026.117.038.163l.008.032c.015.057.029.104.041.134.013.03.037.056.071.08a.69.69 0 0 0 .135.063 1.452 1.452 0 0 0 .194.046c.075.012.158.023.25.03a6.148 6.148 0 0 0 .647.022c.245-.001.518-.01.812-.026a48.41 48.41 0 0 0 1.929-.148c.25.385 1.152 4.934 1.152 4.934h7.89s.916-4.618 1.158-4.944a.044.044 0 0 1 .017-.013c.038-.001.092-.001.177.003.113.005.263.014.438.025.175.01.374.023.587.034.53.028 1.138.049 1.63.024.098-.005.192-.011.28-.02a2.69 2.69 0 0 0 .345-.055.92.92 0 0 0 .092-.027.433.433 0 0 0 .185-.103.154.154 0 0 0 .029-.044 1.46 1.46 0 0 0 .041-.126l.015-.055.027-.1.047-.195c.036-.15.075-.324.119-.523l.02-.09a148.544 148.544 0 0 0 .405-2.001l.24-1.255.208-1.097-.024-.007.024-.127c-.13-1.793-1.35-2.6-2.465-2.96-.984-.32-1.887-.293-1.887-.293s-.854-1.017-1.667-1.098a.91.91 0 0 0-.256.016l-.091.02c-.039.01-.08.024-.12.037h-.003a1.93 1.93 0 0 0-.1.032c-.036-.017-.07-.031-.106-.049-.723-.35-.623-.759-.586-.856a4.253 5.2 0 0 0 .335-.42c.775-.91.956-1.81.994-2.276.005-.09.008-.18.009-.273l-.003-.054h-.007l.004-.097a4.253 5.2 0 0 0 .044-.703 4.253 5.2 0 0 0-4.253-5.2z" fill="#f8c47b" stroke="#fff" stroke-width="1.588" stroke-linejoin="round"/><path d="M13.076.793a4.254 5.2 0 0 0-4.254 5.2 4.254 5.2 0 0 0 .047.761c0 .013 0 .027.002.04h-.007l-.003.053c0 .093.003.184.009.273.037.464.216 1.357.98 2.262a4.254 5.2 0 0 0 .387.481c-.038.017-.062.036-.067.057-.051.193-.3.496-.53.747a1.113 1.113 0 0 0-.397-.05v-.001c-.814.08-1.667 1.098-1.667 1.098s-4.108-.121-4.352 3.253l.092.493-.066.034s.638 4.672.844 5.169c.147.354 1.92.264 4.037.067.25.383 1.153 4.933 1.153 4.933h7.89s.958-4.83 1.173-4.958c.416-.011 3.565.316 3.764-.16.207-.497 1.122-5.443 1.122-5.443l-.024-.008.024-.127c-.243-3.374-4.35-3.253-4.35-3.253s-.855-1.016-1.668-1.097c-.155-.016-.35.027-.57.105a7.972 7.972 0 0 1-.107-.05c-.712-.345-.626-.745-.588-.85a4.254 5.2 0 0 0 .352-.442c.763-.904.942-1.795.98-2.259a5.903 5.903 0 0 0 .009-.273.646.646 0 0 0-.003-.054h-.007a2.987 2.987 0 0 0 .001-.037 4.254 5.2 0 0 0 .047-.764 4.254 5.2 0 0 0-4.253-5.2z" fill="#5f5358"/><path d="M12.254 16.907v-.412q0-.47.192-.79.191-.327.68-.634.39-.244.557-.44.172-.197.172-.451 0-.203-.182-.317-.182-.12-.475-.12-.724 0-1.693.513l-.666-1.305q1.195-.68 2.494-.68 1.07 0 1.678.47.61.47.61 1.28 0 .58-.274 1.007-.27.422-.864.8-.503.327-.633.48-.124.149-.124.354v.245zm-.207 1.679q0-.441.254-.681.26-.24.759-.24.478 0 .733.245.259.24.259.676 0 .435-.269.676-.263.24-.723.24-.476 0-.744-.236-.269-.239-.269-.68z" fill="#fff" stroke-width=".242"/></svg>