<svg viewBox="0 0 100 100" xmlns="http://www.w3.org/2000/svg" xml:space="preserve" fill-rule="evenodd" clip-rule="evenodd" stroke-linejoin="round" stroke-miterlimit="2"><g transform="translate(-441.718 -249.369) scale(1.42874)"><g id="g33554"><g id="g10382-2-3-1-5-1-3-0" transform="translate(254.46 1.158)"><g id="g8244-9-4-0-9-2-8-4-0-6" transform="scale(.9955) rotate(-14.114 -170.258 254.557)"><path id="path8237-3-5-0-6-9-5-44-0-4" d="M126.48 254.741c-3.638-5.004-10.974-.455-8.073 4.907l-52.598 27.153c-3.319-4.37-10.332-.966-8.78 3.941a4.78 4.78 0 0 0 2.938 1.781c-1.338 2.183-.511 6.523 4.207 6.765a4.795 4.795 0 0 0 4.395-7.052l52.526-27.472a4.798 4.798 0 0 0 9.034-2.076c.113-2.09-1.195-4.57-3.949-4.883a4.793 4.793 0 0 0 .3-3.063v-.001Z" fill="#333" fill-rule="nonzero" stroke="#fff" stroke-width="4.22px"/><path id="path8235-8-3-8-2-4-5-0-7-9" d="M121.728 251.036a4.798 4.798 0 0 0-4.15 7.051l-52.479 27.569a4.795 4.795 0 0 0-4.121-2.646 4.797 4.797 0 0 0-4.957 4.629 4.784 4.784 0 0 0 1.008 3.103 8.801 8.801 0 0 1-.034-.157c-1.065-4.998 6.377-6.471 8.991-3.073l52.717-27.746c-2.507-5.704 4.31-8.959 7.777-5.025a4.797 4.797 0 0 0-4.505-3.702c-.083-.003-.165-.004-.247-.003Z" fill="#1c1c1c" fill-rule="nonzero" stroke="#fff" stroke-width="4.22px"/></g><g id="g8244-9-4-0-9-2-8-4-4-9-9" transform="scale(-.9955 .9955) rotate(-14.114 -259.707 982.506)"><path id="path8237-3-5-0-6-9-5-44-6-7-2" d="M126.48 254.741c-3.638-5.004-10.974-.455-8.073 4.907l-52.598 27.153c-3.319-4.37-10.332-.966-8.78 3.941a4.78 4.78 0 0 0 2.938 1.781c-1.338 2.183-.511 6.523 4.207 6.765a4.795 4.795 0 0 0 4.395-7.052l52.526-27.472a4.798 4.798 0 0 0 9.034-2.076c.113-2.09-1.195-4.57-3.949-4.883a4.793 4.793 0 0 0 .3-3.063v-.001Z" fill="#333" fill-rule="nonzero" stroke="#fff" stroke-width="4.22px"/><path id="path8235-8-3-8-2-4-5-0-8-0-7" d="M121.728 251.036a4.798 4.798 0 0 0-4.15 7.051l-52.479 27.569a4.795 4.795 0 0 0-4.121-2.646 4.797 4.797 0 0 0-4.957 4.629 4.784 4.784 0 0 0 1.008 3.103 8.801 8.801 0 0 1-.034-.157c-1.065-4.998 6.377-6.471 8.991-3.073l52.717-27.746c-2.507-5.704 4.31-8.959 7.777-5.025a4.797 4.797 0 0 0-4.505-3.702c-.083-.003-.165-.004-.247-.003Z" fill="#1c1c1c" fill-rule="nonzero" stroke="#fff" stroke-width="4.22px"/></g></g><path id="path19249-9" d="M319.967 223.211s3.581 3.137 4.291 3.433c.711.296 7.784-.651 11.364-2.841 3.581-2.19 7.754-9.352 4.706-11.689-3.048-2.338-3.877-.948-4.942 1.124-1.066 2.072-15.419 9.973-15.419 9.973Z" fill="#fff" fill-rule="nonzero" stroke="#fff" stroke-width="4.2px"/><g id="g16677-8-4" transform="matrix(.26458 0 0 .26458 217.25 172.648)"><path id="path9737-9-3-3" d="M443.87 19.945s-2.788 54.594 8.611 70.77c11.398 16.177 32.131-27.768 32.131-27.768s-9.057-9.826-22.014-25.156c-12.956-15.329-18.728-17.846-18.728-17.846Z" fill="#b8b8b8" fill-rule="nonzero" stroke="#fff" stroke-width="15.87px"/><path id="path9739-3-7-2" d="M514.402 21.347s-16.147 22.835-19.87 42.559c0 0-14.356-4.741-29.154 6.217 0 0-40.063 34.58-43.517 39.309-3.446 4.724-.871 25.01-12.479 33.633-5.85 4.343-18.507 12.556-29.62 19.633-10.955 6.976-20.412 12.844-20.412 12.844s3.665 3.667 9.434 8.554c7.964 6.492 15.98 10.613 24.626 7.275 6.321-3.929 44.994-18.518 63.003-30.695 6.331-4.281 7.756-7.872 7.574-11.138 5.382 5.915 2.236 15.902-3.665 20.619-4.903 3.921-15.993 10.665-29.784 17.208-1.848.878 2.106 3.599.569 4.864-2.473 2.035-10.723.069-12.235.952-15.519 9.063-20.992 8.698-15.146 11.444 9.189 4.184 21.553 2.56 29.463 1.018 20.334-4.026 39.689-12.61 49.152-3.299 13.067 12.862 11.472 25.406 11.472 25.406s12.705-21.127 12.744-35.366c0 0 29.752 15.626 19.411 52.568 0 0 36.516-34.799 24.576-68.347 0 0 22.532 11.005 24.931 25.301 0 0 9.279-35.28-19.062-54.002 0 0 24.338-3.59 37.243 7.43 0 0-6.02-29.109-33.035-38.173 0 0 20.544-5.167 30.201-19.024 0 0-22.834-.058-34.481-7.695a.767.767 0 0 1-.023-.078c-.516-1.594-8.948-27.314-19.056-41.927a203.958 203.958 0 0 0-22.86-27.09Z" fill="#c8c8c8" fill-rule="nonzero" stroke="#fff" stroke-width="15.87px"/><path id="path9743-5-91-0" d="M380.26 177.04c-.715 1.427-5.042 3.561-5.506 3.937-.461.383-.6-2.049-.6-2.049l-3.694-.475-.765 3.128-.909 2.514c-5.769-4.887-9.438-8.554-9.438-8.554s9.461-5.867 20.416-12.843c0 0 1.216 12.922.496 14.342Z" fill="#0c0c0c" fill-rule="nonzero" stroke="#fff" stroke-width="15.87px"/><path id="path9745-8-1-9" d="M575.473 201.905c-2.399-14.296-24.93-25.301-24.93-25.301 11.94 33.548-24.574 68.35-24.574 68.35 10.341-36.942-19.412-52.572-19.412-52.572-.04 14.239-12.743 35.37-12.743 35.37s1.594-12.547-11.473-25.408c-9.463-9.311-28.819-.728-49.153 3.298 0 0 22.62-15.037 41.662-14.557 19.043.48 22.107 11.057 22.107 11.057s5.124-16.928.389-25.7c0 0 18.572-1.598 32.92 8.051 0 0-5.736-23.761-18.907-29.19 0 0 21.374-4.005 33.769 1.551 0 0 2.408-12.848-15.98-21.032 0 0 16.64-4.774 31.716-.103 0 0-11.28-18.17-25.706-22.471 0 0 22.531-3.733 29.653-8.749a38.92 38.92 0 0 1-8.47-14.056c11.648 7.637 34.481 7.692 34.481 7.692-9.656 13.857-30.203 19.026-30.203 19.026 27.015 9.065 33.039 38.174 33.039 38.174-12.905-11.02-37.243-7.428-37.243-7.428 28.341 18.721 19.058 53.998 19.058 53.998Z" fill="#b8b8b8" fill-rule="nonzero" stroke="#fff" stroke-width="15.87px"/><path id="path9747-9-2-1" d="M516.533 37.715s15.222 20.131 17.09 34.591c1.869 14.46-.71 22.183-.71 22.183s-7.692-12.937-21.276-20.681c-13.583-7.743 4.896-36.093 4.896-36.093Z" fill="#1c1c1c" fill-rule="nonzero" stroke="#fff" stroke-width="15.87px"/><path id="path15992-8-1" d="M457.591 145.036s7.692-1.265 11.175 3.008c3.475 4.264 2.983 9.288 2.983 9.288s4.142-8.372-.992-12.534c-4.489-3.64-13.166.238-13.166.238Z" fill="#c8c8c8" fill-rule="nonzero" stroke="#fff" stroke-width="15.87px"/><path id="path12505-4-9" d="M394.551 195.402s6.85 1.111 8.486.306c1.636-.804 1.456-10.037 2.611-9.416 4.759 2.56 10.337 5.72 18.756 5.799 3.415-.091 5.806-.58 4.09-3.558l-4.84-9.846c-.552-1.122 14.931-.639 17.104-1.5s4.942-9.037 6.361-10.181c1.42-1.144 14.593-1.857 14.593-1.857s-11.379 2.935-12.718 3.98c-1.339 1.045-4.378 10.015-6.65 10.796-2.271.781-13.907-.011-14.836.629-.928.64 8.779 13.572 8.779 13.572-5.566 1.983-19.295 2.953-28.517-3.96 0 0-1.783 8.024-2.858 8.136-1.074.113-5.125-1.119-10.361-2.9Z" fill="#dcdcdc" fill-rule="nonzero" stroke="#fff" stroke-width="15.87px"/></g><path id="path7159-3-4-6-4-0" d="M344.547 199.753c-1.313 3.368-5.522 3.386-9.834 5.372-2.632 1.212-3.686 4.692-3.686 4.692s.482-1.29 1.975-1.239c2.2.075 6.02-.747 7.947-3.998l-2.776.631 2.828-1.225c3.193-1.429 3.547-4.233 3.547-4.233h-.001Z" fill="#2a2a2a" fill-rule="nonzero" stroke="#fff" stroke-width="4.2px"/></g><g id="g335541"><g id="g10382-2-3-1-5-1-3-01" transform="translate(254.46 1.158)"><g id="g8244-9-4-0-9-2-8-4-0-61" transform="scale(.9955) rotate(-14.114 -170.258 254.557)"><path id="path8237-3-5-0-6-9-5-44-0-41" d="M126.48 254.741c-3.638-5.004-10.974-.455-8.073 4.907l-52.598 27.153c-3.319-4.37-10.332-.966-8.78 3.941a4.78 4.78 0 0 0 2.938 1.781c-1.338 2.183-.511 6.523 4.207 6.765a4.795 4.795 0 0 0 4.395-7.052l52.526-27.472a4.798 4.798 0 0 0 9.034-2.076c.113-2.09-1.195-4.57-3.949-4.883a4.793 4.793 0 0 0 .3-3.063v-.001Z" fill="#333" fill-rule="nonzero"/><path id="path8235-8-3-8-2-4-5-0-7-91" d="M121.728 251.036a4.798 4.798 0 0 0-4.15 7.051l-52.479 27.569a4.795 4.795 0 0 0-4.121-2.646 4.797 4.797 0 0 0-4.957 4.629 4.784 4.784 0 0 0 1.008 3.103 8.801 8.801 0 0 1-.034-.157c-1.065-4.998 6.377-6.471 8.991-3.073l52.717-27.746c-2.507-5.704 4.31-8.959 7.777-5.025a4.797 4.797 0 0 0-4.505-3.702c-.083-.003-.165-.004-.247-.003Z" fill="#1c1c1c" fill-rule="nonzero"/></g><g id="g8244-9-4-0-9-2-8-4-4-9-91" transform="scale(-.9955 .9955) rotate(-14.114 -259.707 982.506)"><path id="path8237-3-5-0-6-9-5-44-6-7-21" d="M126.48 254.741c-3.638-5.004-10.974-.455-8.073 4.907l-52.598 27.153c-3.319-4.37-10.332-.966-8.78 3.941a4.78 4.78 0 0 0 2.938 1.781c-1.338 2.183-.511 6.523 4.207 6.765a4.795 4.795 0 0 0 4.395-7.052l52.526-27.472a4.798 4.798 0 0 0 9.034-2.076c.113-2.09-1.195-4.57-3.949-4.883a4.793 4.793 0 0 0 .3-3.063v-.001Z" fill="#333" fill-rule="nonzero"/><path id="path8235-8-3-8-2-4-5-0-8-0-71" d="M121.728 251.036a4.798 4.798 0 0 0-4.15 7.051l-52.479 27.569a4.795 4.795 0 0 0-4.121-2.646 4.797 4.797 0 0 0-4.957 4.629 4.784 4.784 0 0 0 1.008 3.103 8.801 8.801 0 0 1-.034-.157c-1.065-4.998 6.377-6.471 8.991-3.073l52.717-27.746c-2.507-5.704 4.31-8.959 7.777-5.025a4.797 4.797 0 0 0-4.505-3.702c-.083-.003-.165-.004-.247-.003Z" fill="#1c1c1c" fill-rule="nonzero"/></g></g><path id="path19249-91" d="M319.967 223.211s3.581 3.137 4.291 3.433c.711.296 7.784-.651 11.364-2.841 3.581-2.19 7.754-9.352 4.706-11.689-3.048-2.338-3.877-.948-4.942 1.124-1.066 2.072-15.419 9.973-15.419 9.973Z" fill="#fff" fill-rule="nonzero"/><g id="g16677-8-41" transform="matrix(.26458 0 0 .26458 217.25 172.648)"><path id="path9737-9-3-31" d="M443.87 19.945s-2.788 54.594 8.611 70.77c11.398 16.177 32.131-27.768 32.131-27.768s-9.057-9.826-22.014-25.156c-12.956-15.329-18.728-17.846-18.728-17.846Z" fill="#b8b8b8" fill-rule="nonzero"/><path id="path9739-3-7-21" d="M514.402 21.347s-16.147 22.835-19.87 42.559c0 0-14.356-4.741-29.154 6.217 0 0-40.063 34.58-43.517 39.309-3.446 4.724-.871 25.01-12.479 33.633-5.85 4.343-18.507 12.556-29.62 19.633-10.955 6.976-20.412 12.844-20.412 12.844s3.665 3.667 9.434 8.554c7.964 6.492 15.98 10.613 24.626 7.275 6.321-3.929 44.994-18.518 63.003-30.695 6.331-4.281 7.756-7.872 7.574-11.138 5.382 5.915 2.236 15.902-3.665 20.619-4.903 3.921-15.993 10.665-29.784 17.208-1.848.878 2.106 3.599.569 4.864-2.473 2.035-10.723.069-12.235.952-15.519 9.063-20.992 8.698-15.146 11.444 9.189 4.184 21.553 2.56 29.463 1.018 20.334-4.026 39.689-12.61 49.152-3.299 13.067 12.862 11.472 25.406 11.472 25.406s12.705-21.127 12.744-35.366c0 0 29.752 15.626 19.411 52.568 0 0 36.516-34.799 24.576-68.347 0 0 22.532 11.005 24.931 25.301 0 0 9.279-35.28-19.062-54.002 0 0 24.338-3.59 37.243 7.43 0 0-6.02-29.109-33.035-38.173 0 0 20.544-5.167 30.201-19.024 0 0-22.834-.058-34.481-7.695a.767.767 0 0 1-.023-.078c-.516-1.594-8.948-27.314-19.056-41.927a203.958 203.958 0 0 0-22.86-27.09Z" fill="#c8c8c8" fill-rule="nonzero"/><path id="path9743-5-91-01" d="M380.26 177.04c-.715 1.427-5.042 3.561-5.506 3.937-.461.383-.6-2.049-.6-2.049l-3.694-.475-.765 3.128-.909 2.514c-5.769-4.887-9.438-8.554-9.438-8.554s9.461-5.867 20.416-12.843c0 0 1.216 12.922.496 14.342Z" fill="#0c0c0c" fill-rule="nonzero"/><path id="path9745-8-1-91" d="M575.473 201.905c-2.399-14.296-24.93-25.301-24.93-25.301 11.94 33.548-24.574 68.35-24.574 68.35 10.341-36.942-19.412-52.572-19.412-52.572-.04 14.239-12.743 35.37-12.743 35.37s1.594-12.547-11.473-25.408c-9.463-9.311-28.819-.728-49.153 3.298 0 0 22.62-15.037 41.662-14.557 19.043.48 22.107 11.057 22.107 11.057s5.124-16.928.389-25.7c0 0 18.572-1.598 32.92 8.051 0 0-5.736-23.761-18.907-29.19 0 0 21.374-4.005 33.769 1.551 0 0 2.408-12.848-15.98-21.032 0 0 16.64-4.774 31.716-.103 0 0-11.28-18.17-25.706-22.471 0 0 22.531-3.733 29.653-8.749a38.92 38.92 0 0 1-8.47-14.056c11.648 7.637 34.481 7.692 34.481 7.692-9.656 13.857-30.203 19.026-30.203 19.026 27.015 9.065 33.039 38.174 33.039 38.174-12.905-11.02-37.243-7.428-37.243-7.428 28.341 18.721 19.058 53.998 19.058 53.998Z" fill="#b8b8b8" fill-rule="nonzero"/><path id="path9747-9-2-11" d="M516.533 37.715s15.222 20.131 17.09 34.591c1.869 14.46-.71 22.183-.71 22.183s-7.692-12.937-21.276-20.681c-13.583-7.743 4.896-36.093 4.896-36.093Z" fill="#1c1c1c" fill-rule="nonzero"/><path id="path15992-8-11" d="M457.591 145.036s7.692-1.265 11.175 3.008c3.475 4.264 2.983 9.288 2.983 9.288s4.142-8.372-.992-12.534c-4.489-3.64-13.166.238-13.166.238Z" fill="#c8c8c8" fill-rule="nonzero"/><path id="path12505-4-91" d="M394.551 195.402s6.85 1.111 8.486.306c1.636-.804 1.456-10.037 2.611-9.416 4.759 2.56 10.337 5.72 18.756 5.799 3.415-.091 5.806-.58 4.09-3.558l-4.84-9.846c-.552-1.122 14.931-.639 17.104-1.5s4.942-9.037 6.361-10.181c1.42-1.144 14.593-1.857 14.593-1.857s-11.379 2.935-12.718 3.98c-1.339 1.045-4.378 10.015-6.65 10.796-2.271.781-13.907-.011-14.836.629-.928.64 8.779 13.572 8.779 13.572-5.566 1.983-19.295 2.953-28.517-3.96 0 0-1.783 8.024-2.858 8.136-1.074.113-5.125-1.119-10.361-2.9Z" fill="#dcdcdc" fill-rule="nonzero"/></g><path id="path7159-3-4-6-4-01" d="M344.547 199.753c-1.313 3.368-5.522 3.386-9.834 5.372-2.632 1.212-3.686 4.692-3.686 4.692s.482-1.29 1.975-1.239c2.2.075 6.02-.747 7.947-3.998l-2.776.631 2.828-1.225c3.193-1.429 3.547-4.233 3.547-4.233h-.001Z" fill="#2a2a2a" fill-rule="nonzero"/></g></g></svg>