<svg viewBox="0 0 100 100" xml:space="preserve" width="100" height="100" xmlns="http://www.w3.org/2000/svg"><path class="st2" d="M36.909 4.876s-.875 17.424 2.18 25.799c-4.784 4.193-10.16 8.971-11.007 10.13-1.36 1.913-.33 10.042-5.001 13.499-2.354 1.728-7.43 5.037-11.88 7.869a1256.752 1256.752 0 0 1-8.2 5.148s.53.473.601.543a71.375 71.375 0 0 0 2.357 2.13c.42.37.323.322.83.75 3.936 3.346 10.26 8.053 15.924 9.413 2.501.589 5.48.293 8.569-.332 8.164-1.618 17.286-5.515 21.074-1.763 5.222 5.148 4.596 10.185 4.596 10.185s5.113-8.495 5.113-14.195c0 0 11.95 6.251 7.795 21.072 0 0 14.638-13.938 9.857-27.398 0 0 9.046 4.413 10.002 10.15 0 0 3.716-14.158-7.648-21.66 0 0 9.744-1.435 14.93 2.978 0 0-2.39-11.658-13.239-15.298 0 0 8.238-2.096 12.1-7.649 0 0-9.158-.037-13.828-3.09v-.037c-.221-.625-3.605-10.959-7.65-16.806-4.194-6.032-9.158-10.851-9.158-10.851s-6.473 9.158-7.98 17.064c0 0-1.635-.513-4.03-.365l.02-.039s-3.64-3.934-8.826-10.076-7.502-7.172-7.502-7.172Z" fill="#917c6f" stroke="#fff" stroke-width="6" stroke-linecap="round" stroke-linejoin="round" paint-order="stroke fill markers"/><path d="M36.908 4.877s-.874 17.425 2.18 25.799c-4.784 4.193-10.158 8.971-11.006 10.13-1.361 1.913-.332 10.04-5.002 13.497-2.354 1.73-7.429 5.039-11.879 7.869-4.413 2.796-8.199 5.15-8.199 5.15s1.47 1.47 3.787 3.42c3.935 3.346 10.26 8.054 15.924 9.414 2.5.59 5.478.294 8.568-.332 8.164-1.618 17.285-5.514 21.073-1.763 5.223 5.149 4.597 10.185 4.597 10.185s5.111-8.493 5.111-14.193c0 0 11.952 6.25 7.797 21.07 0 0 14.638-13.936 9.858-27.396 0 0 9.046 4.413 10.002 10.15 0 0 3.713-14.157-7.65-21.66 0 0 9.747-1.435 14.933 2.978 0 0-2.391-11.659-13.24-15.299 0 0 8.236-2.097 12.097-7.65 0 0-9.156-.036-13.826-3.088v-.037c-.22-.626-3.604-10.96-7.65-16.807-4.192-6.032-9.156-10.85-9.156-10.85s-6.474 9.158-7.98 17.065c0 0-1.635-.512-4.03-.365l.02-.041s-3.64-3.934-8.827-10.076c-5.186-6.141-7.502-7.17-7.502-7.17z" fill="#5f5358"/><g fill="#fff" stroke-width=".918"><path d="M50.35 55.669v-1.543q0-1.758.717-2.96.718-1.219 2.547-2.367 1.453-.914 2.08-1.65.646-.735.646-1.686 0-.753-.681-1.183-.682-.449-1.776-.449-2.708 0-6.331 1.92l-2.493-4.879q4.466-2.547 9.326-2.547 4 0 6.277 1.758 2.278 1.758 2.278 4.789 0 2.17-1.022 3.766-1.004 1.578-3.228 2.995-1.884 1.22-2.368 1.794-.466.556-.466 1.327v.915zm-.771 6.277q0-1.65.95-2.547.969-.897 2.834-.897 1.793 0 2.744.915.968.897.968 2.529t-1.004 2.529q-.986.896-2.708.896-1.776 0-2.78-.878-1.004-.897-1.004-2.547z" style="-inkscape-font-specification:&quot;Open Sans Ultra-Bold&quot;" id="path580" font-weight="800" font-family="Open Sans"/></g></svg>