<svg viewBox="0 0 100 100" xml:space="preserve" fill-rule="evenodd" clip-rule="evenodd" stroke-linecap="round" stroke-linejoin="round" width="100" height="100" xmlns="http://www.w3.org/2000/svg"><path d="M34.8 5.975s-.762 14.981 1.686 23.142c-.109-.046-.24-.106-.265-.101-.161.02-1.328.983-1.678 1.322-.29.328-.544.688-.76 1.064l-.004.006-.162.268.004.002a.085.085 0 0 0-.014.025s-2.704 1.27-3.888 3.744a.33.33 0 0 0 .113.414c.072.053.23.158.338.233-1.833 1.676-3.29 3.056-3.647 3.543-1.295 1.78-.326 9.412-4.693 12.654-1.619 1.205-4.637 3.2-7.789 5.238a850.574 850.574 0 0 0-.01.006v-.006A850.574 850.574 0 0 0 3 64.51s1.382 1.378 3.549 3.218c.387.327.802.665 1.248 1.015l.002-.008.01.008c3.802 2.996 9.572 6.698 14.01 8.752 4.104 1.899 12.712 4.007 15.622 3.426.222-.044.808-.472 1.625-1.086.817-.614 1.866-1.416 3.016-2.213a36.843 36.843 0 0 1 1.783-1.168 22.058 22.058 0 0 1 1.836-1.014c1.22-.592 2.408-.984 3.434-.984 1.862 0 3.603.945 5.113 2.326 3.009 2.96 4.724 8.02 5.195 10.774 0 0 4.777-7.948 4.793-13.305 0 0 .175.091.473.28.298.187.72.47 1.215.855 1.235.96 2.923 2.548 4.26 4.826a15.744 15.744 0 0 1 2.125 6.83c.158 2.056-.04 4.379-.77 6.984 0 0 .215-.203.582-.586 1.65-1.721 6.382-7.049 8.508-13.568v-.002c.708-2.173 1.128-4.478 1.047-6.826v-.002a15.645 15.645 0 0 0-.893-4.728s6.244 3.103 9.375 9.519c0 0 3.497-13.273-7.162-20.312 0 0 .572-.087 1.506-.149a29.026 29.026 0 0 1 3.676-.012c.723.045 1.486.123 2.26.246 2.32.37 4.743 1.151 6.562 2.706 0 0-.052-.223-.164-.616-.783-2.751-4.469-13.945-13.363-16.93 0 0 .017-.016.048-.036a4.72 4.72 0 0 0 1.202-1.348 18.966 18.966 0 0 0 2.328-1.652h.004a.24.24 0 0 0 .023-.346c-.62-.661-2.046-4.048-3.998-5.049a.3.3 0 0 0-.285.021l-.334.235a4.937 4.937 0 0 0-.656-.213c-.25-.062-.495-.137-.743-.207.213-.175.422-.355.626-.541l.005-.006a82.322 82.322 0 0 0-1.861-1.564c-1.092-.894-2.323-1.822-2.65-1.807l-.666.494c-.121-.343-.281-.744-.438-1.172.576-.29.893-.474.893-.474l-.569-1.936-1.168-3.963-1.527-.328-.668-1.41-1.963-4.14c-.27-.031-.541-.069-.812-.104-.111-.169-.217-.364-.328-.526a76.658 76.658 0 0 0-8.6-10.191s-2.29 3.253-4.383 7.475c-.113-.04-.455-.155-.455-.155s-1.48 4.151-2.26 6.201v.002l-.01-.002a9.393 9.393 0 0 1-.457 1.112l.006.002a8.747 8.747 0 0 0-.507.181l-.393.971a12.623 12.623 0 0 0-2.762-.12l.01-.019s-3.408-3.692-8.28-9.464c-4.878-5.764-7.044-6.711-7.044-6.711z" stroke-width="6" fill="none" stroke="#fff"/><g fill-rule="nonzero"><path d="M34.802 5.974s-1.05 20.539 3.237 26.622c4.286 6.088 12.086-10.444 12.086-10.444s-3.406-3.695-8.278-9.467c-4.878-5.763-7.045-6.711-7.045-6.711z" fill="#30232c"/><path d="M90.16 77.833c-.9-5.378-9.376-9.52-9.376-9.52 4.492 12.623-9.244 25.714-9.244 25.714 3.889-13.898-7.303-19.777-7.303-19.777-.017 5.358-4.793 13.306-4.793 13.306.86-2.614-4.071-13.1-10.31-13.1-4.104 0-10.805 6.286-11.692 6.463-2.91.582-11.52-1.526-15.623-3.425-4.438-2.054-10.208-5.754-14.011-8.75a42.32 42.32 0 0 1-1.248-1.017c-2.166-1.84-3.549-3.216-3.549-3.216a850.578 850.578 0 0 1 11.031-6.98c3.152-2.04 6.169-4.035 7.787-5.24 4.368-3.242 3.4-10.874 4.695-12.653 1.301-1.776 16.372-14.787 16.372-14.787 5.572-4.125 10.97-2.339 10.97-2.339 1.4-7.42 7.471-16.01 7.471-16.01a76.658 76.658 0 0 1 8.6 10.193c3.803 5.495 6.976 15.17 7.17 15.768.004.015.004.02.01.031 1.3.855 2.98 1.458 4.69 1.883 3.845.952 4.871 5.958 1.715 8.353a.324.324 0 0 0-.049.037C93.64 46.177 97.001 60.31 97.001 60.31c-4.852-4.146-14.005-2.791-14.005-2.791 10.66 7.04 7.163 20.314 7.163 20.314z" fill="#3f2d35"/><path d="M14.274 65.414c-.426.84-2.975 2.098-3.25 2.324-.274.226-.359-1.21-.359-1.21l-2.18-.285-.451 1.85-.237.65a42.64 42.64 0 0 1-1.247-1.016C4.383 65.887 3 64.511 3 64.511a850.578 850.578 0 0 1 11.032-6.98c.155 1.795.595 7.185.242 7.883zM62.133 12.66s5.729 7.57 6.434 13.014c.698 5.437-.27 8.349-.27 8.349s-2.894-4.87-8.003-7.784c-5.109-2.915 1.84-13.58 1.84-13.58z" fill="#30232c"/><path d="M41.057 46.355c0 2.597-2.303 4.7-5.148 4.7a5.314 5.314 0 0 1-4.21-1.99 11.308 11.308 0 0 0 4.033-2.76c1.41-1.58 2.436-4.173 2.436-4.173 1.71.764 2.894 2.367 2.894 4.223z" fill="#e5b024"/><path d="M90.16 77.833c-3.131-6.416-9.376-9.52-9.376-9.52 4.492 12.623-9.244 25.714-9.244 25.714 3.889-13.898-7.303-19.777-7.303-19.777-.017 5.357-4.793 13.306-4.793 13.306-.694-4.05-4.071-13.1-10.31-13.1-4.104 0-10.805 6.286-11.692 6.463 0 0 5.314-9.336 13.214-9.782 7.896-.453 8.788 4.216 8.788 4.216s2.173-6.013-1.016-9.158c0 0 10.767-1.883 15.414 6.108 0 0-1.104-14.547-12.144-17.42 0 0 9.062-2.42 15.215 3.863 0 0-2.83-7.987-8.934-9.606 0 0 7.626-4.577 13.914-1.259 0 0-5.045-7.18-10.515-7.718 0 0 4.771-3.502 9.17-3.23 0 0-2.915-2.91-3.431-4.439 1.3.855 2.98 1.458 4.69 1.882 3.845.953 4.871 5.959 1.715 8.354a.324.324 0 0 0-.049.037C93.64 46.177 97.001 60.31 97.001 60.31c-4.852-4.146-14.005-2.791-14.005-2.791 10.66 7.04 7.163 20.313 7.163 20.313z" fill="#30232c"/><path d="M76.972 29.1s-8.89 5.148-18.194 4.065c-9.305-1.075-9.37-2.3-9.37-2.3l.722-1.777.977-2.413c11.14 1.44 20.014-.775 20.014-.775-7.16 1.107-16.463-.026-19.518-.458l1.667-4.124s.387-.15.511-.183c.178-.362.328-.732.457-1.113.78-2.05 2.26-6.201 2.26-6.201s7.443 2.694 14.579 3.501l1.963 4.14.668 1.41 1.527.327 1.167 3.964z" fill="#efefef"/><path d="M76.972 29.1s-8.89 5.148-18.194 4.066c-9.305-1.075-9.37-2.3-9.37-2.3l.722-1.776c4.221.85 17.65 3.001 26.272-1.926z" fill="#ccc"/><path d="M87.05 39.728c-6.286 5.276-19.018 8.013-34.603 4.819-14.144-2.898-21.308-7.734-22.616-8.686a.33.33 0 0 1-.112-.414c1.184-2.473 3.89-3.743 3.89-3.743a.086.086 0 0 1 .014-.028c.028-.048.087-.144.161-.273.216-.376.469-.737.759-1.065.35-.338 1.517-1.302 1.678-1.323.15-.028 2.168 1.053 2.367 1.162-.054-.038-.248-.151-.49-.301-.548-.333-1.36-.84-1.36-.866 0-.023.237-.367.5-.722.2-.285.414-.559.64-.822a20.67 20.67 0 0 1 1.758-1.247c.07-.01 1.878 1.107 1.898 1.107 0 0 6.955 3.969 16.437 5.056 9.487 1.08 16.13-2.749 16.13-2.749s.203-.161.268-.145c.037.01.629.473 1.14.876.386.307.731.588.731.588l.941-.7c.328-.016 1.56.914 2.652 1.807a82.323 82.323 0 0 1 1.86 1.565c-6.62 6.061-18.365 6.211-18.72 6.217.468.028.929.048 1.388.06 10.552.262 17.479-4.863 18.435-5.545a.3.3 0 0 1 .286-.022c1.952 1 3.376 4.39 3.996 5.05a.24.24 0 0 1-.022.344z" fill="#efefef"/><path d="M81.688 33.629c-6.62 6.057-18.365 6.207-18.72 6.212h-.006c-17.518-.307-29.24-8.1-29.344-8.164.027-.048.087-.145.163-.269 0 0 10.755 6.132 25.233 6.605 14.483.474 20.814-5.954 20.814-5.954a69.956 69.956 0 0 1 1.856 1.57z" fill="#ccc"/><path d="M76.24 30.95s-8.228 5.77-22.905 3.46c-7.606-1.195-12.337-2.965-15.242-4.534-.548-.34-1.36-.84-1.36-.866.004-.023.242-.361.499-.722 0 0 6.223 3.63 17.382 5.507 11.155 1.878 18.776-1.8 20.89-3.43.392.311.73.587.73.587zm-2.541-8.077s-11.58.688-19.927-1.737a9.392 9.392 0 0 0 .457-1.114c2.99.58 12.094 2.156 18.802 1.44z" fill="#ccc"/></g></svg>