<?xml version="1.0" encoding="UTF-8" standalone="no"?>
<!DOCTYPE svg PUBLIC "-//W3C//DTD SVG 1.1//EN" "http://www.w3.org/Graphics/SVG/1.1/DTD/svg11.dtd">
<svg width="100%" height="100%" viewBox="0 0 100 101" version="1.1" xmlns="http://www.w3.org/2000/svg" xmlns:xlink="http://www.w3.org/1999/xlink" xml:space="preserve" xmlns:serif="http://www.serif.com/" style="fill-rule:evenodd;clip-rule:evenodd;stroke-linecap:round;stroke-linejoin:round;">
    <g transform="matrix(0.29925,0,0,0.29925,-135.807,-433.478)">
        <g id="evil-1" serif:id="evil 1">
            <g id="g211">
                <g id="g2869" transform="matrix(1.01575,0,0,1.01575,-7.14694,-22.8171)">
                    <g id="path2823" transform="matrix(1,0,0,1,1712.07,487.644)">
                        <path d="M-1201.76,1108.81C-1201.76,1108.81 -1166.43,1133.25 -1094.63,1133.25C-1022.83,1133.25 -987.292,1108.07 -987.292,1108.07C-987.292,1108.07 -997.466,1163.88 -1012.29,1190.02C-1027.12,1216.16 -1064.63,1258.11 -1066.56,1260.26C-1068.48,1262.4 -1120.77,1269.23 -1125.26,1269.43C-1129.75,1269.62 -1168.96,1199.19 -1168.96,1199.19C-1168.96,1199.19 -1176.96,1192.17 -1178.33,1184.95C-1179.69,1177.73 -1201.98,1111.1 -1201.76,1108.81Z" style="fill:rgb(50,56,58);fill-rule:nonzero;stroke:white;stroke-width:19.76px;"/>
                    </g>
                    <g id="path2825" transform="matrix(1,0,0,1,1712.07,487.644)">
                        <path d="M-1013.11,1271.71L-1175.85,1271.71L-1177.38,1199.53C-1177.38,1199.53 -1145.45,1192.07 -1126.08,1195.21C-1107.21,1198.28 -1095.21,1214.65 -1094.62,1215.45C-1094.07,1214.65 -1082.04,1198.28 -1063.06,1195.21C-1043.61,1192.07 -1011.6,1199.62 -1011.6,1199.62L-1013.11,1271.71Z" style="fill:rgb(190,189,190);fill-rule:nonzero;stroke:white;stroke-width:19.76px;"/>
                    </g>
                    <ellipse id="ellipse2827" cx="617.434" cy="1693.08" rx="28.079" ry="23.852" style="fill:rgb(249,203,139);stroke:white;stroke-width:19.76px;"/>
                    <g id="g2837">
                        <path id="polygon2829" d="M649.065,1702.81L645.912,1722.71L640.293,1758.17L635.337,1767.65L595.664,1767.65L581.618,1739.06L588.799,1722.55L596.777,1704.13L649.065,1702.81Z" style="fill:rgb(190,189,190);fill-rule:nonzero;stroke:white;stroke-width:19.76px;"/>
                        <g id="path2831" transform="matrix(1,0,0,1,1712.07,487.644)">
                            <path d="M-1087.23,1251.15L-1080.58,1280.01L-1108.67,1280.01L-1102.04,1251.15L-1099.92,1241.93L-1117.31,1222.37L-1094.94,1214.13C-1094.72,1214.19 -1094.51,1214.31 -1094.33,1214.47L-1094.33,1214.13L-1071.97,1222.37L-1089.35,1241.93L-1087.23,1251.15Z" style="fill:rgb(20,21,22);fill-rule:nonzero;stroke:white;stroke-width:19.76px;"/>
                        </g>
                        <g id="path2833" transform="matrix(1,0,0,1,1712.07,487.644)">
                            <path d="M-1121.88,1186.94C-1122.38,1190.43 -1108.39,1211.8 -1094.64,1213.85L-1136.81,1250.2C-1131.83,1229.11 -1142.04,1213.36 -1121.88,1186.94Z" style="fill:white;fill-rule:nonzero;stroke:white;stroke-width:19.76px;"/>
                        </g>
                        <g id="path2835" transform="matrix(1,0,0,1,1712.07,487.644)">
                            <path d="M-1067.4,1186.94C-1066.9,1190.43 -1080.88,1211.8 -1094.64,1213.85L-1052.46,1250.2C-1057.44,1229.11 -1047.23,1213.36 -1067.4,1186.94Z" style="fill:white;fill-rule:nonzero;stroke:white;stroke-width:19.76px;"/>
                        </g>
                    </g>
                    <g id="path2839" transform="matrix(1,0,0,1,1712.07,487.644)">
                        <path d="M-1010.76,1088.09C-1010.76,1151.08 -1048.07,1202.17 -1094.07,1202.17C-1140.07,1202.17 -1177.38,1151.08 -1177.38,1088.09C-1177.38,1085.86 -1177.33,1083.66 -1177.24,1081.49C-1165.99,1084.45 -1142.39,1088.09 -1094.07,1088.09C-1050.63,1088.09 -1025.36,1081.86 -1011.21,1076.03C-1010.93,1080 -1010.76,1084 -1010.76,1088.09Z" style="fill:rgb(249,203,139);stroke:white;stroke-width:19.76px;"/>
                    </g>
                    <g id="path2841" transform="matrix(1,0,0,1,1712.07,487.644)">
                        <path d="M-1074.71,1170.43C-1080.85,1166.26 -1083.8,1166.93 -1086.21,1167.03C-1087.55,1167.1 -1088.87,1167.38 -1090.12,1167.87C-1092.65,1168.83 -1095.45,1168.83 -1097.98,1167.87C-1099.24,1167.38 -1100.56,1167.1 -1101.9,1167.03C-1104.31,1166.93 -1107.26,1166.26 -1113.4,1170.43C-1121.4,1175.3 -1126.07,1168.88 -1126.07,1168.88C-1126.07,1168.88 -1127.23,1177.19 -1113.64,1178.75C-1100.04,1180.31 -1094.05,1174.42 -1094.05,1174.42C-1094.05,1174.42 -1088.08,1180.31 -1074.47,1178.75C-1060.88,1177.19 -1062.04,1168.88 -1062.04,1168.88C-1062.04,1168.88 -1066.71,1175.3 -1074.71,1170.43" style="fill:rgb(84,51,37);stroke:white;stroke-width:19.76px;"/>
                    </g>
                    <g id="g2851">
                        <ellipse id="ellipse2843" cx="585.905" cy="1627.56" rx="8.366" ry="8.112" style="fill:rgb(187,32,37);stroke:white;stroke-width:19.76px;"/>
                        <ellipse id="ellipse2845" cx="650.1" cy="1627.56" rx="8.366" ry="8.112" style="fill:rgb(187,32,37);stroke:white;stroke-width:19.76px;"/>
                        <g id="rect2847" transform="matrix(0.319415,-0.947615,0.947615,0.319415,-119.621,185.161)">
                            <rect x="-1129.43" y="1108.2" width="5.995" height="31.473" style="fill:rgb(84,51,37);stroke:white;stroke-width:19.76px;"/>
                        </g>
                        <g id="rect2849" transform="matrix(0.947615,-0.319415,0.319415,0.947615,1297.39,207.031)">
                            <rect x="-1078.59" y="1120.94" width="31.473" height="5.995" style="fill:rgb(84,51,37);stroke:white;stroke-width:19.76px;"/>
                        </g>
                    </g>
                    <g id="path2853" transform="matrix(1,0,0,1,1712.07,487.644)">
                        <path d="M-1216.85,1073.1C-1221.12,1074.48 -1224.03,1078.49 -1224.03,1082.97C-1224.03,1086.4 -1222.33,1089.62 -1219.5,1091.55C-1200.61,1104.33 -1161.43,1123.2 -1094.67,1123.2C-1028.06,1123.2 -988.182,1104.42 -968.749,1091.64C-965.854,1089.72 -964.11,1086.47 -964.11,1082.99C-964.11,1078.48 -967.059,1074.46 -971.366,1073.1C-991.158,1066.81 -1029.59,1058.52 -1094.67,1058.52C-1159.76,1058.52 -1197.54,1066.81 -1216.85,1073.1Z" style="fill:rgb(40,44,45);fill-rule:nonzero;stroke:white;stroke-width:19.76px;"/>
                    </g>
                    <g id="path2855" transform="matrix(1,0,0,1,1712.07,487.644)">
                        <path d="M-1004.15,1078.41L-1094.07,1088.09L-1183.99,1078.41L-1180.33,1064.58L-1175.27,1045.52L-1158.23,981.256C-1158.23,981.256 -1152.95,964.295 -1131.6,973.067C-1110.23,981.839 -1106.29,989.445 -1094.07,989.445C-1081.85,989.445 -1077.9,981.839 -1056.54,973.067C-1035.18,964.295 -1029.91,981.256 -1029.91,981.256L-1012.87,1045.52L-1007.78,1064.71L-1004.15,1078.41Z" style="fill:rgb(40,44,45);fill-rule:nonzero;stroke:white;stroke-width:19.76px;"/>
                    </g>
                    <g id="path2857" transform="matrix(1,0,0,1,1712.07,487.644)">
                        <g transform="matrix(3.28986,-0,-0,3.28986,-1258.25,960.903)">
                            <use xlink:href="#_Image1" x="20.875" y="23.052" width="58.455px" height="15.769px" transform="matrix(0.990765,0,0,0.985541,0,0)"/>
                        </g>
                    </g>
                    <g id="path2859" transform="matrix(1,0,0,1,1712.07,487.644)">
                        <path d="M-940.906,1280.01L-1248.37,1280.01C-1248.37,1280.01 -1229.08,1218.2 -1225.02,1215.1C-1221.65,1212.53 -1182.06,1200.88 -1169.12,1197.11L-1163.68,1200.77L-1140.49,1221.62L-1122.72,1241.39L-1094.63,1256.77L-1094.6,1256.75L-1055.62,1232.87L-1040.69,1215.16L-1019.35,1197.35C-1005.67,1201.33 -967.553,1212.58 -964.231,1215.1C-960.177,1218.2 -940.906,1280.01 -940.906,1280.01L-940.906,1280.01Z" style="fill:rgb(40,44,45);stroke:white;stroke-width:19.76px;"/>
                    </g>
                    <path id="polygon2861" d="M562.424,1704.94L558.327,1724.25L617.448,1744.41L589.356,1723.11L562.424,1704.94Z" style="fill:rgb(20,21,22);stroke:white;stroke-width:19.76px;"/>
                    <path id="polygon2863" d="M672.458,1704.94L676.555,1724.25L617.434,1744.41L645.527,1723.11L672.458,1704.94Z" style="fill:rgb(20,21,22);stroke:white;stroke-width:19.76px;"/>
                    <g id="path2865" transform="matrix(1,0,0,1,1712.07,487.644)">
                        <path d="M-1122.72,1235.46C-1142.22,1226.85 -1182.08,1195.95 -1182.08,1195.95C-1182.16,1195.89 -1182.24,1195.83 -1182.32,1195.76C-1196.02,1183.91 -1220.88,1156.38 -1220.4,1144.96C-1219.93,1133.46 -1201.96,1108.07 -1201.96,1108.07C-1201.96,1108.07 -1198.86,1121.72 -1178.26,1161.47C-1157.67,1201.22 -1122.72,1235.46 -1122.72,1235.46Z" style="fill:rgb(20,21,22);stroke:white;stroke-width:19.76px;"/>
                    </g>
                    <g id="path2867" transform="matrix(1,0,0,1,1712.07,487.644)">
                        <path d="M-968.847,1144.96C-968.37,1156.43 -993.52,1184.23 -1007.17,1195.95C-1042.05,1225.29 -1066.56,1235.46 -1066.56,1235.46C-1066.56,1235.46 -1031.58,1201.22 -1010.99,1161.47C-990.393,1121.72 -987.292,1108.07 -987.292,1108.07C-987.292,1108.07 -969.323,1133.46 -968.847,1144.96Z" style="fill:rgb(20,21,22);stroke:white;stroke-width:19.76px;"/>
                    </g>
                </g>
                <g id="g209" transform="matrix(1.01505,0,0,1.01505,-6.97769,-21.9427)">
                    <g id="path170" transform="matrix(1,0,0,1,1712.07,487.644)">
                        <path d="M-1201.76,1108.81C-1201.76,1108.81 -1166.43,1133.25 -1094.63,1133.25C-1022.83,1133.25 -987.292,1108.07 -987.292,1108.07C-987.292,1108.07 -997.466,1163.88 -1012.29,1190.02C-1027.12,1216.16 -1064.63,1258.11 -1066.56,1260.26C-1068.48,1262.4 -1120.77,1269.23 -1125.26,1269.43C-1129.75,1269.62 -1168.96,1199.19 -1168.96,1199.19C-1168.96,1199.19 -1176.96,1192.17 -1178.33,1184.95C-1179.69,1177.73 -1201.98,1111.1 -1201.76,1108.81Z" style="fill-rule:nonzero;"/>
                    </g>
                    <g id="path172" transform="matrix(1,0,0,1,1712.07,487.644)">
                        <path d="M-1013.11,1271.71L-1175.85,1271.71L-1177.38,1199.53C-1177.38,1199.53 -1145.45,1192.07 -1126.08,1195.21C-1107.21,1198.28 -1092.03,1129.02 -1091.45,1129.82C-1090.89,1129.02 -1082.04,1198.28 -1063.06,1195.21C-1043.61,1192.07 -1011.6,1199.62 -1011.6,1199.62L-1013.11,1271.71Z" style="fill-rule:nonzero;"/>
                    </g>
                    <g id="path184" transform="matrix(1,0,0,1,1712.07,487.644)">
                        <path d="M-1010.76,1088.09C-1010.76,1151.08 -1048.07,1202.17 -1094.07,1202.17C-1140.07,1202.17 -1177.38,1151.08 -1177.38,1088.09C-1177.38,1085.86 -1177.33,1083.66 -1177.24,1081.49C-1165.99,1084.45 -1142.39,1088.09 -1094.07,1088.09C-1050.63,1088.09 -1025.36,1081.86 -1011.21,1076.03C-1010.93,1080 -1010.76,1084 -1010.76,1088.09Z"/>
                    </g>
                    <g transform="matrix(1,0,0,1,1.51363,0)">
                        <g id="g191">
                            <g>
                                <g>
                                    <g id="ellipse1116-2-2" transform="matrix(1.28722,0,0,1.28722,-170.686,-469.796)">
                                        <ellipse cx="585.905" cy="1627.56" rx="8.366" ry="8.112" style="fill:rgb(187,32,37);"/>
                                    </g>
                                    <g transform="matrix(3.10803,1.08555,-1.08555,3.10803,521.475,1415.97)">
                                        <rect x="30.949" y="48.483" width="15.887" height="4.878"/>
                                    </g>
                                </g>
                                <g transform="matrix(-0.999881,0,0,1,1232.92,0)">
                                    <g id="ellipse1116-2-21" serif:id="ellipse1116-2-2" transform="matrix(1.28722,0,0,1.28722,-170.686,-469.796)">
                                        <ellipse cx="585.905" cy="1627.56" rx="8.366" ry="8.112" style="fill:rgb(187,32,37);"/>
                                    </g>
                                    <g transform="matrix(3.10803,1.08555,-1.08555,3.10803,521.475,1415.97)">
                                        <rect x="30.949" y="48.483" width="15.887" height="4.878"/>
                                    </g>
                                </g>
                            </g>
                        </g>
                    </g>
                    <g id="path193" transform="matrix(1,0,0,1,1712.07,487.644)">
                        <path d="M-1216.85,1073.1C-1221.12,1074.48 -1224.03,1078.49 -1224.03,1082.97C-1224.03,1086.4 -1222.33,1089.62 -1219.5,1091.55C-1200.61,1104.33 -1161.43,1123.2 -1094.67,1123.2C-1028.06,1123.2 -988.182,1104.42 -968.749,1091.64C-965.854,1089.72 -964.11,1086.47 -964.11,1082.99C-964.11,1078.48 -967.059,1074.46 -971.366,1073.1C-991.158,1066.81 -1029.59,1058.52 -1094.67,1058.52C-1159.76,1058.52 -1197.54,1066.81 -1216.85,1073.1Z" style="fill:rgb(40,44,45);fill-rule:nonzero;"/>
                    </g>
                    <g id="path195" transform="matrix(1,0,0,1,1712.07,487.644)">
                        <path d="M-1004.15,1078.41L-1094.07,1088.09L-1183.99,1078.41L-1180.33,1064.58L-1175.27,1045.52L-1158.23,981.256C-1158.23,981.256 -1152.95,964.295 -1131.6,973.067C-1110.23,981.839 -1106.29,989.445 -1094.07,989.445C-1081.85,989.445 -1077.9,981.839 -1056.54,973.067C-1035.18,964.295 -1029.91,981.256 -1029.91,981.256L-1012.87,1045.52L-1007.78,1064.71L-1004.15,1078.41Z" style="fill:rgb(40,44,45);fill-rule:nonzero;"/>
                    </g>
                    <g id="path197" transform="matrix(1,0,0,1,1712.07,487.644)">
                        <path d="M-1007.78,1064.71C-1007.78,1064.71 -1044.54,1077.64 -1094.07,1077.64C-1143.6,1077.64 -1180.33,1064.58 -1180.33,1064.58L-1175.27,1045.52C-1175.27,1045.52 -1146.38,1055.78 -1094.07,1055.78C-1041.75,1055.78 -1012.87,1045.52 -1012.87,1045.52L-1007.78,1064.71Z" style="fill:rgb(9,9,9);fill-opacity:0.61;fill-rule:nonzero;"/>
                    </g>
                    <g id="path199" transform="matrix(1,0,0,1,1712.07,487.644)">
                        <path d="M-940.906,1280.01L-1248.37,1280.01C-1248.37,1280.01 -1229.08,1218.2 -1225.02,1215.1C-1221.65,1212.53 -1182.06,1200.88 -1169.12,1197.11L-1163.68,1200.77L-1140.49,1221.62L-1122.72,1241.39L-1094.63,1256.77L-1094.6,1256.75L-1055.62,1232.87L-1040.69,1215.16L-1019.35,1197.35C-1005.67,1201.33 -967.553,1212.58 -964.231,1215.1C-960.177,1218.2 -940.906,1280.01 -940.906,1280.01L-940.906,1280.01Z" style="fill:rgb(40,44,45);"/>
                    </g>
                    <path id="polygon201" d="M589.356,1723.11L562.424,1704.94L558.327,1724.25L617.448,1744.41L589.356,1723.11Z" style="fill:rgb(20,21,22);"/>
                    <path id="polygon203" d="M645.527,1723.11L672.458,1704.94L676.555,1724.25L617.434,1744.41L645.527,1723.11Z" style="fill:rgb(20,21,22);"/>
                    <g id="path205" transform="matrix(1,0,0,1,1712.07,487.644)">
                        <path d="M-1122.72,1235.46C-1142.22,1226.85 -1182.08,1195.95 -1182.08,1195.95C-1182.16,1195.89 -1182.24,1195.83 -1182.32,1195.76C-1196.02,1183.91 -1220.88,1156.38 -1220.4,1144.96C-1219.93,1133.46 -1201.96,1108.07 -1201.96,1108.07C-1201.96,1108.07 -1198.86,1121.72 -1178.26,1161.47C-1157.67,1201.22 -1122.72,1235.46 -1122.72,1235.46Z" style="fill:rgb(20,21,22);"/>
                    </g>
                    <g id="path207" transform="matrix(1,0,0,1,1712.07,487.644)">
                        <path d="M-968.847,1144.96C-968.37,1156.43 -993.52,1184.23 -1007.17,1195.95C-1042.05,1225.29 -1066.56,1235.46 -1066.56,1235.46C-1066.56,1235.46 -1031.58,1201.22 -1010.99,1161.47C-990.393,1121.72 -987.292,1108.07 -987.292,1108.07C-987.292,1108.07 -969.323,1133.46 -968.847,1144.96Z" style="fill:rgb(20,21,22);"/>
                    </g>
                </g>
            </g>
        </g>
    </g>
</svg>
