<svg width="100" height="100" viewBox="0 0 26.458 26.458" xmlns:xlink="http://www.w3.org/1999/xlink" xmlns="http://www.w3.org/2000/svg"><defs><linearGradient id="c" spreadMethod="pad" gradientTransform="scale(371.49772 -371.49772) rotate(88.468 48.689 -3.258)" gradientUnits="userSpaceOnUse" y2="0" x2="1" y1="0" x1="0"><stop offset="0" stop-color="#ab7a78"/><stop offset="1" stop-color="#a72346"/></linearGradient><linearGradient x1="0" y1="0" x2="1" y2="0" gradientUnits="userSpaceOnUse" gradientTransform="scale(342.27528 -342.27528) rotate(88.468 52.83 -3.461)" spreadMethod="pad" id="a"><stop offset="0" stop-color="#ab7a78"/><stop offset="1" stop-color="#a72346"/></linearGradient><linearGradient x1="0" y1="0" x2="1" y2="0" gradientUnits="userSpaceOnUse" gradientTransform="scale(412.62684 -412.62684) rotate(89.695 35.822 -10.89)" spreadMethod="pad" id="g"><stop offset="0" stop-color="#b9d9c2"/><stop offset="1" stop-color="#95cdaf"/></linearGradient><linearGradient x1="0" y1="0" x2="1" y2="0" gradientUnits="userSpaceOnUse" gradientTransform="scale(412.62984 -412.62984) rotate(89.695 35.208 -11.501)" spreadMethod="pad" id="b"><stop offset="0" stop-color="#a4b399"/><stop offset="1" stop-color="#82aa8a"/></linearGradient><linearGradient spreadMethod="pad" y2="0" x2="1" y1="0" x1="0" gradientTransform="scale(342.27528 -342.27528) rotate(88.468 52.83 -3.461)" gradientUnits="userSpaceOnUse" id="e" xlink:href="#a"/><linearGradient spreadMethod="pad" y2="0" x2="1" y1="0" x1="0" gradientTransform="scale(412.62984 -412.62984) rotate(89.695 35.208 -11.501)" gradientUnits="userSpaceOnUse" id="i" xlink:href="#b"/><linearGradient xlink:href="#c" id="k" gradientUnits="userSpaceOnUse" gradientTransform="scale(371.49772 -371.49772) rotate(88.468 48.689 -3.258)" x1="0" y1="0" x2="1" y2="0" spreadMethod="pad"/><clipPath id="j" clipPathUnits="userSpaceOnUse"/><clipPath clipPathUnits="userSpaceOnUse" id="d"/><clipPath clipPathUnits="userSpaceOnUse" id="f"/><clipPath clipPathUnits="userSpaceOnUse" id="h"/></defs><path d="M6.15.792a.245.245 0 0 0-.22.156l-.236.607a4.242 4.242 0 0 0 1.59 5.052l-.05.113-.006.014a.21.21 0 0 0 .106.278l.473.21a5.93 5.93 0 0 0-.112 1.146v.376a.318.318 0 0 0-.318.319v.83c0 .176.142.319.318.319h.232c.154.613.458 1.413.783 1.53a3.84 3.84 0 0 1 .047-.165 4.942 6.111 0 0 0 2.174 3.863 8.106 8.106 0 0 0-1.926 1.675L7.894 13.56 4.1 11.327l-.904 4.309 3.932 6.73a8.028 8.028 0 0 0 .74 3.301h14.648a8.033 8.033 0 0 0 .743-3.38 8.069 8.069 0 0 0-6.08-7.819 4.942 6.111 0 0 0 1.227-2.88l.032.087c.323-.133.6-.938.704-1.463h.388a.318.318 0 0 0 .318-.318v-.831a.318.318 0 0 0-.318-.318v-.377c0-.4-.04-.791-.116-1.17l.464-.206a.21.21 0 0 0 .106-.278L19.98 6.7l-.042-.091a4.242 4.242 0 0 0 1.594-5.053l-.235-.607a.245.245 0 0 0-.473.087v1.025a2.218 2.218 0 0 1-1.833 2.188.245.245 0 0 0-.089.035l-.047-.105-.006-.014a.21.21 0 0 0-.279-.106l-.625.279a5.902 5.902 0 0 0-3.728-1.858v-.169a.216.216 0 0 0-.216-.216h-.776a.216.216 0 0 0-.216.216v.17a5.902 5.902 0 0 0-3.745 1.875l-.621-.277a.21.21 0 0 0-.279.106L8.36 4.2l-.038.084a.245.245 0 0 0-.086-.034A2.217 2.217 0 0 1 6.4 2.061V1.036A.245.245 0 0 0 6.15.792z" clip-rule="evenodd" fill="#f9cb8a" fill-rule="evenodd" stroke="#fff" stroke-width="1.5829825499999999" stroke-linejoin="round" image-rendering="optimizeQuality" shape-rendering="geometricPrecision" text-rendering="geometricPrecision"/><g transform="matrix(.48925 0 0 .48925 176.107 -169.066)"><ellipse cx="-332.199" cy="366.592" rx="10.099" ry="12.489" clip-rule="evenodd" fill="#f9cb8a" fill-rule="evenodd" image-rendering="optimizeQuality" shape-rendering="geometricPrecision" text-rendering="geometricPrecision"/><path d="M-320.741 365.73c0 .795-.697 3.349-1.53 3.693-1.553-4.49-5.883-6.946-5.606-7.223l-.487 1.838 1.292-3.613c-2.361 4.707-13.173 1.666-15.082 9.134-.947-.34-1.818-3.526-1.818-4.383 0-3.473.078-6.26.808-8.374h21.806c.563 2.067.617 5.379.617 8.928z" clip-rule="evenodd" fill="#82553e" image-rendering="optimizeQuality" shape-rendering="geometricPrecision" text-rendering="geometricPrecision"/><ellipse class="fil18" cx="-336.175" cy="368.737" rx="1.014" ry=".983" clip-rule="evenodd" fill="#464648" fill-rule="evenodd" image-rendering="optimizeQuality" shape-rendering="geometricPrecision" text-rendering="geometricPrecision"/><ellipse class="fil18" cx="-328.396" cy="368.737" rx="1.014" ry=".983" clip-rule="evenodd" fill="#464648" fill-rule="evenodd" image-rendering="optimizeQuality" shape-rendering="geometricPrecision" text-rendering="geometricPrecision"/><path class="fil19" d="m-330.3 366.695 3.703-.909.174.706-3.705.909zM-334.18 367.01l-3.614-1.22-.232.69 3.614 1.218z" clip-rule="evenodd" fill="#82553e" fill-rule="evenodd" image-rendering="optimizeQuality" shape-rendering="geometricPrecision" text-rendering="geometricPrecision"/><path d="m-316.893 349.772-.002-2.093.48 1.24a8.164 8.164 0 0 1-3.866 10.206l-.773-4.388a5.036 5.036 0 0 0 4.161-4.965M-347.37 349.772l.002-2.093-.481 1.24a8.164 8.164 0 0 0 3.866 10.206l.774-4.388a5.036 5.036 0 0 1-4.161-4.965" fill="#d3d4d3" stroke="#d3d4d3" stroke-width=".9999684799999999" stroke-linejoin="round"/><path d="M-342.292 353.9a.43.43 0 0 0-.568.217l-.013.028-2.298 5.152-.013.028a.43.43 0 0 0 .218.569l3.074 1.371.188-.421 2.298-5.152.188-.42zM-322.003 353.858a.43.43 0 0 1 .568.218l.013.028 2.298 5.152.012.028a.43.43 0 0 1-.217.568l-3.074 1.372-.188-.421-2.298-5.152-.188-.421z" fill="#764419"/><path d="M-320.04 363.964v-1.3c0-6.679-5.415-12.093-12.095-12.093v13.393zM-344.23 363.964v-1.299c0-6.68 5.415-12.094 12.094-12.094v13.393Z" fill="#a25c1d"/><path d="M-344.137 361.196c-.058.482-.092.972-.092 1.469v1.299h24.188v-1.299c0-.497-.033-.987-.092-1.469z" fill="#99571b"/><path d="M-332.133 350.57v13.393h2.474v-13.138a12.14 12.14 0 0 0-2.474-.255zM-332.133 350.57c-.825 0-1.63.083-2.41.24v13.153h2.41z" fill="#99571b"/><path d="M-320.04 363.435h-10.86v-13.148a.441.441 0 0 0-.441-.441h-.793c-.906 6.446-.901 15.653 0 23.142l2.106-1.591-.872-4.964h10.86a.65.65 0 0 0 .65-.65v-1.698a.65.65 0 0 0-.65-.65" fill="#cccdcc"/><path d="M-332.928 349.845a.442.442 0 0 0-.442.442v13.147h-10.86a.65.65 0 0 0-.65.65v1.698a.65.65 0 0 0 .65.65h10.86l-.872 4.964 2.107 1.592v-23.143Z" fill="#d3d4d3"/><path d="M-351.574 368.712c3.013 10.267 7.887 19.103 12.445 28.18l2.364-1.044-7.058-22.571z" fill="#cccdcc"/><path d="m-351.574 368.712-1.847 8.804 11.512 19.708h2.03l.75-.332z" fill="#d3d4d3"/><path d="M-330.373 381.59c0 7.317-3.944 13.247-3.944 13.247s-3.941-5.93-3.941-13.247c0-.662.014-1.308.04-1.944h.063c.925.773 2.301 1.263 3.84 1.263 1.537 0 2.914-.49 3.84-1.263h.061c.027.636.041 1.282.041 1.944z" class="fil8" clip-rule="evenodd" fill="#328c69" image-rendering="optimizeQuality" shape-rendering="geometricPrecision" text-rendering="geometricPrecision"/><path d="M-334.966 396.135h1.3v-6.272h-1.3z" class="fil8" clip-rule="evenodd" fill="#328c69" image-rendering="optimizeQuality" shape-rendering="geometricPrecision" text-rendering="geometricPrecision"/><path d="m-341.451 397.545-2.882-6.473 3.07-9.45 10.537-5.338 9.308 1.323 6.567 7.37.472 7.182-1.984 5.858h-25.183z" fill="#a25c1d"/><path d="m-328.905 374.627-.041 3.706c7.032 0 12.774 5.789 12.774 12.821a12.736 12.736 0 0 1-2.023 6.863h4.258a16.416 16.416 0 0 0 1.517-6.906c0-9.105-7.38-16.484-16.485-16.484z" fill="#d3d4d3"/><path d="M-328.905 374.627c-9.104 0-16.485 7.38-16.485 16.484 0 2.467.546 4.805 1.518 6.906h4.243a12.733 12.733 0 0 1-2.009-6.863 12.733 12.733 0 0 1 12.733-12.733z" fill="#dbdcdb"/><path d="M-328.057 376.469a.848.848 0 1 0-1.696 0 .848.848 0 0 0 1.696 0zM-343.549 390.264a.848.848 0 1 1 0 1.696.848.848 0 0 1 0-1.696M-314.263 391.96a.848.848 0 1 1 0-1.696.848.848 0 0 1 0 1.696M-338.66 380.158a.848.848 0 1 1-1.2 1.2.848.848 0 0 1 1.2-1.2M-317.952 381.358a.848.848 0 1 1-1.2-1.2.848.848 0 0 1 1.2 1.2" fill="#65686d"/><path d="M-328.906 378.31c-.39 1.43-.83 2.86 0 4.267h9.542a12.774 12.774 0 0 0-9.542-4.267" fill="#7e481b"/><path d="M-328.905 378.31v4.267h-9.542a12.774 12.774 0 0 1 9.542-4.267" fill="#824b1b"/><path d="M-328.905 382.577v4.267h-12.072a12.778 12.778 0 0 1 2.53-4.267z" fill="#a25c1d"/><path d="M-328.905 386.844v4.267h-12.8c0-1.496.26-2.93.728-4.267z" fill="#824b1b"/><path d="M-328.905 391.11v4.268h-12.072a12.86 12.86 0 0 1-.729-4.267z" fill="#a25c1d"/><path d="M-328.906 395.378c-.018.88-.839 1.74 0 2.64h10.777c.526-.821.963-1.705 1.295-2.64z" fill="#7e481b"/><path d="M-340.976 395.378c.331.935.768 1.819 1.295 2.64h10.776v-2.64z" fill="#824b1b"/><path d="M-328.906 382.577v4.267h12.072a12.778 12.778 0 0 0-2.53-4.267z" fill="#95541b"/><path d="M-328.906 386.844v4.267h12.801c0-1.496-.26-2.93-.73-4.267z" fill="#7e481b"/><path d="M-328.906 391.11v4.268h12.072c.469-1.338.73-2.77.73-4.267z" fill="#95541b"/><path d="M-322.87 391.112a6.036 6.036 0 0 0-6.036-6.037c-1.333 3.984-1.531 8.002 0 12.074a6.036 6.036 0 0 0 6.036-6.037" fill="#ffba18"/><path d="M-334.943 391.112a6.036 6.036 0 0 0 6.037 6.037v-12.074a6.036 6.036 0 0 0-6.037 6.037" fill="#ffca28"/></g><g clip-path="url(#d)" transform="matrix(.03528 0 0 -.03528 -901.778 368.22)"><path d="M14055.5 16300h.1-.1" fill="url(#e)" transform="scale(1.16823)"/></g><g clip-path="url(#h)" transform="matrix(.03528 0 0 -.03528 -901.778 368.22)"><path d="M8317.26 16300h.18-.18" fill="url(#i)" transform="scale(1.1695)"/></g><g clip-path="url(#j)" transform="matrix(.03528 0 0 -.03528 -220.743 519.207)"><path d="M14027.5 16300h.2-.2" fill="url(#k)" transform="scale(1.16912)"/></g></svg>