<svg width="100" height="100" viewBox="0 0 26.458 26.458" xmlns="http://www.w3.org/2000/svg"><path style="line-height:normal;font-variant-ligatures:normal;font-variant-position:normal;font-variant-caps:normal;font-variant-numeric:normal;font-variant-alternates:normal;font-feature-settings:normal;text-indent:0;text-align:start;text-decoration-line:none;text-decoration-style:solid;text-decoration-color:#000;text-transform:none;text-orientation:mixed;white-space:normal;shape-padding:0;isolation:auto;mix-blend-mode:normal;solid-color:#000;solid-opacity:1" d="M14.2 11.237a.265.265 0 0 0-.256.182c-.239.691-.588 1.692-2.133 2.61-.798.02-1.65.14-2.537.407.867-.91 1.102-1.758 1.142-2.204a.265.265 0 1 0-.529-.047c-.039.437-.337 1.607-2.035 2.754-4.041 1.736-6.54 5.772-7.521 7.42l.09-.082c2.27 2.545 5.685 5.112 10.775 4.797 5.105-.315 8.593-3.035 9.835-4.257 1.118-1.1 1.593-2.225 1.677-2.438.127.108.183.051.183.051-.103-.159-.194-.191-.298-.342 1.118-.35 1.994-.838 2.573-1.615a.265.265 0 1 0-.425-.317c-.515.692-1.332 1.143-2.475 1.477-.351-.471-.71-.898-1.068-1.284.33-.143.613-.3.856-.468.679-.471 1.044-1.02 1.303-1.474a.265.265 0 1 0-.461-.263c-.245.43-.55.888-1.145 1.3a4.583 4.583 0 0 1-.949.495 14.086 14.086 0 0 0-2.085-1.717c.294-.133.55-.278.772-.432.68-.47 1.044-1.019 1.304-1.474a.265.265 0 1 0-.461-.263c-.245.43-.55.888-1.145 1.3-.27.187-.601.365-1.016.521a14.43 14.43 0 0 0-2.041-1.023c.24-.16.447-.323.626-.49.604-.565.885-1.16 1.075-1.648a.265.265 0 1 0-.494-.193c-.18.461-.414.958-.943 1.453a4.61 4.61 0 0 1-.895.642 10.932 10.932 0 0 0-2.796-.567c1.16-.897 1.533-1.849 1.742-2.456a.265.265 0 0 0-.245-.355z" transform="translate(.463 -5.94)" color="#000" font-weight="400" font-family="sans-serif" overflow="visible" fill="#fff" stroke="#fff" stroke-width="1.587" stroke-linecap="round" stroke-linejoin="round"/><g transform="translate(.213 .73) scale(.3655)"><path style="line-height:normal;font-variant-ligatures:normal;font-variant-position:normal;font-variant-caps:normal;font-variant-numeric:normal;font-variant-alternates:normal;font-feature-settings:normal;text-indent:0;text-align:start;text-decoration-line:none;text-decoration-style:solid;text-decoration-color:#000;text-transform:none;text-orientation:mixed;white-space:normal;shape-padding:0;isolation:auto;mix-blend-mode:normal;solid-color:#000;solid-opacity:1" d="M39.516 12.506a.725.725 0 0 0-.702.498c-.807 2.337-2.074 5.97-9.42 8.867a.725.725 0 1 0 .532 1.348c7.696-3.036 9.437-7.36 10.26-9.742a.725.725 0 0 0-.67-.971zM28.43 14.428a.725.725 0 0 0-.705.67c-.125 1.396-1.211 5.523-8.243 9.095a.725.725 0 1 0 .657 1.293c7.384-3.751 8.86-8.348 9.03-10.26a.725.725 0 0 0-.74-.798zm20.31 1.115a.725.725 0 0 0-.648.47c-.493 1.26-1.133 2.62-2.58 3.971-1.448 1.352-3.728 2.704-7.535 3.791a.725.725 0 1 0 .398 1.393c3.966-1.133 6.476-2.581 8.127-4.123 1.651-1.542 2.418-3.171 2.94-4.504a.725.725 0 0 0-.702-.998zm8.174 4.287a.725.725 0 0 0-.637.375c-.67 1.176-1.5 2.427-3.129 3.555-1.628 1.128-4.078 2.134-8.003 2.658a.725.725 0 1 0 .19 1.437c4.09-.546 6.783-1.615 8.64-2.902 1.857-1.286 2.853-2.786 3.562-4.03a.725.725 0 0 0-.623-1.093zm7.01 5.715a.725.725 0 0 0-.637.375c-.67 1.175-1.5 2.427-3.129 3.555-1.628 1.127-4.079 2.133-8.004 2.658a.725.725 0 1 0 .192 1.437c4.088-.546 6.781-1.616 8.638-2.902 1.857-1.286 2.854-2.786 3.563-4.03a.725.725 0 0 0-.623-1.093zm5.014 5.576a.725.725 0 0 0-.606.3c-1.509 2.026-3.962 3.295-7.443 4.23a.725.725 0 1 0 .375 1.4c3.634-.976 6.446-2.369 8.23-4.764a.725.725 0 0 0-.556-1.166Z" color="#000" font-weight="400" font-family="sans-serif" overflow="visible" fill="#4e4e4e"/><path d="M34.78 25.175C18.745 25.153 3.256 41.36 1.87 42.661c.221.1 4.884 3.79 9.026 4.92 4.243 1.16 13.676 4.002 27.124 1.945 13.33-2.04 21.356-9.558 24.697-12.076-2.43-2.062-12.357-11.796-27.136-12.262a26.23 26.23 0 0 0-.8-.013z" fill="#fff"/><circle r="13.334" cy="37.991" cx="31.982" fill="#3280ad" fill-rule="evenodd"/><circle cx="31.982" cy="37.991" r="10.621" fill="#1c4a6d" fill-rule="evenodd"/><path d="M1.599 42.911c2.93-4.918 10.795-17.62 23.698-21.424 9.486-3.162 17.639-.038 21.372 1.714 3.734 1.753 10.768 5.661 16.637 14.767 0 0-10.722-10.183-27.8-10.722-17.08-.539-33.907 15.665-33.907 15.665Z" fill="#e09465"/><path d="M1.791 42.628s4.863 2.196 9.106 3.354c4.243 1.158 13.676 4.001 27.124 1.944 13.448-2.057 21.514-8.073 24.8-10.55 0 0-1.239 3.447-4.633 6.788-3.395 3.34-12.93 10.775-26.885 11.637C17.349 56.663 8 49.605 1.79 42.628Z" fill="#e09465"/><path d="M32.472 46.199c2.39-.156 5.032-1.389 6.301-3.37.855-1.336.944-3.84-.111-5.4-.396-.586-1.294-2.189-3.131-2.28-2.055-.103-3.069-.89-1.703-1.68.928-.438 2.563-.616 2.763-1.525.2-.91-.4-2.045-3.295-2.825-2.896-.779-.034-1.915.1-3.473.133-1.558-3.153-1.584-1.594-5.026-3.484 3.423 1.42 4.372-1.236 5.61-1.94.905-5.425 2.37-.532 4.707 1.464.65.771 1.502-1.93 2.955-1.932 1.038-2.825 2.293-3.41 4.304-.501 1.72.199 4.198 1.53 5.648 1.49 1.623 4.02 2.5 6.248 2.355z" fill="#94dffc"/><path d="M30.371 43.42c1.473.695 3.296.545 4.558-.641 1.407-1.323 1.62-3.641.233-5.08-1.137-1.18-3.111-1.35-4.32-.145-.965.962-1.098 2.614-.065 3.607.798.767 2.155.863 2.946-.012.585-.647.647-1.732-.085-2.338a.357.357 0 1 0-.454.55c.383.317.347.939.01 1.31-.496.549-1.394.485-1.923-.023-.721-.694-.625-1.894.074-2.59.907-.904 2.43-.77 3.304.136 1.095 1.135.922 3.002-.208 4.064-1.377 1.295-3.608 1.08-4.868-.288-1.502-1.632-1.24-4.246.378-5.712a4.402 4.402 0 0 1 1.027-.693.357.357 0 1 0-.311-.641c-.433.21-.836.482-1.193.806-1.903 1.723-2.211 4.783-.426 6.722.38.412.833.737 1.323.969z" style="line-height:normal;font-variant-ligatures:normal;font-variant-position:normal;font-variant-caps:normal;font-variant-numeric:normal;font-variant-alternates:normal;font-feature-settings:normal;text-indent:0;text-align:start;text-decoration-line:none;text-decoration-style:solid;text-decoration-color:#000;text-transform:none;text-orientation:mixed;white-space:normal;shape-padding:0;isolation:auto;mix-blend-mode:normal;solid-color:#000;solid-opacity:1" color="#000" font-weight="400" font-family="sans-serif" overflow="visible" fill="#2f79a3" fill-rule="evenodd"/></g></svg>