<svg width="100" height="100" viewBox="0 0 26.458 26.458" xmlns="http://www.w3.org/2000/svg"><path class="cls-108" d="M12.573.794c-.663.755-1.51 1.994-1.634 3.404-.524-.86-1.46-1.652-3.05-2.182l-.085 1.416-1.16-.698c-.197.986-.31 2.482.287 3.765-.884-.483-2.09-.701-3.733-.365l.635 1.27-1.353-.025c.322.952.971 2.305 2.13 3.117-1.007.024-2.16.438-3.414 1.55l1.184.782-1.184.656c.755.663 1.994 1.51 3.404 1.634-.861.524-1.653 1.46-2.183 3.05l1.417.085-.698 1.16c.985.197 2.482.31 3.765-.287-.484.884-.702 2.09-.366 3.733l1.27-.635-.025 1.353c.952-.322 2.305-.971 3.117-2.13.024 1.007.438 2.16 1.55 3.415l.783-1.184.655 1.184c.462-.526 1.013-1.287 1.346-2.176.789.592 2.313 1.867 2.464 2.979 0 0 .442-.915.712-2.08l.162.055.085-1.416 1.16.697c.056-.282.105-.606.133-.956 1.218.557 3.092 1.624 4.094 3.262 0 0 .151-3.156-1.498-5.59a8.56 8.56 0 0 0 .717-.115l-.635-1.27 1.354.025c-.323-.952-.972-2.305-2.131-3.117 1.007-.024 2.16-.438 3.415-1.55l-1.185-.783 1.185-.655c-.755-.663-1.994-1.51-3.404-1.634.86-.524 1.652-1.46 2.182-3.05l-1.416-.085.697-1.16c-.985-.197-2.482-.31-3.765.287.484-.884.702-2.09.366-3.733l-1.27.635.025-1.354c-.952.323-2.305.972-3.117 2.131-.024-1.007-.438-2.16-1.55-3.415l-.783 1.184z" fill="#009015" stroke="#fff" stroke-width="1.588" stroke-linecap="round" stroke-linejoin="round" paint-order="stroke fill markers"/><g data-name="2" transform="translate(-25.64 -204.267) scale(.05478)"><path class="cls-108" d="M800.309 4097.008c21.2 37.18-9.26 100.2-9.26 100.2-3.75-27.5-53.5-60.5-53.5-60.5l-8.27-56.14s9.76-23.6 33.58-35.64a324.087 324.087 0 0 1 37.45 52.08z" fill="#009015"/><path class="cls-109" d="M906.889 4189.208c-28.56-46.67-95.91-68-95.91-68l-3.17-33.18-44.31-43.42c16.58-8.16 39.84-10.68 71.18 3.93 77.24 36 72.21 140.67 72.21 140.67z" fill="#00b21a"/><path class="cls-107" d="M668.584 3891.978c-87.533-8.83-86.2-78.557-79.264-113.353l21.175 12.74 1.55-25.86c101.777 33.904 56.54 126.473 56.54 126.473z" fill="#ffc61b"/><path class="cls-110" d="M709.517 3881.006c-71.39-51.413-35.373-111.132-11.968-137.798l11.968 21.62 14.272-21.62c71.19 80.25-14.272 137.798-14.272 137.798z" fill="#ffb61b"/><path class="cls-107" d="M750.453 3891.971c-36.12-80.221 24.932-113.93 58.534-125.321l-.445 24.707 23.17-11.587c21.527 105.093-81.26 112.201-81.26 112.201z" fill="#ffc61b"/><path class="cls-110" d="M780.421 3921.934c8.83-87.533 78.557-86.2 113.353-79.264l-12.74 21.175 25.86 1.55c-33.904 101.777-126.473 56.54-126.473 56.54z" fill="#ffb61b"/><path class="cls-107" d="M791.393 3962.867c51.414-71.39 111.133-35.373 137.798-11.968l-21.62 11.968 21.62 14.272c-80.25 71.19-137.798-14.272-137.798-14.272z" fill="#ffc61b"/><path class="cls-110" d="M780.428 4003.802c80.221-36.12 113.93 24.933 125.321 58.535l-24.707-.445 11.587 23.17c-105.093 21.527-112.2-81.26-112.2-81.26z" fill="#ffb61b"/><path class="cls-107" d="M750.465 4033.77c87.534 8.83 86.2 78.558 79.264 113.354l-21.175-12.74-1.55 25.86c-101.777-33.904-56.54-126.473-56.54-126.473z" fill="#ffc61b"/><path class="cls-110" d="M709.532 4044.743c71.391 51.414 35.373 111.132 11.968 137.798l-11.968-21.62-14.272 21.62c-71.19-80.25 14.272-137.798 14.272-137.798z" fill="#ffb61b"/><path class="cls-107" d="M668.596 4033.778c36.12 80.221-24.931 113.93-58.534 125.321l.445-24.707-23.17 11.587c-21.526-105.093 81.26-112.2 81.26-112.2z" fill="#ffc61b"/><path class="cls-110" d="M638.628 4003.815c-8.83 87.533-78.557 86.2-113.353 79.264l12.74-21.175-25.86-1.55c33.904-101.777 126.473-56.54 126.473-56.54z" fill="#ffb61b"/><path class="cls-107" d="M627.656 3962.882c-51.413 71.391-111.132 35.373-137.798 11.968l21.62-11.968-21.62-14.272c80.25-71.19 137.799 14.272 137.799 14.272z" fill="#ffc61b"/><path class="cls-110" d="M638.621 3921.947c-80.221 36.12-113.93-24.933-125.321-58.535l24.707.445-11.587-23.17c105.094-21.527 112.201 81.26 112.201 81.26z" fill="#ffb61b"/><circle class="cls-111" cx="709.525" cy="3962.874" r="119.331" fill="#745143"/><path class="cls-112" d="M817.252 3962.878q0 4.991-.455 9.87-.067.866-.166 1.73a106.179 106.179 0 0 1-2.363 13.642 76.992 76.992 0 0 1-.72 2.862q-1.332 4.957-3.128 9.715a105.735 105.735 0 0 1-6.122 13.441 103.048 103.048 0 0 1-4.824 8.019c-.2.321-.411.632-.622.943a109.325 109.325 0 0 1-7.807 10.203 106.507 106.507 0 0 1-6.233 6.61 106.25 106.25 0 0 1-10.525 9.05 101.67 101.67 0 0 1-4.536 3.238 80.897 80.897 0 0 1-3.072 1.996 104.514 104.514 0 0 1-12.72 6.843 108.387 108.387 0 0 1-9.184 3.66 103.71 103.71 0 0 1-10.004 2.917q-2.711.665-5.49 1.164-4.857.915-9.88 1.364c-.489.056-.977.09-1.476.134q-4.159.316-8.396.321c-3.271 0-6.52-.144-9.715-.443-.588-.045-1.164-.1-1.741-.167q-4.824-.499-9.504-1.43c-2.086-.41-4.137-.877-6.178-1.409q-4.675-1.214-9.16-2.828a100.483 100.483 0 0 1-9.106-3.738 106.358 106.358 0 0 1-12.632-6.931 107.08 107.08 0 0 1-7.275-5.113 1.335 1.335 0 0 1-.255-.2 106.126 106.126 0 0 1-10.448-9.127 100.1 100.1 0 0 1-6.155-6.687q-1.83-2.13-3.505-4.348a102.241 102.241 0 0 1-4.846-6.876 105.085 105.085 0 0 1-4.747-8.096 106.53 106.53 0 0 1-6.022-13.541 104.838 104.838 0 0 1-2.994-9.66.635.635 0 0 1-.044-.156 108.685 108.685 0 0 1-2.806-15.537c-.033-.366-.078-.743-.111-1.12q-.483-5.091-.488-10.315c0-.687.011-1.364.022-2.051.033-2.14.144-4.26.3-6.366a106.058 106.058 0 0 1 1.497-11.346 92.06 92.06 0 0 1 .953-4.613 105.513 105.513 0 0 1 3.128-10.88 100.646 100.646 0 0 1 3.327-8.418c.1-.255.222-.51.333-.765a105.358 105.358 0 0 1 6.843-12.72 102.665 102.665 0 0 1 5.234-7.609 106.243 106.243 0 0 1 9.05-10.525 106.466 106.466 0 0 1 6.61-6.233 106.045 106.045 0 0 1 11.146-8.429q3.893-2.578 8.018-4.824a104.662 104.662 0 0 1 7.597-3.726 99.352 99.352 0 0 1 5.845-2.396 100.278 100.278 0 0 1 9.726-3.116 83.118 83.118 0 0 1 3.727-.943 107.545 107.545 0 0 1 12.765-2.151q4.725-.516 9.56-.6c.688-.01 1.364-.021 2.052-.021.2 0 .41 0 .61.01 3.271.012 6.51.178 9.704.477h.011a105.795 105.795 0 0 1 12.222 1.886q2.229.466 4.425 1.031h.01q5.008 1.298 9.794 3.04a88.174 88.174 0 0 1 4.402 1.718q4.692 1.93 9.15 4.303a105.136 105.136 0 0 1 8.096 4.747 104.404 104.404 0 0 1 11.224 8.351 100.168 100.168 0 0 1 6.687 6.155 106.143 106.143 0 0 1 9.128 10.447 104.643 104.643 0 0 1 5.312 7.53 106.378 106.378 0 0 1 6.932 12.633 83.757 83.757 0 0 1 1.852 4.214q1.015 2.412 1.885 4.891a103.729 103.729 0 0 1 3.904 13.741q.183.799.333 1.597a103.99 103.99 0 0 1 1.597 11.246c.277 2.994.421 6.033.432 9.094.011.21.011.41.011.621z" fill="#7f5d4e"/><path class="cls-111" d="m814.878 3940.32-8.817-8.817-6.421-6.421-9.782-9.782-6.421-6.421-9.793-9.793-6.422-6.422-35.145-35.145q2.229.466 4.425 1.031h.01q5.008 1.298 9.794 3.039a88.174 88.174 0 0 1 4.402 1.719l22.936 22.935 6.421 6.421 9.793 9.793 6.421 6.422 9.782 9.781 3.028 3.028q1.014 2.412 1.885 4.891a103.729 103.729 0 0 1 3.904 13.741zm2.374 22.558q0 4.991-.455 9.87-.067.866-.166 1.73l-.788-.775-9.782-9.793-6.421-6.422-9.793-9.782-22.625-22.624-9.782-9.793-6.42-6.421-9.794-9.782-6.421-6.422-9.782-9.792-6.421-6.41-9.782-9.794-10.902-10.902q4.724-.515 9.56-.598c.688-.012 1.364-.023 2.052-.023.2 0 .41 0 .61.011l107.1 107.101c.011.21.011.41.011.621zm-3.705 28.104q-1.33 4.957-3.127 9.715l-138.72-138.72a100.278 100.278 0 0 1 9.726-3.116l1.398 1.397 9.782 9.782 6.421 6.421 42.2 42.2 6.42 6.42 9.793 9.794 6.422 6.421 9.782 9.782 6.421 6.421 9.782 9.782 6.421 6.422zm-9.249 23.156a103.048 103.048 0 0 1-4.824 8.019l-9.616-9.616-6.421-6.421-9.793-9.793-6.422-6.421-25.985-25.985-6.421-6.422-9.793-9.793-6.421-6.42-25.996-25.997-6.422-6.421-9.782-9.782-6.42-6.422-9.783-9.781-6.421-6.422-3.538-3.538q3.893-2.578 8.018-4.824l34.348 34.347 6.421 6.422 9.793 9.792 6.421 6.422 9.782 9.782 6.421 6.421 42.2 42.2 6.421 6.42 9.793 9.794 6.421 6.421zm-13.253 19.165a106.539 106.539 0 0 1-6.233 6.61l-17.59-17.59-9.793-9.782-6.421-6.42-9.782-9.794-6.421-6.421-9.782-9.782-6.421-6.421-9.793-9.782-6.422-6.422-9.781-9.792-32.418-32.418-6.421-6.41-9.782-9.793-11.5-11.501a106.466 106.466 0 0 1 6.609-6.233l37.308 37.308 6.422 6.422 9.782 9.782 6.421 6.421 9.793 9.793 6.421 6.421 64.824 64.824 9.782 9.782zm-16.758 15.66a101.67 101.67 0 0 1-4.536 3.238 81.056 81.056 0 0 1-3.072 1.996l-48.077-48.077-9.782-9.782-6.421-6.421-58.414-58.414-6.421-6.421-9.782-9.782-9.582-9.582a102.665 102.665 0 0 1 5.234-7.608l4.348 4.347 16.203 16.204 6.421 6.42 9.782 9.783 6.421 6.421 25.996 25.996 6.422 6.422 9.793 9.792 6.421 6.422 25.985 25.985 6.422 6.421 9.792 9.793 6.422 6.422 9.782 9.781zm-20.329 12.077a108.387 108.387 0 0 1-9.183 3.66l-3.538-3.538-6.421-6.421-9.793-9.793-6.421-6.422-25.985-25.985-6.422-6.421-9.793-9.793-6.421-6.421-9.782-9.782-6.421-6.421-9.793-9.793-6.422-6.422-9.781-9.782-6.422-6.42-13.663-13.664a100.645 100.645 0 0 1 3.327-8.418c.1-.255.222-.51.333-.765l6.643 6.643 9.782 9.782 6.421 6.421 58.414 58.414 6.421 6.421 9.782 9.782zm-24.676 7.741q-4.858.915-9.882 1.364c-.488.056-.976.09-1.475.133l-9.116-9.116-6.422-6.421-9.781-9.793-22.625-22.625-9.793-9.782-6.421-6.421-9.782-9.793-6.421-6.421-9.782-9.782-6.433-6.421-9.782-9.793-6.421-6.41-3.028-3.04a106.058 106.058 0 0 1 1.498-11.345l7.962 7.963 6.41 6.41 58.414 58.414 6.422 6.421 9.782 9.782 6.421 6.421 9.793 9.793 6.421 6.422zm-31.209 1.209q-4.824-.499-9.504-1.43a103.9 103.9 0 0 1-6.178-1.409l-22.192-22.192-6.421-6.421-9.793-9.793-6.421-6.422-9.782-9.782-6.422-6.421-9.793-9.793-6.321-6.321-.1-.1.055-.056a108.685 108.685 0 0 1-2.806-15.537l9.172 9.171 6.421 6.422 25.996 25.996 6.422 6.421 9.793 9.793 6.421 6.422zm-53.855-21.449a1.335 1.335 0 0 1-.255-.2 106.126 106.126 0 0 1-10.448-9.127 100.1 100.1 0 0 1-6.155-6.688q-1.83-2.129-3.504-4.347z" fill="#745143"/><path class="cls-111" d="m685.153 3857.918-2.33 2.34-22.624 22.625-9.793 9.781-6.421 6.422-9.782 9.793-6.421 6.421-9.782 9.782-6.422 6.421-7.009 6.998a105.513 105.513 0 0 1 3.128-10.88 100.645 100.645 0 0 1 3.327-8.417l.554-.543 9.782-9.782 6.422-6.422 9.782-9.793 6.42-6.42 9.794-9.783 6.421-6.421 5.656-5.667a99.409 99.409 0 0 1 5.845-2.396 100.278 100.278 0 0 1 9.726-3.116 82.99 82.99 0 0 1 3.727-.943zm34.691-2.285-4.614 4.614-6.41 6.421-9.793 9.793-6.421 6.422-9.782 9.781-6.422 6.422-9.792 9.782-6.422 6.421-9.782 9.793-22.624 22.624-9.793 9.782-6.422 6.422-9.282 9.282q-.483-5.09-.488-10.314c0-.687.01-1.364.022-2.051l3.327-3.328 6.432-6.421 9.782-9.793 32.406-32.406 6.433-6.422 9.782-9.793 37.497-37.497c.687-.01 1.364-.022 2.051-.022.2 0 .41 0 .61.011 3.272.011 6.51.178 9.705.477zm26.462 5.956-5.08 5.08-9.782 9.792-6.421 6.41-9.793 9.793-6.421 6.422-9.782 9.782-6.421 6.421-9.782 9.793-6.422 6.421-9.792 9.782-22.625 22.625-9.782 9.793-6.421 6.42-9.793 9.783-6.422 6.421-3.327 3.338a104.868 104.868 0 0 1-2.994-9.66l-.1-.1 16.203-16.202 6.433-6.422 9.781-9.793 6.422-6.421 9.782-9.782 6.42-6.421 9.794-9.782 6.421-6.421 9.782-9.793 16.203-16.204 6.422-6.42 9.792-9.783 6.422-6.421 9.782-9.793 1.697-1.697h.01q5.008 1.298 9.793 3.039zm21.648 10.769-4.092 4.103-6.422 6.422-9.792 9.781-6.422 6.422-9.782 9.793-6.421 6.421-9.782 9.782-6.421 6.421-9.793 9.782-6.421 6.421-9.782 9.793-22.625 22.625-9.793 9.782-6.421 6.421-9.782 9.793-6.421 6.421-8.773 8.762a105.117 105.117 0 0 1-4.746-8.096l7.097-7.087 6.422-6.421 9.782-9.793 6.42-6.422 9.794-9.781 6.421-6.422 16.203-16.203 9.782-9.793 6.422-6.421 9.793-9.782 6.42-6.421 9.783-9.782 6.421-6.422 9.782-9.793 6.421-6.42 9.793-9.783 6.421-6.421 2.418-2.429a105.079 105.079 0 0 1 8.096 4.747zm17.912 14.506-12.222 12.222-9.782 9.793-6.421 6.41-32.418 32.417-9.782 9.793-6.432 6.422-9.782 9.782-6.421 6.42-9.782 9.783-6.422 6.421-9.781 9.793-6.433 6.421-26.672 26.673a100.129 100.129 0 0 1-6.156-6.688l.422-.421 9.782-9.782 16.203-16.203 6.432-6.421 9.782-9.793 32.406-32.407 6.433-6.421 9.782-9.793 6.421-6.421 9.782-9.782 6.421-6.421 9.793-9.793 6.421-6.41 9.782-9.794 11.956-11.955a100.116 100.116 0 0 1 6.687 6.155zm14.44 17.978-4.027 4.037-6.421 6.421-9.793 9.782-6.421 6.421-9.782 9.793-22.625 22.625-9.793 9.782-6.421 6.42-9.782 9.794-22.624 22.624-9.793 9.782-6.422 6.422-9.781 9.793-6.422 6.42-8.706 8.696a107.107 107.107 0 0 1-7.275-5.113 1.335 1.335 0 0 1-.255-.2l.033-.022 9.781-9.781 6.422-6.422 9.782-9.793 6.421-6.421 9.793-9.782 22.625-22.624 9.781-9.793 6.422-6.422 9.793-9.782 6.421-6.42 9.782-9.783 6.421-6.421 9.782-9.793 6.421-6.421 9.793-9.782 6.422-6.422 5.135-5.146a104.573 104.573 0 0 1 5.312 7.53zm10.668 21.738-4.913 4.923-9.793 9.782-6.421 6.421-9.782 9.793-6.421 6.422-16.204 16.203-9.792 9.782-6.422 6.421-9.782 9.793-6.421 6.421-9.782 9.782-6.421 6.422-9.793 9.781-6.421 6.422-9.782 9.793-6.422 6.421-3.171 3.16a100.47 100.47 0 0 1-9.106-3.737l5.856-5.844 6.421-6.422 9.782-9.793 6.422-6.421 9.793-9.782 6.42-6.421 9.783-9.782 6.421-6.421 9.782-9.793 6.421-6.422 9.793-9.781 22.625-22.625 9.782-9.793 6.42-6.421 9.794-9.782 6.421-6.421 1.176-1.187a83.848 83.848 0 0 1 1.852 4.214q1.015 2.412 1.885 4.891zm5.834 26.583-4.325 4.336-6.422 6.41-9.793 9.794-6.421 6.421-9.782 9.782-6.421 6.421-9.782 9.793-6.433 6.421-32.406 32.407-9.782 9.793-6.432 6.421-8.995 8.995c-.587-.045-1.164-.1-1.74-.167q-4.825-.499-9.505-1.43l4.037-4.038 9.781-9.781 6.433-6.422 9.782-9.793 6.421-6.421 9.782-9.782 6.421-6.421 9.782-9.782 6.432-6.421 9.782-9.793 32.418-32.418 6.421-6.41 9.15-9.16a103.99 103.99 0 0 1 1.597 11.245zm-.012 19.586q-.066.865-.165 1.73a106.179 106.179 0 0 1-2.363 13.641l-1.785 1.797-6.422 6.421-9.782 9.782-6.421 6.421-9.793 9.782-6.421 6.422-9.782 9.793-22.625 22.624-6.465 6.455q-2.712.665-5.49 1.164-4.858.915-9.882 1.364l5.623-5.622 9.793-9.782 6.421-6.422 9.782-9.781 6.422-6.422 9.781-9.793 6.422-6.421 9.793-9.782 16.203-16.203 6.421-6.422 9.782-9.792zm-17.944 50.351a109.325 109.325 0 0 1-7.807 10.203 106.539 106.539 0 0 1-6.233 6.61 106.25 106.25 0 0 1-10.525 9.05 101.67 101.67 0 0 1-4.536 3.238l3.893-3.882 9.782-9.793z" fill="#745143"/><circle class="cls-113" cx="658.561" cy="3942.332" r="21.542" fill="#050505"/><ellipse class="cls-114" cx="667.236" cy="3935.519" rx="8.278" ry="7.833" fill="#fbffff"/><ellipse class="cls-114" cx="648.297" cy="3953.101" rx="4.161" ry="4.145" fill="#fbffff"/><circle class="cls-113" cx="761.9" cy="3942.332" r="21.542" fill="#050505"/><ellipse class="cls-114" cx="769.311" cy="3935.519" rx="8.278" ry="7.833" fill="#fbffff"/><ellipse class="cls-114" cx="750.372" cy="3953.101" rx="4.161" ry="4.145" fill="#fbffff"/></g></svg>