<svg width="100" height="100" viewBox="0 0 26.458 26.458" xmlns="http://www.w3.org/2000/svg"><path d="M7.263 5.798a1.021 1.021 0 1 0 .818 1.616 5.102 5.102 0 0 1 .397.154c.411.177.92.455 1.394.877a4.51 4.51 0 0 1 .347.344 4.238 4.238 0 0 1 .416.546l.027.045a2.84 2.84 0 0 1 .206.42l.022.054.04.115.017.049c.017.052.032.106.047.16l.013.055a3.906 3.906 0 0 1 .086.46l.009.072.011.115.005.062.002.033c.006.09.01.183.01.275v.047c.001.097-.001.195-.006.294l-.003.057a6.981 6.981 0 0 1-.022.297l-.005.046-.026.21a8.92 8.92 0 0 1-.039.264l-.018.115c-.02.11-.04.221-.064.333l-.01.054-.01.044c-1.027-.756-2.327-1.294-3.96-1.333-5.36-.128-5.407 5.768-5.376 6.777a1.02 1.02 0 1 0 .609.05l.006-.127c.02-.271.078-.651.232-1.04.034-.088.073-.175.118-.261a2.401 2.401 0 0 1 .832-.942 2.74 2.74 0 0 1 .892-.377c.61-.143 1.275.2 1.87.78.182.18.358.38.523.597a6.933 6.933 0 0 1 .914 1.613c.004.754.079 1.108.21 1.802 3.757-.625 7.49-.706 11.247-.081.136-.714.036-.969-.053-1.794l-.034-.005-.002-.023v-.007a6.114 6.114 0 0 1 .091-1.389 7.016 7.016 0 0 1 .19-.807 5.726 5.726 0 0 1 .454-1.097 3.824 3.824 0 0 1 .297-.451c.318-.41.7-.682 1.13-.724 1.851-.181 2.622 1.316 2.858 1.926a1.02 1.02 0 1 0 .56-.245c-.297-.964-2.248-6.527-7.279-4.673a9.427 9.427 0 0 0-1.014.441c-.42-1.599-1.236-3.127-2.72-4.174-2.42-1.706-4.432-1.286-5.305-.959a1.02 1.02 0 0 0-.954-.69z" fill="#fff" stroke="#fff" stroke-width="1.587"/><path d="M16.135 18.844c.12.032 2.09-8.08-2.598-11.386-3.252-2.293-5.772-.743-5.772-.743l-.095.587s1.805.363 2.886 1.9c1.925 2.735-1.49 7.963-1.227 9.784z" fill="#87cdef"/><path d="m7.725 6.96-.055.342s1.805.363 2.886 1.9c1.14 1.621.406 4.115-.327 6.26l2.807 2.564s.194-3.076.247-6.418c.043-2.7-2.352-4.433-5.558-4.647z" fill="#73c4ec"/><path d="M12.677 18.152s-.905-4.934 4.594-6.96c5.5-2.028 7.324 4.826 7.324 4.826l-.52.345s-.626-2.407-2.943-2.18c-1.532.15-2.438 3.204-2.098 5.012l-5.681.319z" fill="#f4bd5a"/><path d="M20.416 13.16c-1.2-.02-2.411.516-3.297 1.62-.992 1.235-1.281 2.966-1.274 4.594l3.189-.18c-.34-1.807.566-4.861 2.098-5.011 2.317-.227 2.944 2.18 2.944 2.18l.256-.17c-.752-1.986-2.323-3.003-3.916-3.032z" fill="#f2ae37"/><path d="M25.622 16.538a1.021 1.021 0 1 0-1.925.681 1.021 1.021 0 0 0 1.925-.681" fill="#fefc25"/><path d="M14.418 18.386s-1.576-6.557-7.435-6.697c-5.86-.14-5.37 6.936-5.37 6.936l.603.159s-.185-2.48 2.08-3.015c1.5-.354 3.345 2.244 3.607 4.065l5.916-.72z" fill="#fadb89"/><path d="M6.08 14.32c-.26.002-.523.028-.79.08-1.2.23-3.187.745-3.453 4.284l.38.1s-.186-2.48 2.08-3.015c1.498-.354 3.344 2.244 3.606 4.065l3.131-.878c-.44-2.537-2.46-4.666-4.955-4.637z" fill="#f8cc57"/><path d="M.81 19.449a1.02 1.02 0 1 1 2.042.022 1.02 1.02 0 0 1-2.042-.022" fill="#fefc25"/><path d="M19.059 20.479c-3.756-.625-7.489-.544-11.245.08-.136-.713-.211-1.064-.211-1.864 3.986-.662 7.416-.672 11.403-.01.089.825.189 1.08.053 1.793" fill="#ff523d"/><path d="M6.247 6.819a1.02 1.02 0 1 1 2.042.022 1.02 1.02 0 0 1-2.042-.022" fill="#fefc25"/></svg>