<svg data-name="Layer 1" viewBox="0 0 100 100" width="100" height="100" xmlns="http://www.w3.org/2000/svg"><path class="cls-1" d="M49.027 3.271a23.579 23.579 0 0 0-1.015.006c-1.684.044-3.64.25-5.559.557-2.16.345-4.274.819-5.914 1.328-.82.255-1.52.517-2.049.78-.528.261-.883.522-1.011.769-.877 1.69.491 10.385 1.138 14.156-1.162.075-2.187.193-3.017.4a6.283 6.283 0 0 0-1.215.424c-.35.17-.647.37-.885.606a2.33 2.33 0 0 0-.541.82 2.909 2.909 0 0 0-.184 1.065v.004c0 .396.066.742.178 1.047v.003l.004.01c.113.302.273.563.465.785.388.451.905.75 1.424.95.516.199 1.032.3 1.42.35h.004c.384.048.644.05.646.05v7.36a9.87 9.87 0 0 0-2.553 2.097 8.662 8.662 0 0 0-1.123 1.666 7.174 7.174 0 0 0-.394.951 6.51 6.51 0 0 0-.229.877c0 .004-.003.008-.004.012v.008a5.844 5.844 0 0 0 .193 2.914c.102.309.234.617.391.924-4.752 2.367-12.84 7.426-16.836 15.898-5.862 12.43-1.873 22.034 3.551 29.502 5.425 7.468 13.198 7.643 25.549 7.643 12.35 0 20.873 1.118 27.867-9.252.258-.383.489-.783.729-1.176 9.006 8.935 20.741 7.925 23.834 7.47a.932.932 0 0 0 .798-.892c.907-33.32-20.583-52.227-23.318-53.75-1.711-.954-3.554-1.462-5.379-1.51-2.726-.07-5.408.897-7.562 2.938-2.535-1.615-5.337-3.073-7.662-3.604-.237-2.765-.03-6.172-.03-9.894 0 0 .166-.005.215-.004a5.533 5.533 0 0 0 .371-.006c.008 0 .021-.003.03-.004.09-.005.156-.025.261-.035a6.152 6.152 0 0 0 1.264-.238c.044-.014.077-.02.121-.036.524-.175 1.032-.454 1.436-.869a2.533 2.533 0 0 0 .47-.69c.042-.087.088-.169.121-.265.103-.298.174-.624.174-1.012 0-.424-.063-.798-.18-1.126a2.639 2.639 0 0 0-.5-.858 3.11 3.11 0 0 0-.757-.623 4.78 4.78 0 0 0-.96-.428c-.627-.207-1.334-.32-2.056-.388 1.013-6.904 1.88-14.495 2.031-16.268.085-.987-1.479-1.402-3.752-1.441Zm2.813 38.403c1.101.338 2.726.864 4.75 1.699a4.698 4.698 0 0 0-.463 1.65c-1.285-.705-2.356-1.289-3.297-2.109a4.722 4.722 0 0 1-.99-1.24zm11.666 3.056a2.078 2.078 0 0 1 2.08 2.08 2.078 2.078 0 0 1-1.785 2.055c.391-.267.707-.526.94-.765.148-.154.263-.3.345-.434a.978.978 0 0 0 .146-.365 1.516 1.516 0 0 0 .01-.076 1.516 1.516 0 0 0 .002-.018 1.516 1.516 0 0 0 .004-.049 1.516 1.516 0 0 0 .004-.086 1.516 1.516 0 0 0 0-.002 1.516 1.516 0 0 0 0-.002 1.516 1.516 0 0 0 0-.002 1.516 1.516 0 0 0 0-.002 1.516 1.516 0 0 0 0-.002 1.516 1.516 0 0 0-.002-.07 1.516 1.516 0 0 0-.008-.104 1.516 1.516 0 0 0-.002-.015 1.516 1.516 0 0 0-.035-.188c.005-.277-.676-1.013-1.746-1.943a2.078 2.078 0 0 1 .047-.012zm-1.887 1.354.094.072-.12.022a2.078 2.078 0 0 1 .026-.094z" transform="matrix(1 0 0 .99989 -2.132 -.269)" fill="#6f3621" stroke="#fff" stroke-width="6" stroke-linecap="round" stroke-linejoin="round" paint-order="stroke fill markers"/><path class="cls-1" d="M48.464 41.023s9.03 2.48 11.806 5.498c0 0 2.784.97 2.804-.103.019-1.048-9.354-8.441-15.041-9.357-5.687-.917.431 3.962.431 3.962z" fill="#6f3621"/><path class="cls-3" d="M37.341 20.484c-6.734 0-10.696.232-10.696 3.431 0 3.2 4.14 3.197 4.14 3.197v10.99a6.397 6.397 0 0 1-3.563 5.738c-4.73 2.336-12.956 7.42-16.993 15.98-5.862 12.429-1.873 22.034 3.552 29.502 5.424 7.468 13.198 7.643 25.549 7.643 12.35 0 20.873 1.119 27.868-9.251 6.993-10.37 7.42-24.957-1.183-33.664-8.602-8.708-12.446-8.904-15.315-11.404-2.87-2.5-2.093-8.419-2.093-15.351 0 0 4.463.238 4.463-3.159 0-3.396-4.046-3.524-7.029-3.524-2.982 0-8.7-.128-8.7-.128z" fill="#b4e7fc"/><path d="M63.154 87.774c-6.713 8.45-21.43 6.065-28.382 6.065-6.954 0-17.144-1.74-21.268-14.757-2.14-6.759-1.503-13.093.709-18.33l.001-.002c2.049-4.85 5.446-8.761 9.238-11.2 7.882-5.069 10.712-6.209 10.689-8.999-.024-2.79 0-13.133 0-13.133 4.302 1.221 13.398-.066 13.398-.066s-.961 6.285-.395 12.593c.565 6.307 9.596 6.404 16.31 16.496a29.475 29.475 0 0 1 2.728 5.126h.002c3.716 9.025 2.587 19.135-3.03 26.207z" fill="#e1f7ff"/><g transform="translate(-20.436 -1.577) scale(.19556)"><ellipse class="cls-5" cx="335.466" cy="340.448" rx="5.813" ry="2.885" fill="#f7b4bb"/><ellipse class="cls-5" cx="332.45" cy="308.543" rx="8.829" ry="5.594" fill="#f7b4bb"/><circle class="cls-14" cx="361.209" cy="270.803" r="18.225" fill="#f43d4f"/><circle class="cls-14" cx="406.226" cy="291.454" r="8.741" fill="#f43d4f"/><circle class="cls-14" cx="304.684" cy="202.818" r="13.833" fill="#f43d4f"/><circle class="cls-5" cx="365.754" cy="273.185" r="10.926" fill="#f7b4bb"/><circle class="cls-5" cx="307.284" cy="206.227" r="6.862" fill="#f7b4bb"/><circle class="cls-5" cx="407.952" cy="293.901" r="4.567" fill="#f7b4bb"/></g><path class="cls-5" d="M17.548 60.079s5.216-4.383 20.175-4.658 25.342 3.85 26.499 6.316c1.156 2.466-2.13 4.164-3.984 4.811-1.855.647-11.841 2.87-11.841 2.87l-12.736.365s-11.118-1.213-13.302-1.9c-2.183-.688-4.81-7.804-4.81-7.804z" fill="#f7b4bb"/><path class="cls-14" d="M47.515 65.534c1.98.364 4.923-.012 8.052-.531-.002 0-1.562 1.707-1.564 1.707-4.849.98-11.446.305-18.082.025l-.166-1.757c1.942.12 4.21.236 5.784.313 1.16.056 1.94.091 1.94.091s.464-1.78 2.123-1.726c1.41.044 1.805 1.373 1.89 1.768.017.07.023.11.023.11zm16.529-.198-.168-.256c.765-.47 1.493-1.265.346-2.278-.777-.686-1.908-1.314-2.979-1.821l-.007-.004a18.829 18.829 0 0 0-2.887-1.179 21.238 21.238 0 0 0-.282-.095c-4.445-1.486-10.847-2.427-10.847-2.427.727 3.762-3.359 3.906-4.64 2.513-1.282-1.393-.145-3.3-.145-3.3-.789-.109-2.58-.11-3.945-.094-.64.01-1.19.02-1.495.027l-.262.008a3.21 3.21 0 0 1-.93 1.166 3.634 3.634 0 0 1-1.071.597l-.24-2.219 1.827-1.766a112.246 112.246 0 0 1 1.67-.065c.23-.009.463-.014.697-.022l.643-.016.465-.01h.003c.244-.006.485-.012.73-.016.072-.002.145-.002.217-.003h.022c16.508.168 24.86 6.704 25.019 6.832 0 0 .026.027.064.073a1.808 1.808 0 0 1 .335.586c.1.342-2.14 3.769-2.14 3.769z" fill="#f43d4f"/><g transform="translate(-20.436 -1.577) scale(.19556)"><path class="cls-15" d="M318.517 341.877c-.43.515-.89 1.02-1.367 1.507a29.428 29.428 0 0 1-2.565 2.369l-.3.243c-.074.056-.15.122-.224.178-.412.328-.843.646-1.273.955-.43.318-.87.618-1.32.908a34.928 34.928 0 0 1-2.79 1.666q-9.239 0-18.487-.402a399.67 399.67 0 0 1-17.701-1.152c-16.11-1.404-31.378-3.838-44.427-7.47-30.216-8.396-44.641-16.512-50.904-21.95a78.979 78.979 0 0 1 2.762-1.723 139.182 139.182 0 0 1 7.31-4.128c.553-.29 1.133-.6 1.723-.899q3.356-1.741 7.48-3.67c.56-.261 1.132-.524 1.722-.795 1.273-.58 2.602-1.16 3.978-1.76 1.104-.468 2.247-.945 3.417-1.432a232.485 232.485 0 0 1 9.885-3.782c.74-.271 1.497-.533 2.256-.805a265.084 265.084 0 0 1 35.908-9.632q4.605-.899 9.463-1.685c.31-.047.628-.094.937-.15q2.47-.393 4.998-.74 2.528-.35 5.13-.664c4.296-.524 8.724-.973 13.283-1.32.047 0 .093-.009.14-.009a312.49 312.49 0 0 1 22.466-.89.65.65 0 0 0-.122.048l-.112.056h-.009a18.595 18.595 0 0 0-2.948 1.629c-.15.093-.29.206-.431.309a5.077 5.077 0 0 0-.356.271l-.14.112a9.206 9.206 0 0 0-.337.29 9.421 9.421 0 0 0-1.741 1.976c-.066.112-.14.224-.206.337a4.87 4.87 0 0 0-.262.486 4.039 4.039 0 0 0-.131.29 7.052 7.052 0 0 0-.44 1.32c-.038.15-.066.31-.094.46a.93.93 0 0 0-.019.149 6.32 6.32 0 0 0-.046.44 8.13 8.13 0 0 0 .13 2.303 10.916 10.916 0 0 0 .356 1.394c1.049 3.211 3.8 7.152 9.165 11.954 14.368 12.853 13.432 24.881 6.243 33.409z" fill="#5e5e5e"/><path class="cls-16" d="M318.517 341.877c-.43.515-.89 1.02-1.367 1.507a29.428 29.428 0 0 1-2.565 2.369l-.3.243c-.074.056-.15.122-.224.178-.412.328-.843.646-1.273.955-.43.318-.87.618-1.32.908a34.928 34.928 0 0 1-2.79 1.666q-9.239 0-18.487-.402a399.67 399.67 0 0 1-17.701-1.152c-16.11-1.404-31.378-3.838-44.427-7.47-30.216-8.396-44.641-16.512-50.904-21.95a78.979 78.979 0 0 1 2.762-1.723 139.182 139.182 0 0 1 7.31-4.128c.553-.29 1.133-.6 1.723-.899q3.356-1.741 7.48-3.67c.56-.261 1.132-.524 1.722-.795 1.273-.58 2.602-1.16 3.978-1.76 1.104-.468 2.247-.945 3.417-1.432a232.485 232.485 0 0 1 9.885-3.782c.74-.271 1.497-.533 2.256-.805a265.084 265.084 0 0 1 35.908-9.632q4.605-.899 9.463-1.685c.31-.047.628-.094.937-.15q2.47-.393 4.998-.74 2.528-.35 5.13-.664c4.296-.524 8.724-.973 13.283-1.32.047 0 .093-.009.14-.009a312.49 312.49 0 0 1 22.466-.89.65.65 0 0 0-.122.048c-.037.018-.065.037-.103.056h-.018a18.595 18.595 0 0 0-2.949 1.629c-.15.093-.29.206-.43.309a5.077 5.077 0 0 0-.356.271l-.14.112a9.206 9.206 0 0 0-.338.29 9.421 9.421 0 0 0-1.74 1.976c-.066.112-.141.224-.207.337a4.87 4.87 0 0 0-.262.486 4.039 4.039 0 0 0-.13.29 7.052 7.052 0 0 0-.44 1.32c-.038.15-.066.31-.094.46a.93.93 0 0 0-.02.149 6.32 6.32 0 0 0-.046.44 8.13 8.13 0 0 0 .131 2.303 307.23 307.23 0 0 0-6.543.112 10.72 10.72 0 0 1-.749 1.423 17.734 17.734 0 0 1-6.094 6 19.805 19.805 0 0 1-7.151 2.537c-10.662 1.722-20.266-4.849-22.054-6.684-1.807-1.844-27.624 3.97-27.624 3.97.337.261.664.524.983.804 7.62 6.618 9.473 17.982 8.153 19.527a3.527 3.527 0 0 1-1.825.852c-2.893.692-8.228.674-11.692 1.395-1.413.29-.599.645 1.245.982a95.354 95.354 0 0 0 13.845 1.227c.159-.02.29-.028.383-.047 1.105-.206 1.873-2.05 4.1-3.95a17.323 17.323 0 0 1 8.144-3.642 18.18 18.18 0 0 1 13.957 2.509 8.364 8.364 0 0 1 .993.758s.196-1.984 3.482-4.596a22.923 22.923 0 0 1 2.714-1.853c5.898-3.483 12.937 2.536 13.957 5.981.59 2.06-.028 3.305-2.152 3.988a23.091 23.091 0 0 1-6.431.683c-7.161.066-9.436-.692-9.436-.692a12.383 12.383 0 0 1 1.6 1.984c1.91 2.902 2.537 6.244 2.257 7.442-.169.702-.946 1.039-2.079 1.33a41.022 41.022 0 0 0-4.755 1.216c-.421.15.15.328 1.47.505 6.637.955 32.323 2.294 47.066 2.996z" fill="#212121"/><ellipse class="cls-15" cx="224.359" cy="312.414" rx="10.752" ry="8.392" fill="#5e5e5e"/><ellipse class="cls-15" cx="262.384" cy="326.05" rx="7.08" ry="3.759" fill="#5e5e5e"/><ellipse class="cls-15" cx="280.871" cy="321.242" rx="4.196" ry="3.496" fill="#5e5e5e"/><path class="cls-16" d="M252.266 288.769s-3.438-16.133 9.36-26.03c12.799-9.896 29.975-2.947 35.089 6.166 5.113 9.113 4.785 19.471 2.819 20.585-1.967 1.115-42.745 10.621-47.268-.72z" fill="#212121"/><circle class="cls-16" cx="331.642" cy="231.499" r="9.637" fill="#212121"/><circle class="cls-16" cx="243.153" cy="250.657" r="8.693" fill="#212121"/><circle class="cls-15" cx="245.338" cy="252.93" r="4.698" fill="#5e5e5e"/><circle class="cls-15" cx="279.429" cy="285.141" r="16.433" fill="#5e5e5e"/><circle class="cls-15" cx="333.04" cy="233.64" r="5.944" fill="#5e5e5e"/></g><path class="cls-14" d="M63.154 87.774c-5.387 6.782-15.93 6.585-23.478 6.242-1.856-.084-3.53-.177-4.904-.177-6.954 0-17.144-1.74-21.268-14.757-2.015-6.365-1.567-12.355.339-17.406.117-.31.241-.62.37-.924l.001-.002s.198.114.582.311c.193.097.432.217.718.354 3.226 1.541 12.247 5.237 24.695 5.316.288.002.575.002.866 0a64.405 64.405 0 0 0 6.512-.377 67.668 67.668 0 0 0 15.097-3.456q1.73-.607 3.498-1.331h.002l.04.097c3.669 9.001 2.526 19.064-3.07 26.11z" fill="#f43d4f"/><path class="cls-16" d="M44.58 89.082c-.893 2.735-3.395 4.136-4.903 4.934-1.857-.084-3.532-.177-4.905-.177-6.954 0-17.144-1.74-21.268-14.757-2.015-6.365-1.567-12.355.339-17.406.117-.31.241-.62.37-.924l.001-.002a1.256 1.256 0 0 1 .746.128c.193.097.392.231.678.369 3.225 1.541 12.18 5.295 24.627 5.374a2.843 2.843 0 0 0-.581.417c-7.044 6.464-3.4 11.207-1.914 12.853 2.278 2.466 8.418 4.262 6.81 9.19z" fill="#212121"/><path class="cls-1" d="M50.648 4.446c-.284 3.326-3.085 27.168-4.65 28.435-.804.653-3.046 1.087-5.194 1.111-2.028.024-3.974-.319-4.554-1.19-1.196-1.792-2.307-5.904-3.43-10.297 0 0-2.591-13.906-1.473-16.062.513-.987 4.657-2.186 8.976-2.876 5.118-.82 10.48-.926 10.325.879z" fill="#6f3621"/><path class="cls-17" d="M40.804 33.992c-2.028.024-3.974-.319-4.554-1.19-1.196-1.792-2.307-5.904-3.43-10.297 0 0-2.591-13.906-1.473-16.062.513-.987 4.657-2.186 8.976-2.876z" opacity=".12"/><path class="cls-3" d="M53.07 24.136c0 2.625-2.666 3.079-3.876 3.148a5.533 5.533 0 0 1-.586.01c-4.318.33-17.823-.182-17.823-.182-.009 0-4.14-.001-4.14-3.198 0-3.198 3.963-3.43 10.696-3.43 0 0 5.718.128 8.7.128 2.983 0 7.028.128 7.028 3.524z" fill="#b4e7fc"/><path d="M69.24 39.365c-4.564-2.542-10.06-1.92-13.673 2.172-1.99 2.253-3.758 5.22 5.15 17.024 7.177 9.513 5.447 19.478 4.505 22.99a2.888 2.888 0 0 0 .514 2.546C74.915 95.652 88.41 94.5 91.76 94.007a.932.932 0 0 0 .798-.893c.907-33.319-20.583-52.225-23.318-53.749Zm-10.178 7.178a2.314 2.314 0 0 1 2.314-2.313 2.314 2.314 0 0 1 2.312 2.313 2.313 2.313 0 0 1-2.312 2.312 2.314 2.314 0 0 1-2.314-2.312z" fill="#b08752"/><path d="M69.793 42.952c-3.828-2.131-9.465-3.03-12.496.402-1.668 1.89-2.025 6.52 5.446 16.42 6.02 7.977 5.305 18.23 4.514 21.176a2.428 2.428 0 0 0 .432 2.134c4.172 5.25 9.188 6.816 13.357 7.083 3.08.196 5.698-.317 7.168-.573a17.39 17.39 0 0 1 .562-.095.782.782 0 0 0 .67-.749c.76-27.942-17.361-44.52-19.653-45.798Zm-8.417 5.904a2.314 2.314 0 0 1-2.314-2.313 2.314 2.314 0 0 1 2.314-2.313 2.314 2.314 0 0 1 2.312 2.313 2.313 2.313 0 0 1-2.312 2.312z" fill="#ceb390"/><path class="cls-17" d="M66.454 46.677a5.294 5.294 0 0 0-.172-2.123 2.62 2.62 0 0 0-1.34-1.596 3.656 3.656 0 0 0-1.072-.252 15.97 15.97 0 0 0-2.776-.086c-.584.032-1.186.103-1.693.394a3.386 3.386 0 0 0-.977.925c-.514.677-.928 1.48-.903 2.33a3.736 3.736 0 0 0 .198 1.016c.387 1.217 1.103 2.354 2.144 3.094a3.25 3.25 0 0 0 1.058.517 4.885 4.885 0 0 0 1.31.094l2.527-.046a8.423 8.423 0 0 1 1.827.1c.618.125 1.243.423 1.557.969a1.622 1.622 0 0 1-.036 1.622 1.783 1.783 0 0 1-1.415.822c-.546.027-1.07-.187-1.583-.376a19.588 19.588 0 0 0-4.624-1.091 3.95 3.95 0 0 1-.927-.17 2.793 2.793 0 0 1-.893-.583 6.336 6.336 0 0 1-2.06-4.545 6.336 6.336 0 0 1 1.922-4.605 4.102 4.102 0 0 1 1.085-.775c.821-.385 1.764-.384 2.67-.375 1.11.01 2.26.03 3.259.514a5.265 5.265 0 0 1 1.63 1.318 4.239 4.239 0 0 1 .918 1.533 2.826 2.826 0 0 1-.318 2.29c-.216.341-1.11 1.383-1.6 1.026-.316-.23.248-1.524.284-1.941z" opacity=".12"/><path class="cls-17" d="M72.219 53.007c1.018.502 2.1.932 2.93 1.707.796.744 1.296 1.753 1.636 2.787.336 1.02.532 2.116.335 3.172-.197 1.057-.838 2.07-1.817 2.514-.634.287-1.35.32-2.045.343-.638.02-1.399-.028-1.727-.575a1.541 1.541 0 0 1-.161-.842 1.896 1.896 0 0 1 .28-1.047.868.868 0 0 1 .955-.367c.165.06.334.188.498.124a.452.452 0 0 0 .222-.317 3.66 3.66 0 0 0 .156-1.07.3.3 0 0 0-.043-.185.314.314 0 0 0-.214-.091c-.79-.118-1.63-.231-2.366.085-.614.263-1.068.79-1.5 1.3-.37.437-.755.905-.844 1.471a2.385 2.385 0 0 0 .25 1.333c.596 1.315 1.783 2.317 3.132 2.834a8.104 8.104 0 0 0 4.268.331c1.1-.19 2.207-.582 3.004-1.364 1.095-1.072 1.436-2.684 1.613-4.205.155-1.332.224-2.695-.067-4.004-.292-1.31-.978-2.573-2.083-3.333-1.023-.705-2.293-.921-3.458-1.353-.994-.368-1.881-.95-2.398-1.895-.389-.708-.757-1.256-1.549-1.564-1.064-.415-3.766.346-2.595 1.908.752 1.002 2.49 1.76 3.588 2.303zm-6.55 9.645c-.086.926.212 1.849.629 2.68.416.832.952 1.598 1.392 2.417 1.768 3.289 1.892 7.259 1.135 10.915-.17.822-.342 1.8.247 2.4a2.424 2.424 0 0 0 .95.512 1.949 1.949 0 0 0 1.033.164 1.53 1.53 0 0 0 .622-.326 3.473 3.473 0 0 0 1.128-1.616 5.89 5.89 0 0 0 .236-1.718 19.904 19.904 0 0 0-1.016-6.75 39.724 39.724 0 0 0-1.547-3.76 21.3 21.3 0 0 0-.738-1.523c-.269-.487-.576-.953-.882-1.418-.479-.726-.911-1.704-1.514-2.332-.514-.536-1.594-.539-1.676.355zm22.545 26.942c-1.47.256-4.087.77-7.168.573a30.88 30.88 0 0 1-2.18-1.78c-1.311-1.167-2.556-2.45-3.41-3.986-.552-.996-.997-2.182-1.028-3.336-.018-.72.26-1.618.954-1.973.847-.436 1.27.384 1.587 1.043.848 1.774 2.14 3.129 3.634 4.385a41.41 41.41 0 0 0 7.458 4.994l.153.08zM74.23 71.122c.373-.826.965-1.592 1.787-1.973a10.639 10.639 0 0 1 1.322-.42 5.932 5.932 0 0 0 3.577-3.154c.376-.824.558-1.728.946-2.547a.508.508 0 0 1 .274-.302.469.469 0 0 1 .32.054c.784.363 1.259 1.193 1.466 2.031a5.19 5.19 0 0 1-1.803 5.216c-.833.648-1.853 1.026-2.672 1.691a4.84 4.84 0 0 0-1.765 3.675 7.473 7.473 0 0 1-.02 1.152 1.24 1.24 0 0 1-.597.936c-.4.2-.907.05-1.24-.249-.376-.336-.583-.826-.923-1.19a3.795 3.795 0 0 1-.908-1.437 4.894 4.894 0 0 1 .236-3.483zm8.26.815c-.492.275-1.04.455-1.5.781-.957.678-1.395 1.893-1.498 3.062a5.018 5.018 0 0 0 .039 1.31c.11.627.377 1.214.578 1.818.361 1.084.532 2.267 1.211 3.185.571.772 1.434 1.261 2.211 1.825 1.436 1.04 2.708 2.424 4.417 2.892a3.297 3.297 0 0 0-.411-1.2l-1.184-2.387a6.156 6.156 0 0 1-.575-1.464c-.192-.933.055-1.891.232-2.827a19.23 19.23 0 0 0-.772-9.964c-.09-.254-.783.261-.856.368-.198.29-.086.583-.193.887-.249.708-1.071 1.365-1.699 1.714z" opacity=".12"/><path class="cls-12" d="M61.375 43.696a2.846 2.846 0 0 0-2.847 2.847 2.846 2.846 0 0 0 2.847 2.846 2.846 2.846 0 0 0 2.846-2.846 2.846 2.846 0 0 0-2.846-2.847zm0 4.926a2.078 2.078 0 0 1-2.08-2.08 2.078 2.078 0 0 1 2.08-2.079 2.078 2.078 0 0 1 2.08 2.08 2.078 2.078 0 0 1-2.08 2.08z" fill="#974c34"/><path class="cls-12" d="M63.101 47.033c-.243 1.74-9.138 7.116-24.717 3.504C25.372 47.52 24.66 40.716 28.23 36.57a9.87 9.87 0 0 1 2.554-2.097s.185 3.534-.07 4.57c0 0 7.61 11.286 30.212 6.59a2.94 2.94 0 0 1 .93-.053c.473.055 1.052.245 1.217.838a1.516 1.516 0 0 1 .027.615z" fill="#974c34"/><path class="cls-17" d="M63.101 47.033c-.243 1.74-9.138 7.116-24.717 3.504C25.372 47.52 24.66 40.716 28.23 36.57c.074 3.619 1.785 9.909 12.454 11.316 10.755 1.42 18.678-.325 22.389-1.468a1.516 1.516 0 0 1 .027.615z" opacity=".12"/><path d="M22.348 55.846c-2.116 1.748-8.823 7.798-6.72 18.628 2.104 10.83 8.97 10.761 9.832 7.876.86-2.886-5.186-4.088-5.595-12.642-.41-8.553 3-12.057 3.271-12.985.273-.927.018-1.543-.788-.877z" opacity=".6" fill="#fff"/></svg>