<svg data-name="Layer 1" viewBox="0 0 100 100" width="100" height="100" xmlns="http://www.w3.org/2000/svg"><path d="M65.496 13.008a31.504 31.504 0 0 0-26.838 15.087 275.633 275.633 0 0 1-4.07-4.7c-3.964-4.69-5.731-5.462-5.731-5.462s-.675 13.273 1.65 19.659c-3.647 3.198-7.743 6.842-8.384 7.718-1.055 1.445-.265 7.652-3.817 10.29-1.79 1.328-5.66 3.84-9.06 6.005C5.894 63.739 3 65.533 3 65.533s1.121 1.123 2.886 2.62c2.996 2.535 7.836 6.147 12.156 7.172 1.894.448 4.153.229 6.521-.242.76-.15 1.53-.332 2.303-.52.191-.046.38-.09.572-.138.81-.203 1.609-.408 2.408-.614.614-.158 1.218-.31 1.815-.453l.527-.127a37.27 37.27 0 0 1 2.031-.414c.225-.039.443-.07.662-.101.222-.033.444-.067.659-.09a14.1 14.1 0 0 1 1.18-.088h.007c.135-.009.261-.004.393-.008 4.835.281 6.483 6.44 6.885 8.397.01.047.018.093.025.136.028.136.049.245.06.32.002.012.001.024.004.034.002.01.003.019.006.027.004.017.003.03.006.041 0 .005.001.01.004.016a.134.134 0 0 1 .004.015s3.842-4.518 4.367-7.254a8.88 8.88 0 0 0 1.7 5.868c.933 1.32 4.102 3.853 7.331 2.197 0 0-2.616-.08-3.968-1.686-.98-1.163-1.155-2.502.29-3.384 2.081-1.27 5.264.209 5.694.78 2.218 2.077 4.367 4.152 7.73 4.224 3.365.072 2.936-3.65 5.942-3.436 3.006.215 6.989.647 6.584 2.672-.405 2.024-4.252 3.744-4.961 2.328-.707-1.418.607-2.328.607-2.328s-3.24.102-2.025 3.24c1.215 3.139 3.745 2.327 5.77 1.518 2.024-.81 4.049-2.228 3.138-4.555-.91-2.329.303-3.948-1.822-4.959-1.248-.595-3.124-1.8-4.992-2.422a31.504 31.504 0 0 0 5.681-2.57c.878-.026 2.03-.246 3.641-.246 4.195 0 7.24-3.054 7.625-6.334l.002.002c.13-1.109-.048-2.377-.484-3.578a31.504 31.504 0 0 0 5.037-17.083 31.504 31.504 0 0 0-31.504-31.503Zm22.388 53.554c-.1 1.8-1.83 2.646-3.404 2.99a31.504 31.504 0 0 0 3.404-2.99zm-17.91 9.133c-1.25 1.266-1.872 2.592-2.744 2.664-.852.072-3.51-.55-4.85-2.566a31.504 31.504 0 0 0 3.116.222 31.504 31.504 0 0 0 4.478-.32z" fill="#edc351" stroke="#fff" stroke-width="6" stroke-linecap="round" stroke-linejoin="round" paint-order="stroke fill markers"/><path d="m63.273 39.505-.004-.002a.006.006 0 0 0-.003-.003l.003.001z" fill="#13131c"/><path d="M63.276 39.506a.005.005 0 0 0-.004-.001l-.003-.002a.006.006 0 0 0-.003-.004c.003 0 .003.002.003.002.003.002.004.002.005.005z" fill="#13131c"/><g transform="translate(-156.062 10.522) scale(.29974)"><circle data-name="path1132" cx="739.168" cy="113.395" r="105.103" fill="#edc351"/><path data-name="path1248" d="M793.422 28.239a15.933 15.933 0 0 0-7.55-1.833c-5.292.185-11.065 4.995-12.206 10.165-1.066 4.83 2.128 10.829 6.344 13.416 4.146 2.545 10.382 2.03 14.591-.41 3.961-2.296 8.062-7.235 7.156-11.723-.808-3.999-4.265-7.562-8.335-9.615zm19.126 20.622c-2.223-1.189-4.932-1.62-6.998-.714-2.318 1.017-3.249 4.441-3.029 6.963.234 2.68 1.983 5.663 4.452 6.73 2.51 1.083 6.238.623 8.084-1.394a7.841 7.841 0 0 0 .721-8.752 8.814 8.814 0 0 0-3.23-2.833zm-87.75-30.508c-2.51-1.084-6.238-.624-8.084 1.393a7.84 7.84 0 0 0-.718 8.751c1.97 3.024 6.92 4.997 10.225 3.548 2.318-1.017 3.25-4.443 3.03-6.965-.234-2.68-1.984-5.66-4.453-6.727zM796.13 57.41a5.044 5.044 0 0 0-4.226-.43c-1.4.613-1.963 2.683-1.83 4.206a5.068 5.068 0 0 0 2.689 4.062 4.636 4.636 0 0 0 4.884-.841 4.734 4.734 0 0 0 .432-5.285 5.316 5.316 0 0 0-1.949-1.712zm25.251 106.502a5.044 5.044 0 0 0-4.226-.43c-1.4.613-1.962 2.68-1.829 4.203a5.074 5.074 0 0 0 2.69 4.067 4.632 4.632 0 0 0 4.882-.843 4.736 4.736 0 0 0 .435-5.286 5.325 5.325 0 0 0-1.952-1.71zm-13.729 5.174c-2.506-1.092-6.187-.722-7.975 1.184a7.323 7.323 0 0 0-.542 8.412c2.009 2.949 6.95 4.942 10.192 3.611 2.275-.934 3.13-4.212 2.863-6.643a8.5 8.5 0 0 0-4.538-6.564z" fill-opacity=".188"/></g><path d="M28.858 17.933s-.853 16.702 2.634 21.65c3.487 4.95 9.83-8.495 9.83-8.495s-2.771-3.006-6.735-7.695c-3.964-4.69-5.73-5.46-5.73-5.46zM44.09 81.385l-.06-.32c.029.135.048.244.06.32z" fill="#13131c"/><path data-name="path1210" d="M76.61 71.877a.69.69 0 0 0 .236-.138c-.02.014-.11.07-.236.138z" fill="#13131c"/><path d="M63.265 47.16c-.003 1.022 4.707 4.915 3.357 6.344-1.352 1.43-3.98 1.066-4.527 2.051-.547.985.656 3.754.256 5.089-.402 1.335-2.373 2.066-3.358 2.211-.987.146-2.666-.072-1.936 3.213.73 3.284 1.906 7.3-.178 7.3s-7.588-5.545-8.816-5.217c-1.226.325-1.335 6.824-2.138 7.37-.804.548-3.725-3.338-9.2-2.982h-.006c-3.393.08-7.941 1.71-12.155 2.545-2.369.47-4.63.69-6.524.241-4.318-1.026-9.158-4.638-12.152-7.174C4.122 66.655 3 65.533 3 65.533s2.893-1.795 6.245-3.929c3.4-2.165 7.27-4.677 9.06-6.006 3.552-2.638 2.764-8.844 3.818-10.288 1.058-1.446 13.314-12.027 13.314-12.027 4.527-3.352 8.918-1.902 8.918-1.902 1.14-6.034 6.079-13.019 6.079-13.019a62.388 62.388 0 0 1 6.993 8.287c3.092 4.47 5.672 12.34 5.829 12.827l.008.023a.075.075 0 0 1 .01.007c.207.148 3.522 2.54 5.016 3.565 1.542 1.06-5.024 3.067-5.026 4.088z" fill="#1e1d2c"/><path d="M25.796 55.038s2.27-3.912 3.698-4.546c1.428-.634 6.72-1.29 6.72-1.29s-2.62 3.614-4.442 4.04c-1.821.426-5.976 1.796-5.976 1.796z" fill="#bc5fd3"/><path d="M9.398 65.992c-.219.436-1.542 1.09-1.684 1.204-.14.117-.184-.626-.184-.626l-1.13-.146-.234.957-.278.769C4.123 66.655 3 65.533 3 65.533s2.894-1.795 6.245-3.929c0 0 .372 3.953.152 4.388zm53.874-26.487-.003-.002a.006.006 0 0 0-.003-.003c.003 0 .003.002.003.002z" fill="#13131c"/><path d="M92.446 65.17c-.385 3.28-3.43 6.333-7.625 6.333-4.194 0-5.312 1.539-6.43-2.935-1.119-4.472 4.334-4.472 5.732-2.795-5.312-.14-2.797 3.635-2.097 3.914.699.28 6.103-.05 5.87-3.494-.207-3.043-1.135-4.396-5.305-4.947-7.528-.995-6.16 5.411-11.61 3.454-2.903-1.042-3.579.2-3.702 1.53-.212 2.28 4.03 1.044 5.754 3.753 1.056 1.66 3.221 2.026 3.577 1.894-.594.319-2.312.996-4.553-.372-2.785-1.703-2.506 1.066-4.535 1.528-1.098.25-3.777-.322-5.84-1.24a24.881 24.881 0 0 1-.057.614c-.506 4.758 4.39 6.054 5.606 5.952 1.214-.101 1.923-2.631 4.554-4.048 2.632-1.418 6.58 1.417 8.705 2.43 2.126 1.011.913 2.63 1.823 4.96.91 2.326-1.114 3.744-3.138 4.554-2.025.81-4.555 1.62-5.77-1.518-1.215-3.14 2.025-3.24 2.025-3.24s-1.316.91-.609 2.329c.71 1.416 4.557-.304 4.962-2.33.405-2.024-3.578-2.456-6.585-2.671-3.006-.213-2.576 3.508-5.941 3.436-3.363-.071-5.512-2.147-7.73-4.223-.43-.572-3.612-2.051-5.693-.782-1.447.883-1.271 2.221-.291 3.385 1.352 1.606 3.968 1.686 3.968 1.686-3.23 1.656-6.398-.876-7.332-2.197a8.88 8.88 0 0 1-1.699-5.867c-.525 2.735-4.368 7.254-4.368 7.254a.134.134 0 0 0-.003-.016c-.003-.006-.003-.01-.003-.015-.003-.012-.003-.025-.007-.042-.003-.008-.003-.018-.005-.028-.003-.01-.003-.02-.005-.031a6.537 6.537 0 0 0-.059-.32c-.006-.044-.016-.09-.026-.138-.404-1.965-2.061-8.174-6.947-8.404h-.006c-.108.003-.217.008-.326.015h-.006q-.459.01-.943.058l-.014.001a18.848 18.848 0 0 0-1.344.18.036.036 0 0 1-.013.002c-3.004.5-6.527 1.648-9.842 2.304 0 0 7.946-4.941 13.772-4.794.201.005.395.013.583.026h.003c5.304.339 6.178 3.355 6.178 3.355s1.124-3.712.588-6.48a4.833 4.833 0 0 0-.469-1.382s5.465-.47 9.816 2.297c.085.053.17.11.254.166l-.036-.144c-.252-.953-1.802-6.381-4.97-8.381a5.028 5.028 0 0 0-.777-.405s.49-.093 1.283-.19a28.164 28.164 0 0 1 4.8-.207 12.176 12.176 0 0 1 4.247.872s.505-2.693-2.512-5.041a7.782 7.782 0 0 0-.38-.28 11.364 11.364 0 0 0-1.653-.955 23.456 23.456 0 0 0-.344-.159s.096-.028.273-.072c1.115-.273 5.452-1.19 9.43.04 0 0-2.193-3.532-5.32-5.631q-.461-.31-.947-.574a8.657 8.657 0 0 0-1.597-.668s.638-.106 1.589-.297c.173-.035.357-.071.55-.113 2.213-.462 5.538-1.284 6.933-2.267a10.732 10.732 0 0 1-1.66-2.253 12.53 12.53 0 0 1-.928-2.043c.003 0 .003 0 .003.002a.005.005 0 0 1 .004.002.236.236 0 0 1 .028.02.171.171 0 0 1 .021.015 9.552 9.552 0 0 0 4.136 1.547 27.019 27.019 0 0 1 3.6.545c.004.002.009.002.014.003q.198.04.397.09c6.733 1.727 14.72 2.044 14.345-3.635-.183-2.773-3.447-4.287-5.062-4.555-1.894-.314-6.284 3.955-2.74 5.07 3.543 1.113 3.45-.615 4.259-1.627-.405 2.125.85 4.575-6.135 3.36-6.984-1.215-1.959-6.255-.642-8.28 1.316-2.025 6.231-1.615 9.306-1.233 4.093.51 4.905 5.823 3.444 9.392-.653 1.595-2.935 6.175-8.302 5.263-5.364-.91-10.73.304-11.74 1.215a3.213 3.213 0 0 1-.968.526c1.413.665 2.324 1.619 2.404 2.888.242 3.867 8.113 4.28 7.47 1.137-.676-3.299-4.478-.188-4.478-.188s.07-2.157 1.6-2.72c1.53-.564 5.006-.718 5.157 2.416.235 4.86-5.122 5.219-6.981 5.77-1.93.573-3.317-.17-5.296-.639 1.566 5.801 4.934 1.762 9.864 2.14 6.393.491 7.54-.948 9.373-.988 4.093-.09 6.493 4.767 6.096 8.131zm-41.36-41.8s4.658 6.158 5.229 10.582c.572 4.423-.217 6.786-.217 6.786s-2.353-3.958-6.509-6.327c-4.155-2.37 1.498-11.041 1.498-11.041z" fill="#13131c"/><path d="M63.276 39.507a.005.005 0 0 0-.003-.002l-.004-.002a.006.006 0 0 0-.003-.003c.003 0 .003.002.003.002.003.001.004.001.005.004z" fill="#13131c"/></svg>