<svg width="100" height="100" viewBox="0 0 26.458 26.458" xmlns="http://www.w3.org/2000/svg"><path d="M18.997 25.663c-.57-2.884-.788-5.882-.667-7.499l4.888-6.943-.38-.314.23-.313c.355-.133.835-.395 1.076-.706.32-.37.47-.573 1.01-1.43.238-.308-.042-.762-.374-.668.125-.33-.192-.723-.523-.569.199-.324-.1-.767-.44-.662l1.004-1.342c.242-.303-.033-.728-.348-.71h0c-.103.006-.211.062-.307.187-.961 1.231-2.734 2.676-2.71 3.648-.162.214-.143.51-.18.922a.848.848 0 0 0 0 .098l-.114.16-.515-.424-4.013 4.323a1.801 1.801 0 0 0-1.507-.404 30.95 30.95 0 0 1-1.022-.445c1.878-1.12 3.04-3.208 3.042-5.473 0-.058-.003-.116-.006-.174a2.074 2.074 0 1 0-.354-3.929 1.027 1.027 0 0 0-1.757-.698 5.854 5.854 0 0 0-3.9-1.505 5.863 5.863 0 0 0-4.028 1.632 1.022 1.022 0 0 0-1.776.629 2.075 2.075 0 1 0-.208 3.972c0 .025-.002.05-.004.073.004 2.214 1.113 4.263 2.924 5.4-.235.28-.498.53-.533.564a12.04 12.04 0 0 0-.507-.11c-.676-.117-1.484.317-2.276.991a2.248 2.248 0 0 0-.7-.501l-.867.242-.15-.166.139 2.085a16.327 16.327 0 0 0-1.012 1.404c-.362.454-.996 1.308-.904 2.093.085.718 1.379 3.4 2.082 4.815a20.01 20.01 0 0 1-.204 1.747z" fill="#f8c47b" stroke="#fff" stroke-width="1.588" stroke-linecap="round" stroke-linejoin="round"/><g transform="translate(-132.88 -130.884) scale(.39666)"><path d="M353.832 362.918s1.979-1.862 2.211-2.735c.233-.873 13.442-.291 13.442-.291s-1.668.444.252 1.375 4.462 1.942 4.462 1.942l-13.093 8.263-7.507-8.438z" fill="#f8c47b"/><ellipse ry="15.897" rx="15.166" cy="347.835" cx="363.021" fill="#f9cb8a"/><path d="M396.657 341.301c-.263.015-.537.154-.776.47-2.424 3.104-6.891 6.747-6.832 9.198-.408.54-.36 1.289-.455 2.325a2.028 2.028 0 0 0-.004.248l-2.371 3.335 3.219 2.793 1.778-.443 1.898-2.581c.891-.336 2.102-.997 2.712-1.78.809-.93 1.185-1.44 2.542-3.605.604-.775-.104-1.92-.937-1.685.31-.832-.485-1.824-1.324-1.43.502-.82-.251-1.937-1.106-1.671l2.531-3.383c.61-.763-.086-1.835-.876-1.79z" fill="#f9cb8a" fill-rule="evenodd"/><path d="M367.498 364.442h-7.714v4.206h7.714v-4.206m4.604-26.897a2.589 2.589 0 1 1 5.178 0 2.589 2.589 0 0 1-5.178 0" fill="#fff"/><path d="M374.11 342.3a5.23 5.23 0 1 1 10.46 0 5.23 5.23 0 0 1-10.46 0" fill="#fff"/><path d="M379.043 345.413a2.617 2.617 0 0 1-2.643-2.732 2.11 2.11 0 0 1 2.199-2.01c.454.02.873.216 1.18.551.306.336.464.77.443 1.225a1.378 1.378 0 0 1-1.437 1.313 1.119 1.119 0 0 1-1.066-1.167.914.914 0 0 1 .95-.868c.41.018.727.367.71.776a.612.612 0 0 1-.638.583.501.501 0 0 1-.481-.526l.158.006a.345.345 0 0 0 .33.36.419.419 0 0 0 .325-.117.45.45 0 0 0 .147-.314.585.585 0 0 0-.558-.61.74.74 0 0 0-.541.196.746.746 0 0 0-.244.52.96.96 0 0 0 .915 1.001 1.216 1.216 0 0 0 1.272-1.162 1.544 1.544 0 0 0-1.472-1.61c-.03-.003-.059-.003-.088-.003a1.95 1.95 0 0 0-1.946 1.861 2.458 2.458 0 0 0 2.343 2.563 3.092 3.092 0 0 0 3.224-2.946l.158.006a3.225 3.225 0 0 1-1.053 2.252 3.225 3.225 0 0 1-2.187.85" fill="#96978e"/><path d="M348.379 337.812a2.589 2.589 0 1 1 5.178 0 2.589 2.589 0 0 1-5.178 0" fill="#fff"/><path d="M341.405 342.567a5.23 5.23 0 1 1 10.461 0 5.23 5.23 0 0 1-10.461 0" fill="#fff"/><path d="M346.452 345.68a3.227 3.227 0 0 1-2.187-.85 3.228 3.228 0 0 1-1.053-2.252l.159-.006a3.067 3.067 0 0 0 1.001 2.142c.61.556 1.407.844 2.223.805a2.458 2.458 0 0 0 2.342-2.562 1.951 1.951 0 0 0-2.034-1.86c-.85.039-1.51.761-1.471 1.611.03.67.59 1.19 1.272 1.162a.96.96 0 0 0 .914-1.001.745.745 0 0 0-.243-.52.736.736 0 0 0-.541-.196.585.585 0 0 0-.558.61.448.448 0 0 0 .472.432.344.344 0 0 0 .33-.361l.158-.006a.502.502 0 0 1-.482.526.613.613 0 0 1-.637-.583.744.744 0 0 1 .71-.776.92.92 0 0 1 .655.237.906.906 0 0 1 .295.631 1.118 1.118 0 0 1-1.066 1.166l-.063.002a1.379 1.379 0 0 1-1.375-1.315 1.69 1.69 0 0 1 .444-1.224 1.689 1.689 0 0 1 1.18-.552 2.11 2.11 0 0 1 2.199 2.01 2.617 2.617 0 0 1-2.494 2.729c-.05.002-.1.004-.15.004" fill="#96978e"/><path d="M377.949 365.035c-1.422-2.367-3.8-2.595-5.15-2.21-1.35.385-1.49.453-6.736 1.17l-.199 4.124h-5.79l-.054-4.113c-4.52-.15-3.208-.59-7.418-1.413-5.457-.947-14.39 12.389-14.168 14.251-.11 1.24 3.38 5.16 5.15 9.581-.123 1.27-.304 5.453-.791 8.212-.02-.02 26.37-.02 40.058 0-1.44-7.288-1.99-14.87-1.68-18.938 0 0-1.8-8.297-3.222-10.664zm-33.445 14.919c.063.19.123.396.18.634 0 0-.079-.287-.18-.634z" fill="#161717"/><path d="m370.362 372.53-1.565-2.646c-7.27-1.475-11.508.175-17.86.445-2.013-2.595-3.757-5.643-5.836-6.5l-2.386.667 6.987 8.434z" fill="#f4e159"/><path d="m350.188 392.13 19.375 1.127 1.073-21.15H349.74l-7.2-8.087.967 14.619 6.68 13.49" fill="#8a4924"/><path d="M351.584 372.108v20.021h-1.396l-.448-20.021h1.844" fill="#703c1f"/><path d="m347.08 382.12-2.646 10.368s-6.084-11.906-6.376-14.395c-.292-2.49 2.342-5.29 2.812-5.96z" fill="#161717"/><path d="M343.264 386.543c0-3.014 1.118-5.457 2.496-5.457 1.38 0 2.497 2.443 2.497 5.457S347.14 392 345.76 392c-1.378 0-2.496-2.443-2.496-5.457" fill="#28292a"/><path d="M346.38 382.279s5.463-3.083 4.845 0c0 0 3.609 0 3.344 2.641-.264 2.642-1.316 7.513-5.228 5.817-3.912-1.696-5.452-5.567-2.96-8.458" fill="#f9cb8a"/><g fill-rule="evenodd"><path d="m370.306 348.574-4.77.77.15.94 4.77-.77-.15-.94m-14.9-.063 4.77.77-.15.94-4.77-.77.15-.94" fill="#78402a"/><path d="M367.8 352.767a1.26 1.26 0 0 0 1.265-1.252 1.27 1.27 0 0 0-1.265-1.266c-.695 0-1.264.569-1.264 1.266 0 .696.57 1.252 1.264 1.252m-9.599 0a1.26 1.26 0 0 0 1.267-1.252 1.27 1.27 0 0 0-1.267-1.266c-.693 0-1.25.569-1.25 1.266 0 .696.557 1.252 1.25 1.252" fill="#464648"/></g><path d="m379.082 378.697 14.41-20.471-6.485-5.352-10.601 11.425z" fill="#161717"/></g></svg>