<svg width="100" height="100" viewBox="0 0 26.458 26.458" version="1.1" id="svg5" xmlns="http://www.w3.org/2000/svg"><defs id="defs2"><pattern id="EMFhbasepattern" patternUnits="userSpaceOnUse" width="6" height="6" x="0" y="0"/><pattern id="EMFhbasepattern-5" patternUnits="userSpaceOnUse" width="6" height="6" x="0" y="0"/><pattern id="EMFhbasepattern-4" patternUnits="userSpaceOnUse" width="6" height="6" x="0" y="0"/><pattern id="EMFhbasepattern-6" patternUnits="userSpaceOnUse" width="6" height="6" x="0" y="0"/><pattern id="EMFhbasepattern-2" patternUnits="userSpaceOnUse" width="6" height="6" x="0" y="0"/><pattern id="EMFhbasepattern-66" patternUnits="userSpaceOnUse" width="6" height="6" x="0" y="0"/><pattern id="EMFhbasepattern-3" patternUnits="userSpaceOnUse" width="6" height="6" x="0" y="0"/></defs><g id="layer1" transform="translate(14.006 -60.026)"><g id="g7801" transform="translate(-3.737 .76)"><path id="path14973-3-0-6-2-7" d="M7.888 60.957A10.937 10.937 0 0 0 6.75 62.83c-3.741-.314-8.131-3.205-9.21-.907-.52 1.104-.196 2.704.122 3.753-.055-.004-.07.05-.07.072-.002.16.024.912.175 1.098-.353.337-1.489 1.4-2.232 1.828-.327.188.143.576 1.168.852l-.411.218h0a.469.469 0 0 0-.637-.192l-.35.187a1.067 1.067 0 0 0-.118-.627 1.067 1.067 0 0 0-1.444-.437 1.067 1.067 0 0 0-.437 1.445 1.067 1.067 0 0 0 .455.446l-.349.187a.469.469 0 0 0-.197.626l-2.472 1.313c-.16.09-.304.294-.177.533l5.785 10.62c.13.227.345.218.492.13l8.052-4.354c.205-.119.221-.25.106-.442l-.758-1.395c.117.027.226.064.326.115.105.053.2.12.284.202.387.38.638.758.8 1.098.098.204.164.394.207.562a2.567 2.567 0 0 1 .084.693l-.004.054.051-.09c.23-.4 1.152-2.08 1.156-3.26a3.545 3.545 0 0 1 .425.286c.373.29.91.807 1.262 1.58.176.386.306.836.345 1.354.04.518-.01 1.103-.194 1.76 0 0 3.459-3.297 2.328-6.475l.092.047a7.45 7.45 0 0 1 1.003.643c.14.108.283.226.42.353.408.382.76.845.846 1.353 0 0 .086-.326.122-.83l.01-.155a5.793 5.793 0 0 0-.088-1.313 4.801 4.801 0 0 0-.163-.632l-.004-.01c-.07-.21-.158-.42-.267-.628l-.008-.014a4.164 4.164 0 0 0-.11-.195l-.01-.016a4.044 4.044 0 0 0-.528-.69v0a4.198 4.198 0 0 0-.404-.372 4.569 4.569 0 0 0-.354-.26l.1-.012c.066-.007.16-.017.278-.024a7.39 7.39 0 0 1 .927-.003c.17.01.349.028.53.056.596.09 1.223.287 1.692.687v0c0-.002-.095-.456-.378-1.054a5.323 5.323 0 0 0-1.033-1.49 4.382 4.382 0 0 0-1.022-.768l-.051-.028a4.365 4.365 0 0 0-.645-.276s1.273-.32 2.244-1.138c.35-.028.691-.217.804-.74.165-.768-.66-1.07-.856-1.13l.001-.004-1.053-.391v.002l-.39-.145c-.06-1.16-1.182-2.549-3.154-3.223a19.313 19.313 0 0 0-.4-.531c-.864-1.124-1.575-1.775-1.575-1.775zm-13.625 8.086a.574.574 0 0 1 .488.302.574.574 0 0 1-.235.776.574.574 0 0 1-.777-.234.574.574 0 0 1 .235-.776.574.574 0 0 1 .29-.068z" fill="#205aa3" fill-opacity="1" stroke="#fff" stroke-width="1.5875" stroke-linecap="round" stroke-linejoin="round" stroke-dasharray="none" stroke-opacity="1" paint-order="fill markers stroke"/><g id="g38544-6-3" transform="matrix(.88919 0 0 .88919 29.251 -30.954)"><g id="g36421-9-8-7" transform="matrix(.8789 -.34633 .34633 .8789 -39.05 44.77)"><path d="m-32.474 69.57 1.772 14.282c.046.31.287.394.489.36l10.814-1.308c.279-.043.354-.179.31-.442l-1.743-14.17c-.017-.16-.102-.494-.547-.444l-10.666 1.21c-.217.03-.465.193-.429.513z" id="path14973-3-0-8-8" fill="#3b4579" fill-opacity="1" stroke="none" stroke-width=".264583px" stroke-linecap="butt" stroke-linejoin="miter" stroke-opacity="1"/><path id="path18055-6-0-1-8" d="M-26.972 65.92a1.27 1.27 0 0 0-1.113 1.408 1.27 1.27 0 0 0 .31.693l-.468.055a.558.558 0 0 0-.49.62l.11.948a.558.558 0 0 0 .62.49l3.008-.35a.558.558 0 0 0 .49-.621l-.11-.948a.558.558 0 0 0-.621-.49l-.468.054a1.27 1.27 0 0 0 .142-.746 1.27 1.27 0 0 0-1.41-1.114zm.069.583a.683.683 0 0 1 .757.598.683.683 0 0 1-.599.758.683.683 0 0 1-.757-.6.683.683 0 0 1 .599-.756z" fill="#a1bce1" fill-opacity="1" stroke="none" stroke-width=".766853" stroke-linecap="round" stroke-linejoin="round" paint-order="fill markers stroke" stop-color="#000"/><path d="m-31.5 69.999 1.58 12.477 9.766-1.142-1.561-12.422z" id="path14973-0-1-4-3-2" fill="#f5f5f5" fill-opacity="1" stroke="none" stroke-width=".220167px" stroke-linecap="butt" stroke-linejoin="miter" stroke-opacity="1"/><path d="m-30.698 70.71.333 2.627 8.301-.906-.329-2.613z" id="path14973-0-4-0-6-8-3" fill="#d4d4d4" fill-opacity="1" stroke="none" stroke-width=".0553927px" stroke-linecap="butt" stroke-linejoin="miter" stroke-opacity="1"/><path d="m-29.536 79.312.068.541 8.3-.906-.063-.527z" id="path14973-0-4-4-6-5-6-7-6-2-2" fill="#d4d4d4" fill-opacity="1" stroke="none" stroke-width=".0553927px" stroke-linecap="butt" stroke-linejoin="miter" stroke-opacity="1"/><path d="m-29.452 80.079.207 1.447 8.236-1.045-.137-1.294z" id="path14973-0-4-4-6-5-6-9-2-7-5-8" fill="#d4d4d4" fill-opacity="1" stroke="none" stroke-width=".0553927px" stroke-linecap="butt" stroke-linejoin="miter" stroke-opacity="1"/><g id="g23480-6-5-1-9" transform="translate(-46.162 5.463) scale(.95301)"><path d="m16.658 71.586.54 4.1 8.71-.951-.535-4.085z" id="path14973-0-4-2-7-3-6-9" fill="#d4d4d4" fill-opacity="1" stroke="none" stroke-width=".0581239px" stroke-linecap="butt" stroke-linejoin="miter" stroke-opacity="1"/><path d="m16.88 71.747.483 3.711 8.325-.89-.462-3.719z" id="path14973-0-4-2-2-1-8-9-4" fill="#f5f5f5" fill-opacity="1" stroke="none" stroke-width=".0496558px" stroke-linecap="butt" stroke-linejoin="miter" stroke-opacity="1"/><path d="M16.853 72.086v.204l8.464-.935-.021-.174z" id="path14973-0-4-4-3-9-5-1-0" fill="#d4d4d4" fill-opacity="1" stroke="none" stroke-width=".0581239px" stroke-linecap="butt" stroke-linejoin="miter" stroke-opacity="1"/><path d="M17.066 73.772v.204l8.465-.935-.022-.174z" id="path14973-0-4-4-3-4-7-3-0-2" fill="#d4d4d4" fill-opacity="1" stroke="none" stroke-width=".0581239px" stroke-linecap="butt" stroke-linejoin="miter" stroke-opacity="1"/><path d="m20.022 71.3-.202.016.479 3.887.174-.022z" id="path14973-0-4-4-3-7-3-5-9-1" fill="#d4d4d4" fill-opacity="1" stroke="none" stroke-width=".0351969px" stroke-linecap="butt" stroke-linejoin="miter" stroke-opacity="1"/></g></g><g id="g6346-8-2-9-3" transform="translate(-40.573 102.34) scale(.26543)"><path id="path9739-3-9-3-1-8" d="M86.856 76.314c-.962-5.735-10.001-10.15-10.001-10.15 4.79 13.459-9.859 27.42-9.859 27.42 4.149-14.82-7.787-21.09-7.787-21.09-.016 5.712-5.113 14.19-5.113 14.19s.64-5.034-4.602-10.194c-3.797-3.735-12.908.157-21.066 1.772-3.105.618-6.071.905-8.553.316-5.664-1.345-12.01-6.08-15.937-9.409C1.624 67.21.152 65.738.152 65.738s3.795-2.354 8.19-5.153c4.458-2.839 9.534-6.133 11.881-7.875 4.657-3.46 3.624-11.598 5.007-13.493 1.385-1.897 17.458-15.771 17.458-15.771 5.937-4.396 11.697-2.495 11.697-2.495 1.494-7.912 7.97-17.072 7.97-17.072a81.798 81.798 0 0 1 9.17 10.867c4.056 5.862 7.439 16.18 7.646 16.82a.32.32 0 0 0 .01.032c4.673 3.064 13.833 3.086 13.833 3.086-3.874 5.559-12.117 7.633-12.117 7.633 10.838 3.637 13.255 15.315 13.255 15.315-5.178-4.422-14.942-2.98-14.942-2.98 11.37 7.51 7.646 21.662 7.646 21.662z" fill="#958986" fill-opacity="1" stroke-width=".393074"/><path id="path9741-7-9-9-1" d="M30.297 55.445s3.63-6.257 5.914-7.27c2.283-1.014 10.746-2.061 10.746-2.061s-4.19 5.778-7.103 6.46c-2.912.68-9.557 2.871-9.557 2.871z" fill="#1a1a1a" fill-opacity="1" stroke-width=".479341"/><path id="path9743-5-1-7-7-6" d="M8.541 66.34c-.287.572-2.023 1.428-2.209 1.579-.185.153-.24-.822-.24-.822l-1.483-.19-.306 1.254-.365 1.008C1.624 67.21.152 65.738.152 65.738s3.795-2.354 8.19-5.153c0 0 .488 5.185.2 5.754z" fill="#302525" fill-opacity="1" stroke-width=".393074"/><path id="path9745-8-2-2-0-2" d="M86.856 76.314c-.962-5.735-10.001-10.15-10.001-10.15 4.79 13.459-9.859 27.42-9.859 27.42 4.149-14.82-7.787-21.09-7.787-21.09-.016 5.712-5.113 14.19-5.113 14.19s.64-5.034-4.602-10.194c-3.797-3.735-12.908.157-21.066 1.772 0 0 10.421-6.481 18.06-6.288 7.64.192 8.87 4.435 8.87 4.435s2.055-6.79.155-10.31c0 0 7.451-.641 13.207 3.23 0 0-2.3-9.532-7.585-11.71 0 0 8.575-1.607 13.547.622 0 0 .966-5.155-6.41-8.438 0 0 6.675-1.915 12.723-.04 0 0-4.525-7.29-10.312-9.016 0 0 9.039-1.497 11.896-3.51a15.607 15.607 0 0 1-3.398-5.639c4.673 3.064 13.833 3.086 13.833 3.086-3.874 5.559-12.117 7.633-12.117 7.633 10.838 3.637 13.255 15.315 13.255 15.315-5.178-4.422-14.942-2.98-14.942-2.98 11.37 7.51 7.646 21.662 7.646 21.662z" fill="#877a76" fill-opacity="1" stroke-width=".393074"/><g id="g3477-9-9-2-7" transform="matrix(1.07405 .02758 -.01172 .93736 49.937 -7.493)" fill="#1a1a1a" fill-opacity="1"><path d="M3.074 45.867c-23.556 12.916-43.176 4.618-39.705 2.209 3.472-2.41 9.163-9.04 9.163-9.04s5.686 5.486 30.542 6.83z" id="path647-7-4-3-1" fill="#151c32" fill-opacity="1" stroke="none" stroke-width="1.26176px" stroke-linecap="butt" stroke-linejoin="miter" stroke-opacity="1"/><path d="M-26.84 39.062s-5.418-13.617-2.226-21.712c4.361-11.06 23.471 3.433 38.67 3.085 17.44-.399 26.048 13.703 21.288 20.708-1.988 2.926-27.818 4.724-27.818 4.724s-4.642.642-10.844.003c-5.832-.602-13.043-2.337-19.07-6.808z" id="path649-7-9-8-5" fill="#151c32" fill-opacity="1" stroke="none" stroke-width="1.26176px" stroke-linecap="butt" stroke-linejoin="miter" stroke-opacity="1"/></g><g id="g74004-5-0-1-0-9-0-9-5-4-3-0" transform="rotate(65.154 303.448 30.117) scale(.92927)"><path d="m189.628 280.023-4.701 10.394 10.61-4.324c.073-2.935-2.375-6.51-5.91-6.07z" id="path73053-8-1-3-4-9-0-4-3-8-5-4" fill="#e4be99" fill-opacity="1" stroke="none" stroke-width=".305113px" stroke-linecap="butt" stroke-linejoin="miter" stroke-opacity="1"/><path d="m226.802 243.166-37.188 36.87 5.924 6.056 37.556-37.171z" id="path72759-0-5-7-1-8-9-8-9-0-94-9" fill="#d18858" fill-opacity="1" stroke="none" stroke-width=".307214px" stroke-linecap="butt" stroke-linejoin="miter" stroke-opacity="1"/><path d="m230.938 246.95-37.488 37.012 2.088 2.13 37.556-37.171z" id="path72759-6-0-6-3-7-7-9-0-2-1-5-0" fill="#ca753d" fill-opacity="1" stroke="none" stroke-width=".307214px" stroke-linecap="butt" stroke-linejoin="miter" stroke-opacity="1"/><path d="m226.802 243.166-37.188 36.87 1.443 1.49 38.189-37.82z" id="path72759-4-5-3-5-0-0-0-4-0-8-3-6" fill="#da9f78" fill-opacity="1" stroke="none" stroke-width=".307214px" stroke-linecap="butt" stroke-linejoin="miter" stroke-opacity="1"/><path d="M229.449 240.566s3.208-3.962 6.449-1.522c3.24 2.44 1.44 5.727-.14 7.208-1.582 1.481-6.31-5.686-6.31-5.686z" id="path73055-3-8-7-1-7-0-5-5-2-2-1" fill="#dbdde1" fill-opacity="1" stroke="none" stroke-width=".247915px" stroke-linecap="butt" stroke-linejoin="miter" stroke-opacity="1"/><path d="m225.937 244.012 6.004 6.04 3.627-3.597-5.998-6.048z" id="path72761-0-5-3-7-1-1-0-3-8-2-3" fill="#6f5656" fill-opacity="1" stroke="none" stroke-width=".264583px" stroke-linecap="butt" stroke-linejoin="miter" stroke-opacity="1"/><path d="m184.696 290.642 2.108-4.376 2.32 2.44z" id="path74006-2-8-2-9-1-2-3-2-1-8-9" fill="#7b5d3e" fill-opacity="1" stroke="none" stroke-width=".305113px" stroke-linecap="butt" stroke-linejoin="miter" stroke-opacity="1"/></g><g id="g3481-0-6-0-8"><path d="M80.903 35.65C76.748 17.053 62.356 3.88 62.356 3.88c-6.63 8.77-7.97 17.071-7.97 17.071S51.974 31.59 52.42 40.16c.177 3.411 9.24-3.627 13.056-1.714 9.973 5 15.427-2.795 15.427-2.795z" id="path2556-2-0-3-9" fill="#958986" fill-opacity="1" stroke="none" stroke-width="1px" stroke-linecap="butt" stroke-linejoin="miter" stroke-opacity="1"/><path id="path9747-9-6-4-0-6" d="M62.638 12.849s5.626 7.41 6.616 13.175c.99 5.765.085 8.903.085 8.903s-3.274-2.016-8.848-4.894c-5.573-2.878 2.147-17.184 2.147-17.184z" fill="#ffaeae" fill-opacity="1" stroke-width=".393074"/></g><path d="M52.413 35.715s-24.434 2.84-32.833-6.796c-.727-.56-.847-4.039-.837-4.75.002-.131.117-.52.66-.145 2.415 1.671 10.917 8.337 33.33 7.332z" id="path4394-5-4-8-5" fill="#3b4579" fill-opacity="1" stroke="none" stroke-width="1px" stroke-linecap="butt" stroke-linejoin="miter" stroke-opacity="1"/><g id="g6558-5-3-0-2" transform="matrix(.86872 -.20942 .22388 .9287 -12.568 9.18)"><path d="m36.599 44.699-11.888 15.6 1.856 3.315 12.728-16.087Z" id="path6075-9-0-93-9" opacity=".340694" fill="#fff" fill-opacity="1" stroke="none" stroke-width="1px" stroke-linecap="butt" stroke-linejoin="miter" stroke-opacity="1"/><g id="g6047-2-7-9-2" transform="translate(.625 1.5)"><ellipse id="path4715-4-8-8-2" cx="31.927" cy="53.648" rx="8.431" ry="12.255" opacity=".328076" fill="#fff" fill-opacity="1" stroke="none" stroke-width="1.70465" stroke-linecap="round" stroke-linejoin="round" stroke-opacity="1" paint-order="stroke fill markers"/><path d="M31.354 41.106s-7.812 1.187-7.812 12.187 6.562 12.563 6.562 12.563h2.563s-8-2.375-8-12.875 6.687-11.875 6.687-11.875z" id="path5991-8-9-5-0" fill="#fff" fill-opacity="1" stroke="none" stroke-width="1px" stroke-linecap="butt" stroke-linejoin="miter" stroke-opacity="1"/><path id="path4715-6-4-9-2-6" d="M32.167 40.35a9.076 13.193 0 0 0-9.076 13.193 9.076 13.193 0 0 0 9.076 13.194 9.076 13.193 0 0 0 9.076-13.194 9.076 13.193 0 0 0-9.076-13.193zm-.313 1.375a8.088 11.756 0 0 1 8.088 11.756 8.088 11.756 0 0 1-8.088 11.756 8.088 11.756 0 0 1-8.087-11.756 8.088 11.756 0 0 1 8.087-11.756z" display="inline" fill="#1a1a1a" fill-opacity="1" stroke="none" stroke-width="1.8351" stroke-linecap="round" stroke-linejoin="round" stroke-opacity="1" paint-order="stroke fill markers"/></g></g></g><path d="M-35.457 122.578c-.059-.052-.049-.109.03-.179.482-.424 1.21-.748 1.922-.855.262-.039.678-.064.738-.044a.1.1 0 0 1 .06.142c-.023.042-.045.047-.224.053a4.028 4.028 0 0 0-1.156.193 3.549 3.549 0 0 0-1.186.644c-.072.063-.087.071-.125.071-.021 0-.038-.007-.06-.025z" id="path33141-3-7-2" fill="#000" stroke-width=".00843695"/></g></g></g></svg>