<svg data-name="Layer 1" width="100" height="100" xmlns="http://www.w3.org/2000/svg"><g style="display:inline"><path style="fill:#485a45;fill-opacity:1;stroke:#fff;stroke-width:6;stroke-linecap:round;stroke-linejoin:round;stroke-dasharray:none;stroke-opacity:1;paint-order:stroke fill markers" d="M197.387 8.213s-.777 15.304 1.904 22.668c-2.836 2.487-5.404 4.766-7.557 6.787-.35.012-.627.027-.816.047-1.274.13-2.014 1.537-2.014 1.537-.62.922-4.582 10.242-3.9 12.548-2.134 1.562-6.42 4.347-10.233 6.774-3.864 2.46-7.2 4.53-7.2 4.53s1.293 1.293 3.327 3.017a63.174 63.174 0 0 0 5.135 3.926l-.008.003s3.592 2.613 6.055 3.399l.015-.018c.948.398 1.895.744 2.819.963 2.182.518 4.79.266 7.521-.277 7.174-1.42 15.185-4.841 18.524-1.557 4.61 4.538 4.047 8.963 4.047 8.963s1.75-2.912 3.066-6.322c.263-.682.51-1.385.72-2.088.423-1.405.706-2.813.71-4.068 0 0 10.496 5.514 6.847 18.546 0 0 5.032-4.796 7.778-11.283a23.156 23.156 0 0 0 1.314-4.068c.615-2.815.631-5.803-.422-8.762 0 0 7.949 3.883 8.795 8.926 0 0 1.279-4.86-.203-10.12a15.9 15.9 0 0 0-2.187-4.718c-1.05-1.528-2.46-2.973-4.334-4.21 0 0 1.207-.178 2.957-.196.603-.006 1.273.009 1.978.054 2.702.177 5.946.835 8.203 2.762 0 0-.132-.641-.48-1.654-.043-.125-.1-.271-.149-.406 2.308 2.551 4.209 4.92 5.006 6.57l4.057-7.395c-4.136-4.89-9.937-9.483-14.654-12.828.117-.066.233-.126.351-.195.298-.174.599-.36.897-.555 5.682 1.708 13.45 4.28 16.095 6.29l.22-6.98c-7.067-2.973-16.46-4.184-20.976-4.62-.195-1.093-1.628-.963-1.628-.963s-.49.037-1.114.098l-.3.03c-.165-.093-.335-.183-.489-.284a.282.282 0 0 1-.01-.028c-.182-.562-3.155-9.638-6.72-14.793a71.93 71.93 0 0 0-8.065-9.554s-5.697 8.053-7.01 15.011c0 0-1.42-.445-3.51-.32l.01-.018s-3.194-3.465-7.765-8.873c-4.57-5.407-6.608-6.296-6.608-6.296z" transform="translate(-164.57 2.098)"/><path style="fill:#837065;fill-opacity:1;stroke-width:.345651" d="M156.587 7.036s-.983 19.26 3.038 24.966c4.021 5.707 11.335-9.796 11.335-9.796s-3.195-3.466-7.766-8.874c-4.57-5.408-6.607-6.296-6.607-6.296z" transform="translate(-123.77 3.275)"/><path style="fill:#948074;fill-opacity:1;stroke-width:.345651" d="M203.014 71.228c-.846-5.044-8.795-8.926-8.795-8.926 4.212 11.835-8.669 24.112-8.669 24.112 3.648-13.032-6.848-18.546-6.848-18.546-.014 5.023-4.496 12.478-4.496 12.478s.563-4.426-4.047-8.964c-3.338-3.284-11.35.138-18.524 1.558-2.73.543-5.339.796-7.521.278-4.981-1.183-10.561-5.347-14.015-8.273-2.035-1.724-3.329-3.018-3.329-3.018s3.337-2.07 7.202-4.53c3.92-2.497 8.384-5.394 10.448-6.926 4.095-3.043 3.187-10.199 4.403-11.865 1.218-1.668 15.352-13.869 15.352-13.869 5.22-3.865 10.286-2.193 10.286-2.193 1.313-6.958 7.008-15.012 7.008-15.012a71.93 71.93 0 0 1 8.064 9.555c3.566 5.155 6.54 14.229 6.723 14.791a.282.282 0 0 0 .009.028c4.109 2.694 12.164 2.714 12.164 2.714-3.407 4.888-10.655 6.712-10.655 6.712 9.53 3.198 11.655 13.467 11.655 13.467-4.552-3.888-13.138-2.62-13.138-2.62 9.998 6.604 6.723 19.049 6.723 19.049z" transform="translate(-123.77 3.275)"/><path style="fill:#4e433c;fill-opacity:1;stroke-width:.345651" d="M134.147 62.456c-.252.503-1.778 1.256-1.942 1.389-.163.135-.212-.723-.212-.723l-1.303-.168-.27 1.104-.32.887c-2.036-1.724-3.33-3.018-3.33-3.018s3.337-2.07 7.202-4.53c0 0 .43 4.558.175 5.059z" transform="translate(-123.77 3.275)"/><path style="fill:#837065;fill-opacity:1;stroke-width:.345651" d="M203.014 71.228c-.846-5.044-8.795-8.926-8.795-8.926 4.212 11.835-8.669 24.112-8.669 24.112 3.648-13.032-6.848-18.546-6.848-18.546-.014 5.023-4.496 12.478-4.496 12.478s.563-4.426-4.047-8.964c-3.338-3.284-11.35.138-18.524 1.558 0 0 9.164-5.699 15.882-5.53 6.717.17 7.798 3.901 7.798 3.901s1.808-5.972.138-9.066c0 0 6.551-.564 11.613 2.84 0 0-2.023-8.382-6.67-10.298 0 0 7.54-1.413 11.913.548 0 0 .85-4.533-5.637-7.42 0 0 5.87-1.684 11.188-.036 0 0-3.979-6.41-9.068-7.927 0 0 7.948-1.318 10.46-3.087a13.724 13.724 0 0 1-2.987-4.959c4.109 2.694 12.164 2.714 12.164 2.714-3.407 4.888-10.655 6.712-10.655 6.712 9.53 3.198 11.655 13.467 11.655 13.467-4.552-3.888-13.138-2.62-13.138-2.62 9.998 6.604 6.723 19.049 6.723 19.049z" transform="translate(-123.77 3.275)"/><path style="fill:#4e433c;fill-opacity:1;stroke-width:.345651" d="M182.221 13.305s5.37 7.102 6.03 12.203c.659 5.101-.251 7.825-.251 7.825s-2.714-4.563-7.506-7.295 1.727-12.733 1.727-12.733z" transform="translate(-123.77 3.275)"/><g style="display:inline;fill:#c93e10;fill-opacity:1"><path style="fill:#a02c2c;fill-opacity:1;stroke:none;stroke-width:1px;stroke-linecap:butt;stroke-linejoin:miter;stroke-opacity:1" d="M79.587 32.07C58.27 47.779 33.65 47.112 32.79 45.393c-.86-1.72 2.333-10.246 2.844-11.081 0 0 .586-1.24 1.678-1.4 2.577-.379 23.294-.566 40.024-5.285-.098.308 1.309-.763 2.209 1.113.64 1.334 1.569 2.741.042 3.33z" transform="scale(1.15961) rotate(2.484 -2.75 -302.912)"/><path style="fill:#a02c2c;fill-opacity:1;stroke:none;stroke-width:1.12994px;stroke-linecap:butt;stroke-linejoin:miter;stroke-opacity:1" d="M93.032 50.15c-2.694-5.004-17.867-17.435-17.867-17.435l.767-3.87s12.933 6.782 20.319 14.782z" transform="scale(1.15961) rotate(2.484 -2.75 -302.912)"/><path style="display:inline;fill:#a02c2c;fill-opacity:1;stroke:none;stroke-width:.935383px;stroke-linecap:butt;stroke-linejoin:miter;stroke-opacity:1" d="M98.295 37.249c-3.866-2.683-19.725-6.163-19.725-6.163l-.886-3.143s12.088.151 20.54 3.284z" transform="scale(1.15961) rotate(2.484 -2.75 -302.912)"/></g><path style="display:inline;fill:#872525;fill-opacity:1;stroke:none;stroke-width:.879354px;stroke-linecap:butt;stroke-linejoin:miter;stroke-opacity:1" d="M196.109 33.85s-12.917 4.098-26.19 6.058c-13.272 1.96-3.474 5.434 3.475 2.94 6.948-2.494 12.079-4.858 13.654-4.102 1.574.756-6.098 4.494-11.01 5.69-4.914 1.197-2.016 2.583 1.007 1.827 3.024-.756 15.984-6.272 18.758-10.1 1.155-1.593 2.376-3.05.306-2.312z" transform="translate(-123.77 3.275)"/><path style="display:inline;fill:#872525;fill-opacity:1;stroke:none;stroke-width:.733423px;stroke-linecap:butt;stroke-linejoin:miter;stroke-opacity:1" d="M195.086 35.553s8.776 9.334 9.985 9.334c1.208 0-2.106-5.324-9.985-9.334zM198.052 34.59s12.2 3.911 13.257 3.326c1.057-.586-4.423-3.636-13.257-3.325z" transform="translate(-123.77 3.275)"/><path style="display:inline;fill:#832424;fill-opacity:1;stroke:none;stroke-width:.765465px;stroke-linecap:butt;stroke-linejoin:miter;stroke-opacity:1" d="M198.167 32.063s1.617-.148 1.651 1.178c.035 1.327-.55 5.111-1.174 5.665-.624.554-2.657 1.295-3.286 1.315-.628.02-5.616-4.841-4.213-6.43 1.403-1.588 2.926-1.207 3.995-1.393 1.07-.185 3.027-.335 3.027-.335z" transform="translate(-123.77 3.275)"/><path style="display:inline;fill:#6a1d1d;fill-opacity:1;stroke:none;stroke-width:.765465px;stroke-linecap:butt;stroke-linejoin:miter;stroke-opacity:1" d="M198.167 32.063s-2.992 1.247-2.962 2.159c.044 1.325 1.354 3.402.731 3.956-1.541.478-2.1-3.983-2.943-4.377-.493-.192-2.397.612-1.848-.01 1.403-1.588 2.926-1.207 3.995-1.393 1.07-.185 3.027-.335 3.027-.335z" transform="translate(-123.77 3.275)"/><path style="fill:#fff;fill-opacity:1;stroke:none;stroke-width:1.08551px;stroke-linecap:butt;stroke-linejoin:miter;stroke-opacity:1" d="M161.88 55.036c3.966 1.958 4.268 6.062 1.75 8.013-1.57 1.218-6.913 3.083-11.992 4.873-.68.24.745 1.213.16 1.6-.943.624-3.746-.326-4.327-.114-3.343 1.218-5.663 2.177-6.191 2.864-2.463-.786-6.054-3.399-6.054-3.399 4.097-2.468 23.929-7.595 26.437-9.677 1.304-1.082 1.981-2.78.218-4.16z" transform="translate(-123.77 3.275)"/><path style="fill:#5b4e46;fill-opacity:1;stroke:none;stroke-width:2.00993px;stroke-linecap:butt;stroke-linejoin:miter;stroke-opacity:1" d="M161.38 53.16s3.638-.214 5.05 1.942c1.409 2.152.935 4.464.935 4.464s2.334-3.691.149-5.876c-1.91-1.91-6.133-.53-6.133-.53z" transform="translate(-123.77 3.275)"/><path style="fill:#cbcbcb;fill-opacity:1;stroke:none;stroke-width:.886697px;stroke-linecap:butt;stroke-linejoin:miter;stroke-opacity:1" d="M137.711 69.611s3.507.325 4.11.102c.604-.222.88-3.468 1.262-3.208 1.576 1.073 3.994 2.77 6.946 3.106 1.201.093 2.058.01 1.565-1.098l-1.914-4.015c-.19-.399 5.262.323 6.056.1.794-.221 2.066-2.988 2.606-3.338.54-.35 5.188-.116 5.188-.116s-4.1.612-4.608.93c-.509.317-1.904 3.353-2.73 3.544-.825.19-4.879-.514-5.228-.324-.35.19 2.582 5.084 2.582 5.084-2.026.492-6.878.328-9.86-2.436 0 0-.92 2.75-1.301 2.75-.382 0-2.902-.264-4.674-1.08z" transform="translate(-123.77 3.275)"/></g></svg>