<svg data-name="Layer 1" viewBox="0 0 100 100" width="100" height="100" xmlns="http://www.w3.org/2000/svg"><path d="M32.765 6.671s-.3 5.965.026 12.764a5.807 5.807 0 0 0-1.334.279c-1.238.453-1.336 1.01-1.588 3.414a11.103 11.103 0 0 0 .977 5.877s.82.432 2.967.299c.327 1.817.744 3.495 1.267 4.932-4.972 4.369-10.903 9.651-11.752 10.812-1.478 2.027-.377 10.726-5.353 14.424-1.58 1.172-4.368 3.02-7.366 4.973C6.352 67.149 3 69.237 3 69.237s.905 4.45 3.379 6.545a16.837 16.837 0 0 0 .004.01l.002.002c.252.315 5.868 7.233 17.99 9.147a30.77 30.77 0 0 0 8.932.07 33.84 33.84 0 0 0 3.056-.56h.002c.034-.01.07-.017.102-.026l.883-.2a41.415 41.415 0 0 1 2.168-.421c.14-.023.285-.048.425-.068h.002c.102-.016.204-.03.305-.043.183-.028.363-.052.543-.073h.002c.136-.016.272-.033.408-.047h.002l.414-.039.079-.005c.245-.019.489-.036.732-.047.148-.005.297-.012.445-.014.125-.003.25-.006.375-.006a12.241 12.241 0 0 1 2.756.293 12.241 12.241 0 0 1 .662.158 12.241 12.241 0 0 1 2.596.979 12.241 12.241 0 0 0 .002 0c.494.27.963.605 1.404.984.884.757 1.659 1.69 2.317 2.637a23.072 23.072 0 0 1 1.607 2.719c.616 1.217.941 2.097.941 2.097h.002v-.002c.003-.004 4.096-6.602 4.112-12.707 0 0 .144.032.402.106h.002c.259.073.63.189 1.084.36.682.254 1.549.63 2.498 1.165h.002c.316.178.64.375.97.59h.003a17.475 17.475 0 0 1 2.014 1.53c2.014 1.78 3.934 4.349 4.923 8.007h.002s3.338-3.065 5.455-7.969l.002-.002c1.271-2.943 2.1-6.548 1.506-10.552 0 0 .397.16 1.06.466h.003c.663.306 1.593.758 2.656 1.342 1.064.584 2.262 1.3 3.463 2.135 1.2.835 2.404 1.788 3.479 2.846 0 0 .694-3.696.244-8.153v-.002c-.351-3.467-1.393-7.395-3.996-10.404.001 0 .34-.063.947-.102.304-.019.674-.032 1.101-.027a18.51 18.51 0 0 1 6.188 1.17h.002c1.07.396 2.194.92 3.342 1.607 0 0-1.005-11.653-9.397-16.36 0 0 .254-.142.696-.442h.002c.221-.151.491-.342.8-.576.31-.235.66-.514 1.041-.838.382-.325.796-.697 1.235-1.118.438-.42.902-.89 1.383-1.412v-.002a35.902 35.902 0 0 0 3.027-3.783s-3.828-.008-7.916-.814a30.383 30.383 0 0 1-2.455-.586 23.167 23.167 0 0 1-1.2-.377 18.67 18.67 0 0 1-1.148-.44h-.002a14.7 14.7 0 0 1-1.078-.504h-.002a11.39 11.39 0 0 1-.988-.578l-.012-.033c-.22-.683-3.838-11.715-8.172-17.982a87.34 87.34 0 0 0-9.803-11.613s-2.042 2.927-4.164 6.921c-.544-.464-1.091-.61-1.865-.718-1.524-.213-5.755.128-9.803 6.408a32.868 32.868 0 0 1 3.054-10.734 13.068 13.068 0 0 0-5.423 5.5s-.523-5.503-1.348-6.73c-.741-1.104-2.247 2.731-2.522 6.571l-.144-.168c-5.556-6.573-8.031-7.654-8.031-7.654z" fill="#5f5358" stroke="#fff" stroke-width="6" stroke-linecap="round" stroke-linejoin="round" paint-order="stroke fill markers"/><g data-name="junior"><g data-name="junior"><path d="M32.767 6.673s-1.195 23.412 3.693 30.35c4.888 6.936 13.779-11.909 13.779-11.909s-3.884-4.214-9.44-10.788c-5.557-6.574-8.032-7.653-8.032-7.653z" fill="#5f5358"/><path d="M85.419 62.087c5.95 6.878 3.753 18.557 3.753 18.557-4.298-4.23-10.66-6.788-10.66-6.788 1.585 10.678-6.964 18.523-6.964 18.523-2.639-9.756-11.9-11.758-11.9-11.758-.015 6.107-4.111 12.71-4.111 12.71s-2.317-6.274-6.272-8.438a12.241 12.241 0 0 0-6.014-1.43c-.126 0-.25.003-.376.005-.148.003-.296.01-.445.014-.243.012-.486.028-.732.047l-.079.007c-.136.011-.273.025-.414.039-.137.014-.273.03-.41.046-.181.021-.362.045-.545.072-.102.014-.204.028-.305.044-.142.021-.283.044-.427.067a41.429 41.429 0 0 0-2.168.422l-.883.2-.102.024q-1.518.352-3.058.561a30.77 30.77 0 0 1-8.931-.069c-12.122-1.914-17.738-8.832-17.99-9.147 0-.002 0-.002-.003-.002a16.837 16.837 0 0 1-1.107-7.9c4.765-3.036 10.191-6.557 12.7-8.42 4.977-3.697 3.874-12.397 5.352-14.425.964-1.318 8.577-8.06 13.776-12.605 0-.002.002-.002.002-.005 4.843-4.28 4.062-6.735 2.678-11.236-1.38-4.504-5.914-9.312-5.914-9.312a18.016 18.016 0 0 1 7.017 3.902c-.037-4.205 1.752-9.098 2.577-7.87.824 1.228 1.348 6.73 1.348 6.73a13.068 13.068 0 0 1 5.424-5.5 32.868 32.868 0 0 0-3.08 10.857 9.304 9.304 0 0 0 .985 5.384 13.386 13.386 0 0 1 6.353.132c1.596-8.458 8.519-18.25 8.519-18.25a87.34 87.34 0 0 1 9.803 11.614c4.334 6.268 7.95 17.298 8.17 17.981l.012.035c4.995 3.276 14.788 3.3 14.788 3.3-4.142 5.942-8.183 8.168-8.183 8.168C95.995 53.081 97 64.735 97 64.735c-6.123-3.67-11.581-2.649-11.581-2.649z" fill="#6c5f64"/><path d="M11.97 69.88c-.307.612-2.162 1.528-2.361 1.689-.198.163-.258-.879-.258-.879l-1.584-.204-.328 1.341-1.058 3.956c-2.474-2.095-3.379-6.546-3.379-6.546s3.801-2.365 8.5-5.357c0 0 .777 5.391.468 6zm51.958-55.587s6.528 8.633 7.33 14.834c.8 6.201-.305 9.513-.305 9.513s-3.3-5.547-9.124-8.868c-5.825-3.321 2.1-15.479 2.1-15.479z" fill="#5f5358"/></g><path d="M62.264 23.923s-1.283 1.361-6.097 2.248a16.073 16.073 0 0 1-7.971-.664l6.08-2.677 7.988 1.093z" data-name="path4275-7-4" fill="#3961a9"/><path d="M47.157 19.923c4.055-6.315 8.3-6.657 9.826-6.445 1.526.213 2.167.571 3.651 3.233a12.764 12.764 0 0 1 1.63 7.212s-7.932-.342-14.068 1.584l-1.038-5.499z" data-name="path4277-0-4" fill="#6287ca"/><path d="M30.847 29.007s1.288.684 4.888.067a10.952 10.952 0 0 0 5.055-2.186l-5.53-.701-4.413 2.82z" data-name="path4281-1-5" fill="#3961a9"/><path d="M39.785 21.202c-3.609-2.27-7.088-1.94-8.327-1.487-1.238.453-1.336 1.01-1.588 3.415a11.103 11.103 0 0 0 .977 5.877s5.147-1.762 9.943-2.12L40.7 21.52z" data-name="path4283-0-7" fill="#6287ca"/><path d="M48.198 25.506c-2.374 1.686-7.408 1.382-7.408 1.382a16.36 16.36 0 0 1-1.005-5.686s4.998-1.92 7.372-1.279a15.871 15.871 0 0 1 1.041 5.583z" data-name="path4285-3-67" fill="#3961a9"/><path d="M85.42 62.086c5.95 6.879 3.753 18.558 3.753 18.558-4.297-4.23-10.66-6.788-10.66-6.788 1.585 10.678-6.964 18.522-6.964 18.522-2.638-9.756-11.9-11.758-11.9-11.758-.015 6.108-4.111 12.71-4.111 12.71s-2.32-6.273-6.272-8.437a12.241 12.241 0 0 0-6.014-1.43c-.125 0-.25.003-.375.005-.149.003-.297.01-.445.014-.244.012-.487.028-.732.046l-.08.007a21.514 21.514 0 0 0-.824.086c-.18.021-.362.044-.545.071a24.313 24.313 0 0 0-.732.112 41.478 41.478 0 0 0-2.168.422c-.292.062-.586.13-.883.199-.032.009-.067.016-.102.025q-1.519.351-3.058.56c2.968-1.637 15.048-7.686 20.9-1.297 0 0 2.833-5.884.931-9.517 0 0 7.972-.655 12.884 2.87 0 0 2.815-8.703-1.638-14.178 0 0 7.319-2.507 11.309.665 0 0 .358-5.936-1.69-7.368 0 0 4.402-3.378 8.496-2.252 0 0-2.15-7.01-5.68-8.34 0 0 5.553-1.281 7.907-3.633 0 0-4.417-2.231-5.727-5.055 4.995 3.276 14.788 3.299 14.788 3.299-4.143 5.942-8.183 8.169-8.183 8.169 8.39 4.708 9.397 16.361 9.397 16.361-6.124-3.67-11.582-2.648-11.582-2.648z" fill="#5f5358"/><path d="M38.602 53.25a4.392 4.392 0 0 1-4.392 4.392 4.392 4.392 0 0 1-4.392-4.392 4.392 4.392 0 0 1 4.392-4.392 4.392 4.392 0 0 1 4.392 4.392z" data-name="path4485-6" fill="#a1d2fa"/></g></svg>