<svg width="100" height="100" viewBox="0 0 100 100" xmlns="http://www.w3.org/2000/svg"><path style="line-height:normal;font-variant-ligatures:normal;font-variant-position:normal;font-variant-caps:normal;font-variant-numeric:normal;font-variant-alternates:normal;font-feature-settings:normal;text-indent:0;text-align:start;text-decoration-line:none;text-decoration-style:solid;text-decoration-color:#000;text-transform:none;text-orientation:mixed;white-space:normal;shape-padding:0;isolation:auto;mix-blend-mode:normal;solid-color:#000;solid-opacity:1" d="M-412.16 1046.573c-.41.01-.775.257-.928.637-1.289 3.055-1.779 5.502-8.025 9.844-3.2.076-6.445.552-9.699 1.481 3.368-3.534 3.804-5.885 4.395-7.953a1.019 1.019 0 1 0-1.96-.56c-.774 2.713-.792 4.64-6.33 9.387-.18.153-.301.363-.343.595-10.28 4.207-20.493 13.154-29.533 28.49.098-.071.206-.156.305-.23 31.028 36.19 77.613 10.584 84.375-7.175.151.108.302.214.453.324a59.608 59.608 0 0 0-.94-1.385c.107-.01.22-.023.34-.067 5.863-2.142 7.815-3.982 9.399-6.053a1.019 1.019 0 1 0-1.62-1.237c-1.713 2.241-3.313 3.588-8.448 5.366-.363.118-.57.354-.657.624a60.192 60.192 0 0 0-4.31-5.184c5.687-2.846 6.885-5.291 8.172-7.338a1.019 1.019 0 1 0-1.724-1.085c-1.44 2.29-2.027 4.084-7.935 6.883a56.666 56.666 0 0 0-7.866-6.57c5.362-2.763 6.542-5.146 7.8-7.146a1.019 1.019 0 1 0-1.725-1.085c-1.45 2.305-2.036 4.107-8.05 6.937a49.022 49.022 0 0 0-7.769-3.962c4.623-3.385 5.428-5.845 6.365-7.957a1.019 1.019 0 1 0-1.864-.827c-1.094 2.468-1.417 4.325-6.824 7.927-3.453-1.167-7.033-1.909-10.69-2.136 4.623-3.737 5.517-6.583 6.586-9.117a1.019 1.019 0 0 0-.95-1.428z" transform="translate(467.545 -1026.56)" color="#000" font-weight="400" font-family="sans-serif" overflow="visible" fill="#fff" fill-rule="evenodd" stroke="#fff" stroke-width="5.925" stroke-linecap="round" stroke-linejoin="round"/><g transform="translate(33.278 -295.813) scale(.30806)"><path style="line-height:normal;font-variant-ligatures:normal;font-variant-position:normal;font-variant-caps:normal;font-variant-numeric:normal;font-variant-alternates:normal;font-feature-settings:normal;text-indent:0;text-align:start;text-decoration-line:none;text-decoration-style:solid;text-decoration-color:#000;text-transform:none;text-orientation:mixed;white-space:normal;shape-padding:0;isolation:auto;mix-blend-mode:normal;solid-color:#000;solid-opacity:1" d="M22.03 1034.037a3.302 3.302 0 0 0-3.07 2.435c-2.512 8.791-2.57 15.038-20.52 30.424a3.302 3.302 0 1 0 4.297 5.014c18.703-16.031 20.251-25.497 22.573-33.622a3.302 3.302 0 0 0-3.28-4.25zm49.484-8.744a3.302 3.302 0 0 0-3.008 2.064c-4.24 10.055-5.77 18.062-26.911 32.544a3.302 3.302 0 1 0 3.73 5.448c22.033-15.094 25.264-25.935 29.268-35.428a3.302 3.302 0 0 0-3.08-4.628zm41.546 13.402a3.302 3.302 0 0 0-3.049 2.007c-3.706 8.358-4.63 14.534-24.539 27.283a3.302 3.302 0 1 0 3.56 5.56c20.744-13.283 23.594-22.44 27.02-30.166a3.302 3.302 0 0 0-2.992-4.684zm36.279 19.251a3.302 3.302 0 0 0-2.646 1.579c-4.869 7.739-6.672 13.719-28.207 23.476a3.302 3.302 0 1 0 2.73 6.015c22.437-10.167 26.568-18.82 31.068-25.973a3.302 3.302 0 0 0-2.945-5.097zm31.518 25.664a3.302 3.302 0 0 0-2.641 1.578c-4.869 7.739-6.672 13.72-28.207 23.476a3.302 3.302 0 1 0 2.724 6.015c22.438-10.167 26.57-18.82 31.07-25.973a3.302 3.302 0 0 0-2.946-5.096zm22.715 24.934a3.302 3.302 0 0 0-2.776 1.331c-5.553 7.263-10.739 11.628-27.383 17.39-4.271 1.388-2.046 7.795 2.167 6.236 19.003-6.94 25.33-12.904 30.463-19.618 1.666-2.12.224-5.236-2.471-5.339z" color="#000" font-weight="400" font-family="sans-serif" overflow="visible" fill="#4e4e4e" fill-rule="evenodd"/><circle r="59.625" cy="1139.342" cx="37.996" fill="#4fc3f7" paint-order="fill markers stroke"/><circle r="47.242" cy="1139.342" cx="37.996" fill="#03a9f4" paint-order="fill markers stroke"/><path d="M-97.611 1160.165c34.343 14.595 152.786 63.999 273.688-23.056-21.863 57.599-173.101 140.75-273.688 23.056z" fill="#e09465" fill-rule="evenodd"/><path d="M-98.385 1161.157c39.516-28.997 133.23-126.256 275.912-22.949-56.442-85.845-184.642-131.882-275.912 22.95z" fill="#e09465" fill-rule="evenodd"/><path d="m55.343 1164.62-16.155-9.996-14.41 12.38.579-18.988-17.927-6.29 16.734-8.993-3.516-18.67 16.155 9.996 14.41-12.38-.579 18.989 17.927 6.29-16.734 8.993z" fill="#e1ef5b" stroke="#e1ef5b" stroke-width="2.565" stroke-linecap="square" stroke-linejoin="round" paint-order="markers fill stroke"/><circle r="7.116" cy="1139.342" cx="37.996" fill="#03a9f4" paint-order="markers fill stroke"/></g></svg>