<svg width="100" height="100" viewBox="0 0 26.458 26.458" xmlns="http://www.w3.org/2000/svg"><g transform="translate(52.39 -36.169) scale(.2203)"><circle r="24.204" cy="122.282" cx="-180.712" fill="#51baa7" stroke="#020001" stroke-width="2.5" stroke-linecap="round" stroke-linejoin="round" paint-order="fill markers stroke"/><path d="M-195.167 95.205c6.939-5.948 7.244-8.922 8.159-12.124m8.074 9.559c8.173-5.6 9.074-9.169 10.635-12.87m5.945 15.95c7.697-4.928 8.411-7.83 9.761-10.875m2.583 16.647c8.324-3.771 9.448-6.541 11.221-9.36m.712 19.078c8.325-3.773 9.449-6.543 11.222-9.362m-3.913 18.655c8.634-2.997 10.006-5.653 12.029-8.299" fill="none" stroke="#020001" stroke-width="2.5" stroke-linecap="round" stroke-linejoin="round"/><path d="M-230.015 131.654c12.963 5.795 47.582 31.569 93.944-1.068-10.218 14.793-56.58 39.347-93.944 1.068zm-3.845-3.079c13.878-15.25 51.09-57.343 106.144-5.185-21.198-32.332-69.238-51.09-106.144 5.185z" fill="#e09465" fill-rule="evenodd" stroke="#020001" stroke-width="2.5" stroke-linecap="round" stroke-linejoin="round"/><circle r="19.177" cy="122.282" cx="-180.712" fill="#5bcfa7" paint-order="fill markers stroke"/><path d="M-180.873 121.785c-.097.475-.687.104-.788-.16-.274-.717.46-1.346 1.11-1.416 1.164-.124 2.035.974 2.042 2.06.012 1.595-1.49 2.736-3.009 2.669-2.024-.09-3.442-2.01-3.295-3.959.185-2.453 2.528-4.151 4.908-3.922 2.882.278 4.862 3.048 4.549 5.857-.37 3.311-3.568 5.574-6.807 5.176-3.74-.46-6.286-4.087-5.802-7.756.55-4.169 4.606-7 8.705-6.429 4.598.64 7.713 5.126 7.056 9.654-.73 5.027-5.646 8.426-10.604 7.683-5.456-.818-9.14-6.166-8.31-11.553.908-5.885 6.686-9.853 12.503-8.936 6.314.996 10.567 7.205 9.563 13.451-1.084 6.744-7.726 11.282-14.4 10.19-7.174-1.173-11.996-8.245-10.818-15.35 1.262-7.602 8.766-12.71 16.3-11.443 8.031 1.35 13.424 9.285 12.07 17.248-1.306 7.684-8.398 13.233-16.14 12.915" fill="none" stroke="#fff" stroke-width="1.827" stroke-linecap="round" stroke-linejoin="round"/></g><path style="line-height:normal;font-variant-ligatures:normal;font-variant-position:normal;font-variant-caps:normal;font-variant-numeric:normal;font-variant-alternates:normal;font-feature-settings:normal;text-indent:0;text-align:start;text-decoration-line:none;text-decoration-style:solid;text-decoration-color:#000;text-transform:none;text-orientation:mixed;white-space:normal;shape-padding:0;isolation:auto;mix-blend-mode:normal;solid-color:#000;solid-opacity:1" d="M-158.189 99.407a.27.27 0 0 0-.245.168c-.34.808-.47 1.455-2.121 2.603a10.21 10.21 0 0 0-2.564.391c.89-.934 1.005-1.555 1.161-2.102a.27.27 0 1 0-.518-.148c-.204.717-.21 1.227-1.673 2.482a.27.27 0 0 0-.091.157c-2.718 1.112-5.418 3.478-7.808 7.532l.08-.061c8.204 9.568 20.52 2.798 22.308-1.897l.12.086a15.89 15.89 0 0 0-.25-.366.311.311 0 0 0 .09-.018c1.55-.566 2.067-1.053 2.486-1.6a.27.27 0 1 0-.428-.327c-.453.592-.876.948-2.234 1.418a.255.255 0 0 0-.174.165 15.906 15.906 0 0 0-1.14-1.37c1.504-.753 1.821-1.4 2.161-1.94a.27.27 0 1 0-.455-.287c-.381.605-.536 1.08-2.098 1.82a14.983 14.983 0 0 0-2.08-1.737c1.418-.731 1.73-1.36 2.062-1.89a.27.27 0 1 0-.456-.287c-.383.61-.538 1.086-2.128 1.834a12.962 12.962 0 0 0-2.054-1.047c1.222-.895 1.435-1.545 1.683-2.104a.27.27 0 1 0-.493-.218c-.29.652-.375 1.143-1.804 2.095a10.933 10.933 0 0 0-2.826-.564c1.222-.988 1.458-1.74 1.74-2.41a.27.27 0 0 0-.25-.378z" transform="translate(172.841 -94.106)" color="#000" font-weight="400" font-family="sans-serif" overflow="visible" fill="#fff" fill-rule="evenodd" stroke="#fff" stroke-width="1.587" stroke-linecap="round" stroke-linejoin="round"/><g transform="translate(170.426 -84.098) scale(.98597)"><path d="M-162.09 91.396a.273.273 0 0 0-.255.2c-.207.728-.212 1.244-1.696 2.516a.273.273 0 1 0 .355.414c1.546-1.325 1.674-2.107 1.866-2.78a.273.273 0 0 0-.27-.35zm4.09-.723a.273.273 0 0 0-.249.17c-.35.832-.477 1.493-2.225 2.69a.273.273 0 1 0 .309.45c1.821-1.247 2.088-2.143 2.42-2.928a.273.273 0 0 0-.255-.382zm3.434 1.107a.273.273 0 0 0-.252.166c-.306.691-.383 1.202-2.028 2.256a.273.273 0 1 0 .294.46c1.715-1.099 1.95-1.856 2.234-2.494a.273.273 0 0 0-.248-.387zm2.999 1.592a.273.273 0 0 0-.219.13c-.402.64-.551 1.135-2.331 1.941a.273.273 0 1 0 .225.497c1.855-.84 2.197-1.555 2.569-2.147a.273.273 0 0 0-.244-.421zm2.606 2.121a.273.273 0 0 0-.219.131c-.402.64-.551 1.134-2.331 1.94a.273.273 0 1 0 .225.498c1.855-.84 2.196-1.556 2.568-2.147a.273.273 0 0 0-.243-.422zm1.877 2.062a.273.273 0 0 0-.229.11c-.459.6-.888.961-2.264 1.437-.353.115-.169.645.18.516 1.57-.574 2.093-1.067 2.518-1.622a.273.273 0 0 0-.205-.441z" style="line-height:normal;font-variant-ligatures:normal;font-variant-position:normal;font-variant-caps:normal;font-variant-numeric:normal;font-variant-alternates:normal;font-feature-settings:normal;text-indent:0;text-align:start;text-decoration-line:none;text-decoration-style:solid;text-decoration-color:#000;text-transform:none;text-orientation:mixed;white-space:normal;shape-padding:0;isolation:auto;mix-blend-mode:normal;solid-color:#000;solid-opacity:1" color="#000" font-weight="400" font-family="sans-serif" overflow="visible" fill="#4e4e4e" fill-rule="evenodd"/><circle cx="-160.771" cy="100.101" r="4.929" fill="#75c8ba" paint-order="fill markers stroke"/><circle cx="-160.771" cy="100.101" r="3.905" fill="#91dec4" paint-order="fill markers stroke"/><path d="M-160.773 100.267c-.024.114-.166.025-.19-.04-.067-.172.11-.325.268-.341.281-.03.492.235.493.498.003.385-.36.661-.727.645-.49-.022-.833-.486-.797-.957.045-.593.611-1.004 1.187-.949.697.068 1.176.737 1.1 1.417-.09.8-.863 1.348-1.646 1.251-.905-.11-1.52-.988-1.403-1.875.133-1.008 1.114-1.693 2.105-1.555.174.024.344.072.505.142" fill="none" stroke="#fff" stroke-width=".265" stroke-linecap="round" stroke-linejoin="round"/><path d="M-171.981 101.822c2.839 1.206 12.63 5.29 22.625-1.906-1.808 4.762-14.31 11.635-22.625 1.906z" fill="#e09465" fill-rule="evenodd"/><path d="M-172.045 101.904c3.267-2.397 11.014-10.437 22.808-1.897-4.665-7.097-15.263-10.902-22.808 1.897z" fill="#e09465" fill-rule="evenodd"/></g></svg>