<svg width="100" height="100" viewBox="0 0 100 100" xmlns="http://www.w3.org/2000/svg"><path d="M49.963 4.547C2.628 4.547 3 49.875 3 49.875h2.847c-.3 1.403-.51 3.047-.563 5.035-.315 12.084 9.196 11.225 9.196 11.225s9.404 29.316 35.49 29.316c26.086 0 35.492-29.316 35.492-29.316s9.509.86 9.194-11.225c-.052-1.988-.263-3.632-.563-5.035h2.908s.298-45.323-47.029-45.328h-.008z" fill="#483e37" stroke="#fff" stroke-width="6" stroke-linecap="round" stroke-linejoin="round" paint-order="stroke fill markers"/><g stroke-width="25"><path d="M85.46 66.136S76.055 95.451 49.97 95.451 14.478 66.136 14.478 66.136s-9.51.859-9.195-11.225c.315-12.085 6.15-12.418 6.15-12.418C14.743 4.784 49.969 4.548 49.969 4.548s35.226.236 38.537 37.945c0 0 5.834.333 6.15 12.418.314 12.084-9.196 11.225-9.196 11.225z" fill="#efbf9e"/><g transform="translate(.674 2.222) scale(.42297)"><circle cx="76.602" cy="133.891" r="16.011" fill="#fff"/><circle cx="76.602" cy="133.891" r="12.877" fill="#111"/></g><g transform="translate(.674 2.222) scale(.42297)"><circle cx="159.083" cy="133.891" r="16.011" fill="#fff"/><circle cx="159.083" cy="133.891" r="12.877" fill="#111"/></g><path d="M3 49.876h60.933L69.785 32.6l4.458 17.276H97s.298-45.328-47.037-45.328C2.63 4.548 3 49.876 3 49.876z" fill="#161414"/><path d="M74.11 75.376a25.62 25.62 0 0 1-3.213 7.454 36.455 36.455 0 0 1-1.392 2.107 12.654 12.654 0 0 1-2.041 2.228 14.282 14.282 0 0 1-1.323 1.014 18.881 18.881 0 0 1-4.404 2.183c-.211.076-.425.147-.639.216a26.545 26.545 0 0 1-2.99.763h-.002a31.04 31.04 0 0 1-3.44.478 37.554 37.554 0 0 1-6.092.019 18.11 18.11 0 0 1-.563-.049 39.208 39.208 0 0 1-5.21-.814 27.785 27.785 0 0 1-.955-.23c-.128-.03-.254-.063-.38-.096q-1.145-.305-2.245-.673-1.233-.415-2.308-.888l-.002-.002a21.509 21.509 0 0 1-1.245-.586 11.792 11.792 0 0 1-.423-.22q-.553-.293-1.057-.602a16.806 16.806 0 0 1-4.233-3.596c-2.497-3.012-3.14-6.213-3.443-8.378-.5-3.594.065-5.906 1.052-7.33a4.485 4.485 0 0 1 4.031-1.991c1.085.081 1.691.54 3.407 1.072.145.045.297.09.458.137a38.36 38.36 0 0 0 6.59 1.137c.266.029.545.055.83.084a119.682 119.682 0 0 0 6.606.403c.116.002.23.004.344.008a57.257 57.257 0 0 0 6.84-.244c.262-.025.52-.053.775-.082 2.489-.276 4.539-.683 6.288-1.046.263-.053.52-.108.77-.158 3.075-.64 5.2-1.043 7.261-.129a4.13 4.13 0 0 1 1.931 1.713c.875 1.484.985 3.621.417 6.098z" fill="#961b1b"/><g fill="#fff"><path d="M35.653 68.835a4.059 4.059 0 0 1-8.117 0 3.832 3.832 0 0 1 .026-.462 4.485 4.485 0 0 1 4.032-1.99c1.084.081 1.69.54 3.406 1.072.145.045.297.09.458.137a3.986 3.986 0 0 1 .195 1.244z"/><path d="M42.878 68.813v.022a4.059 4.059 0 0 1-8.118 0 4.08 4.08 0 0 1 .24-1.38c.145.045.297.09.458.137a38.36 38.36 0 0 0 6.59 1.138c.266.028.546.054.83.083z"/><path d="M49.926 70.107a4.013 4.013 0 0 1-.198 1.248 4.058 4.058 0 0 1-7.725-.004 3.996 3.996 0 0 1-.195-1.244 4.059 4.059 0 0 1 .24-1.378c.266.029.546.055.83.084a119.659 119.659 0 0 0 6.606.403c.116.002.23.004.344.008a3.956 3.956 0 0 1 .097.883z"/><path d="M57.553 69.84a3.989 3.989 0 0 1-.279 1.476 4.058 4.058 0 0 1-7.839-1.475 3.962 3.962 0 0 1 .05-.625c.115.002.229.004.343.008a57.257 57.257 0 0 0 6.84-.244c.263-.025.521-.053.775-.082a4.116 4.116 0 0 1 .11.943z"/><path d="M64.78 69.171a4.003 4.003 0 0 1-.29 1.502 4.058 4.058 0 0 1-7.828-1.502c0-.063.002-.128.006-.191.262-.025.521-.053.775-.082 2.489-.276 4.539-.683 6.288-1.046.263-.053.52-.108.77-.158a4.008 4.008 0 0 1 .279 1.477z"/><path d="M71.825 68.28a4.058 4.058 0 0 1-8.116 0 4.23 4.23 0 0 1 .022-.427l.77-.16c3.075-.638 5.2-1.041 7.261-.128a4.127 4.127 0 0 1 .063.715z"/></g><path d="m66.206 84.803-.393.87-.445.992-1.036 2.303s-1.146.495-2.662 1.085a50.11 50.11 0 0 1-.688.267c-.924.352-1.931.718-2.874 1.021h-.002a31.04 31.04 0 0 1-3.44.478 37.554 37.554 0 0 1-6.092.019 18.11 18.11 0 0 1-.563-.049 39.208 39.208 0 0 1-5.21-.814c-.293-.108-.594-.216-.896-.324-.14-.053-.28-.101-.42-.152-1.389-.495-2.736-.947-3.29-1.058a13.099 13.099 0 0 1-1.282-.353l-.002-.002a21.509 21.509 0 0 1-1.245-.586 11.792 11.792 0 0 1-.423-.22q-.553-.293-1.057-.602l.352-2.876a6.581 6.581 0 0 1 .735-1.025 8.132 8.132 0 0 1 7.383-2.855c5.664.67 5.352 1.16 8.564.535 3.211-.623 5.798-1.606 9.81-.132 2.581.946 3.983 2.112 4.653 2.824a3.888 3.888 0 0 1 .523.653z" fill="#d4180c"/><g fill="#fff"><path d="M67.464 87.165a14.282 14.282 0 0 1-1.323 1.014 18.881 18.881 0 0 1-4.404 2.183c-.211.076-.425.147-.639.216a2.948 2.948 0 0 1-.116-.258 3.592 3.592 0 0 1-.262-1.352 3.604 3.604 0 0 1 3.612-3.612 3.602 3.602 0 0 1 .954.128 3.311 3.311 0 0 1 .527.19 3.623 3.623 0 0 1 1.65 1.491z"/><path d="M70.897 82.83a36.455 36.455 0 0 1-1.392 2.107 12.654 12.654 0 0 1-2.041 2.228 14.282 14.282 0 0 1-1.323 1.014 3.597 3.597 0 0 1-.871-2.351c0-.116.006-.232.017-.344a3.57 3.57 0 0 1 .396-1.335 3.612 3.612 0 0 1 5.214-1.319zm-34.531 3.534a3.606 3.606 0 0 1-.7 2.136 11.792 11.792 0 0 1-.423-.22q-.553-.293-1.057-.602a16.806 16.806 0 0 1-4.233-3.596 3.612 3.612 0 0 1 6.405 2.05c.006.075.008.154.008.232z"/><path d="M42.432 88.773a3.598 3.598 0 0 1-.527 1.878 1.174 1.174 0 0 1-.059.094c-.128-.03-.254-.063-.38-.096q-1.145-.305-2.245-.673-1.233-.415-2.308-.888l-.002-.002a21.509 21.509 0 0 1-1.245-.586 11.792 11.792 0 0 1-.423-.22 3.611 3.611 0 0 1 7.18.233c.005.085.01.172.01.26z"/><path d="M48.678 90.975a3.657 3.657 0 0 1-.104.863 18.11 18.11 0 0 1-.563-.049 39.208 39.208 0 0 1-5.21-.814 29.914 29.914 0 0 1-.955-.23c-.128-.03-.254-.063-.38-.096.004-.05.01-.1.018-.15a3.613 3.613 0 0 1 7.194.476z"/><path d="M55.233 91.69c0 .026 0 .052-.002.077-.187.02-.376.038-.566.052a37.554 37.554 0 0 1-6.09.019 18.11 18.11 0 0 1-.564-.049c-.003-.033-.003-.065-.003-.1a3.612 3.612 0 0 1 7.225 0z"/><path d="M61.738 90.362c-.212.076-.426.147-.64.216a26.545 26.545 0 0 1-2.99.763h-.002a31.04 31.04 0 0 1-3.44.478 3.612 3.612 0 0 1 7.004-1.766 2.704 2.704 0 0 1 .067.31z"/></g><circle cx="195.459" cy="139.744" r="35.702" transform="rotate(-.985 69.29 796.545) scale(.42297)" fill="#fff" opacity=".12"/><path d="M54.875 56.789c-4.845-3.486-8.262-.04-8.405.108l-.547-.527c.04-.041 4.024-4.062 9.395-.198z" fill="#515151"/><path d="m71.983 43.962-9.5 28.182a14.898 14.898 0 0 0 6.083 1.804l9.354-27.754zM81.29 49.174 73.044 73.63a15.196 15.196 0 0 1-3.051.363c-.14.003-.273.005-.413-.005l9.168-27.206a14.885 14.885 0 0 1 2.54 2.392zM46.357 58.58a15.091 15.091 0 0 1-14.84 15.36c-.14.002-.273.004-.412-.006-.343.006-.68-.014-1.015-.04a14.898 14.898 0 0 1-6.083-1.804 15.103 15.103 0 0 1 6.991-28.349 14.784 14.784 0 0 1 2.508.166 14.964 14.964 0 0 1 5.938 2.233c.282.185.558.377.828.588a14.886 14.886 0 0 1 2.541 2.392 15.06 15.06 0 0 1 3.544 9.46z" fill="#fff" opacity=".12"/><path d="M69.978 74.478A15.48 15.48 0 1 1 85.19 58.733a15.498 15.498 0 0 1-15.212 15.745zm-.52-30.197A14.721 14.721 0 1 0 84.43 58.746a14.738 14.738 0 0 0-14.972-14.465z" fill="#515151"/><path d="m33.597 43.904-9.5 28.182a14.898 14.898 0 0 0 6.084 1.804l9.354-27.754zM42.904 49.116 34.66 73.572a15.195 15.195 0 0 1-3.051.363c-.14.003-.273.005-.413-.005l9.168-27.206a14.884 14.884 0 0 1 2.54 2.392z" fill="#fff" opacity=".12"/><path d="M31.524 74.319a15.48 15.48 0 1 1 15.212-15.745 15.498 15.498 0 0 1-15.212 15.745zm-.52-30.197a14.721 14.721 0 1 0 14.972 14.465 14.738 14.738 0 0 0-14.971-14.465z" fill="#515151"/></g></svg>