<svg width="100" height="100" viewBox="0 0 26.458 26.458" xmlns="http://www.w3.org/2000/svg"><path d="M4.824 23.808c-2.375 0-3.768-.593-3.827-.619a.368.368 0 0 1-.098-.61l21.736-19.48a1.764 1.764 0 0 1 1.18-.447 1.82 1.82 0 0 1 1.308.551 1.88 1.88 0 0 1 .541 1.368 1.697 1.697 0 0 1-.562 1.222l-5.27 4.723 2 2.232a.894.894 0 0 1-.037 1.247c-1.978 1.834-8.67 7.899-11.774 8.93a16.51 16.51 0 0 1-5.197.883z" fill="#5f5358" stroke="#fff" stroke-width="1.588" stroke-linecap="round" stroke-linejoin="round" paint-order="markers stroke fill"/><path d="M12.943 17.178v-.367q0-.419.171-.705.17-.29.607-.564.345-.218.495-.393.154-.175.154-.402 0-.179-.163-.281-.162-.107-.422-.107-.645 0-1.508.457l-.594-1.162q1.064-.607 2.221-.607.953 0 1.495.419.543.419.543 1.14 0 .517-.244.897-.239.376-.769.714-.448.29-.563.427-.112.132-.112.316v.218zm-.184 1.495q0-.393.227-.607.23-.213.675-.213.427 0 .653.218.23.213.23.602t-.238.602q-.235.214-.645.214-.423 0-.662-.21-.24-.213-.24-.606z" fill="#fff" stroke-width=".219"/></svg>