<svg data-name="Layer 1" viewBox="0 0 100 100" width="100" height="100" xmlns="http://www.w3.org/2000/svg"><path d="M49.872 6.601a1.408 1.408 0 0 0-1.407 1.404V20.28c-.987.04-1.961.128-2.923.256l-.825-6.113a1.412 1.412 0 0 0-1.582-1.205 1.403 1.403 0 0 0-.93.543 1.394 1.394 0 0 0-.275 1.04l.84 6.23a32.395 32.395 0 0 0-12.219 5.58l-13.697-15.08a1.41 1.41 0 0 0-1.986-.093 1.406 1.406 0 0 0-.094 1.984l13.584 14.955a32.486 32.486 0 0 0-2.865 2.853l-4.133-3.755a1.39 1.39 0 0 0-1.012-.362 1.398 1.398 0 0 0-.974.46 1.39 1.39 0 0 0-.364 1.011 1.391 1.391 0 0 0 .46.973l4.245 3.853a32.527 32.527 0 0 0-2.265 3.49l-1.315-.955a1.401 1.401 0 0 0-1.046-.25 1.398 1.398 0 0 0-.917.563 1.403 1.403 0 0 0-.251 1.047 1.398 1.398 0 0 0 .562.914l1.678 1.218a32.28 32.28 0 0 0-1.856 5.268L4.608 42.756a1.4 1.4 0 0 0-1.043.266 1.392 1.392 0 0 0-.55.928 1.388 1.388 0 0 0 .269 1.043 1.394 1.394 0 0 0 .924.547l13.513 1.924a32.793 32.793 0 0 0-.441 4.959l-5.215.256a1.395 1.395 0 0 0-.97.463 1.39 1.39 0 0 0-.364 1.011 1.402 1.402 0 0 0 1.402 1.338l5.23-.256a32.299 32.299 0 0 0 1.474 7.569v.004L8.583 66.855a1.407 1.407 0 0 0-.791 1.824 1.393 1.393 0 0 0 1.306.886 1.373 1.373 0 0 0 .516-.097l10.2-4.024a32.46 32.46 0 0 0 3.017 5.584l-2.69 1.637a1.408 1.408 0 0 0-.469 1.93 1.4 1.4 0 0 0 1.204.676 1.44 1.44 0 0 0 .73-.204l2.906-1.771a32.535 32.535 0 0 0 14.634 10.252l1.067 2.182a.192.192 0 0 0 .084.085l4.949 2.563 1.18.61 1.435.742 1.186.613 5.91 3.056h7.576l8.974-5.244 1.061-.62 4.799-2.805 1.062-.62 7.922-4.63a.675.675 0 0 0 .25-.9l-6.908-12.692a32.645 32.645 0 0 0 .275-.532l10.42 4.112a1.384 1.384 0 0 0 .516.097 1.398 1.398 0 0 0 1.309-.89 1.406 1.406 0 0 0-.793-1.82l-10.484-4.137a32.16 32.16 0 0 0 1.444-7.496l5.408.265.078.004a1.405 1.405 0 0 0 1.406-1.338 1.39 1.39 0 0 0-.363-1.011 1.408 1.408 0 0 0-.975-.463l-5.474-.268a31.787 31.787 0 0 0-.434-4.912l13.766-1.959a1.4 1.4 0 0 0 .927-.547 1.4 1.4 0 0 0 .266-1.043 1.385 1.385 0 0 0-.55-.928 1.392 1.392 0 0 0-1.038-.265l-13.95 1.986a32.025 32.025 0 0 0-1.802-5.16l1.871-1.363a1.398 1.398 0 0 0 .563-.914 1.39 1.39 0 0 0-.252-1.047 1.404 1.404 0 0 0-1.963-.313l-1.496 1.086a32.126 32.126 0 0 0-2.237-3.476l4.4-4a1.376 1.376 0 0 0 .458-.971 1.39 1.39 0 0 0-.363-1.012 1.407 1.407 0 0 0-1.987-.097l-4.277 3.882a32.123 32.123 0 0 0-2.834-2.851l13.697-15.084a1.392 1.392 0 0 0 .365-1.012 1.392 1.392 0 0 0-.459-.973 1.392 1.392 0 0 0-1.011-.365 1.405 1.405 0 0 0-.975.46l-13.797 15.19a32.484 32.484 0 0 0-12.129-5.636l.85-6.285a1.38 1.38 0 0 0-.273-1.041 1.396 1.396 0 0 0-.932-.543 1.405 1.405 0 0 0-1.578 1.205l-.83 6.148a32.18 32.18 0 0 0-3.178-.29V8.004A1.408 1.408 0 0 0 49.872 6.6zm-1.407 16.495v4.525a1.448 1.448 0 0 0 1.266 1.463 1.406 1.406 0 0 0 1.547-1.397v-4.591c.947.043 1.88.132 2.799.265l-.004.018-.537 3.975a1.398 1.398 0 0 0 .275 1.039 1.394 1.394 0 0 0 .932.54 1.092 1.092 0 0 0 .203.01 1.4 1.4 0 0 0 1.377-1.212l.516-3.827.003-.015a29.553 29.553 0 0 1 10.606 4.925l-.006.008-5.363 5.905a1.413 1.413 0 0 0-.367 1.015 1.398 1.398 0 0 0 .46.97 1.413 1.413 0 0 0 .946.366 1.412 1.412 0 0 0 1.04-.459l5.473-6.03.008-.005c.085.075.168.15.252.234a26.256 26.256 0 0 1 2.022 2.022c.13.134.252.27.37.408l-.005.006-4.77 4.334a1.391 1.391 0 0 0-.459.973 1.405 1.405 0 0 0 .366 1.011 1.404 1.404 0 0 0 1.039.463 1.406 1.406 0 0 0 .943-.367l4.637-4.21.004-.003a29.941 29.941 0 0 1 2.039 3.242l-.006.004-.99.72a1.381 1.381 0 0 0-.563.919 1.394 1.394 0 0 0 .25 1.047 1.41 1.41 0 0 0 1.139.578 1.408 1.408 0 0 0 .826-.268l.578-.422.006-.004a29.122 29.122 0 0 1 1.326 3.872h-.006a27.612 27.612 0 0 1 .596 2.752h.01a29.68 29.68 0 0 1 .406 4.375h-.006a29.018 29.018 0 0 1-.078 2.81h.006a28.215 28.215 0 0 1-.381 3.006.621.621 0 0 1-.014.074c-.034.21-.075.419-.119.625a1.631 1.631 0 0 1-.037.17c-.028.163-.066.324-.103.486-.029.132-.06.26-.09.39-.028.124-.059.244-.09.366-.053.213-.11.43-.172.639a.363.363 0 0 1-.016.062 30.98 30.98 0 0 1-.226.766.044.044 0 0 1-.006.018 29.785 29.785 0 0 1-.395.955L67.506 43.499a.67.67 0 0 0-.98-.228l-.361.257c-.854-.617-2.006-1.242-2.973-.97-1.545.434-16.125 10.802-19.621 13.298a1.397 1.397 0 0 1-1.533.061c-2.355-1.414-9.368-5.48-11.955-5.344-2.632.139-4.293 2.348-4.78 3.08l-.498-.224a.192.192 0 0 0-.254.258L37.28 79.731a29.784 29.784 0 0 1-16.469-20.357 17.597 17.597 0 0 1-.123-.584 28.83 28.83 0 0 1-.516-3.695h.006a29.36 29.36 0 0 1-.078-2.813h-.006a29.43 29.43 0 0 1 .413-4.42h.01l.681.1a1.408 1.408 0 0 0 1.59-1.197 1.521 1.521 0 0 0 .015-.203 1.407 1.407 0 0 0-1.209-1.387l-.478-.069h-.006a29.263 29.263 0 0 1 1.377-3.974l.006.004.775.562a1.4 1.4 0 0 0 .824.268 1.406 1.406 0 0 0 1.14-.578 1.41 1.41 0 0 0 .251-1.047 1.405 1.405 0 0 0-.562-.918l-1.174-.856-.006-.004a29.022 29.022 0 0 1 2.068-3.248l.002.002 4.79 4.352a1.405 1.405 0 0 0 .945.367 1.41 1.41 0 0 0 1.043-.463 1.403 1.403 0 0 0 .36-1.011 1.391 1.391 0 0 0-.458-.973l-4.914-4.465-.004-.002c.084-.094.167-.187.258-.281a26.823 26.823 0 0 1 2.021-2.022c.131-.125.262-.243.393-.359l.006.006 5.59 6.154a1.424 1.424 0 0 0 1.043.46 1.406 1.406 0 0 0 .943-.366 1.398 1.398 0 0 0 .459-.97 1.41 1.41 0 0 0-.361-1.016l-5.467-6.022-.008-.006a29.606 29.606 0 0 1 10.7-4.873l.001.018.522 3.865a1.415 1.415 0 0 0 1.369 1.234 1.294 1.294 0 0 0 .219-.01 1.396 1.396 0 0 0 1.021-.683 1.465 1.465 0 0 0 .174-.947l-.533-3.957-.004-.024a28.488 28.488 0 0 1 2.547-.226z" fill="#cca529" stroke="#fff" stroke-width="6" stroke-linecap="round" stroke-linejoin="round" paint-order="stroke fill markers"/><path d="M96.986 43.95a1.385 1.385 0 0 0-.55-.928 1.392 1.392 0 0 0-1.037-.265l-13.95 1.987a32.025 32.025 0 0 0-1.802-5.162l1.871-1.362a1.398 1.398 0 0 0 .563-.915 1.39 1.39 0 0 0-.254-1.047 1.404 1.404 0 0 0-1.962-.312l-1.496 1.087a32.126 32.126 0 0 0-2.237-3.477l4.402-4a1.376 1.376 0 0 0 .456-.97 1.39 1.39 0 0 0-.362-1.013 1.407 1.407 0 0 0-1.987-.097l-4.277 3.884a32.123 32.123 0 0 0-2.834-2.853l13.697-15.083a1.392 1.392 0 0 0 .365-1.013 1.392 1.392 0 0 0-.46-.971 1.392 1.392 0 0 0-1.011-.366 1.405 1.405 0 0 0-.975.46l-13.797 15.19a32.484 32.484 0 0 0-12.128-5.637l.85-6.286a1.38 1.38 0 0 0-.275-1.04 1.396 1.396 0 0 0-.93-.544 1.405 1.405 0 0 0-1.579 1.206l-.83 6.149a32.178 32.178 0 0 0-3.178-.29V8.005A1.408 1.408 0 0 0 49.873 6.6a1.408 1.408 0 0 0-1.406 1.406v12.275a31.98 31.98 0 0 0-2.924.256l-.825-6.114a1.412 1.412 0 0 0-1.58-1.206 1.403 1.403 0 0 0-.932.544 1.394 1.394 0 0 0-.275 1.04l.84 6.23a32.395 32.395 0 0 0-12.218 5.58L16.857 11.533a1.41 1.41 0 0 0-1.987-.093 1.407 1.407 0 0 0-.094 1.984L28.36 28.379a32.485 32.485 0 0 0-2.865 2.852l-4.133-3.755a1.39 1.39 0 0 0-1.013-.362 1.398 1.398 0 0 0-.974.46 1.39 1.39 0 0 0-.363 1.011 1.392 1.392 0 0 0 .46.972l4.245 3.855a32.527 32.527 0 0 0-2.265 3.49l-1.315-.956a1.402 1.402 0 0 0-1.047-.25 1.398 1.398 0 0 0-.915.562 1.403 1.403 0 0 0-.253 1.047 1.398 1.398 0 0 0 .562.915l1.678 1.219a32.28 32.28 0 0 0-1.856 5.267L4.61 42.756a1.4 1.4 0 0 0-1.044.266 1.392 1.392 0 0 0-.55.928 1.388 1.388 0 0 0 .27 1.044 1.393 1.393 0 0 0 .924.546l13.512 1.925a32.793 32.793 0 0 0-.44 4.958l-5.215.256a1.395 1.395 0 0 0-.971.463 1.39 1.39 0 0 0-.363 1.012 1.402 1.402 0 0 0 1.403 1.337l5.23-.256a32.299 32.299 0 0 0 1.471 7.57v.003L8.584 66.854a1.407 1.407 0 0 0-.79 1.824 1.393 1.393 0 0 0 1.305.887 1.373 1.373 0 0 0 .516-.096l10.2-4.024a32.46 32.46 0 0 0 3.018 5.583l-2.69 1.637a1.408 1.408 0 0 0-.468 1.93 1.4 1.4 0 0 0 1.202.676 1.44 1.44 0 0 0 .732-.204l2.905-1.771a32.535 32.535 0 0 0 25.36 12.14 32.645 32.645 0 0 0 30.095-20.079l10.419 4.112a1.384 1.384 0 0 0 .515.097 1.398 1.398 0 0 0 1.31-.89 1.406 1.406 0 0 0-.794-1.822l-10.482-4.137a32.159 32.159 0 0 0 1.443-7.494l5.408.265.079.003a1.405 1.405 0 0 0 1.405-1.337 1.39 1.39 0 0 0-.362-1.012 1.408 1.408 0 0 0-.975-.463l-5.473-.268a31.787 31.787 0 0 0-.435-4.911l13.766-1.96a1.4 1.4 0 0 0 .928-.546 1.4 1.4 0 0 0 .265-1.044zM79.65 52.86c0 .747-.028 1.49-.084 2.222h.006a28.198 28.198 0 0 1-.381 3.005.621.621 0 0 1-.013.075c-.034.21-.075.419-.119.625a1.63 1.63 0 0 1-.037.169 9.023 9.023 0 0 1-.103.487c-.028.131-.06.26-.09.387-.029.125-.06.247-.091.37-.053.212-.11.427-.172.636a.363.363 0 0 1-.016.063c-.072.256-.147.512-.225.765a.044.044 0 0 1-.006.02 29.785 29.785 0 0 1-28.446 20.953 29.784 29.784 0 0 1-29.061-23.263 17.578 17.578 0 0 1-.122-.584 28.829 28.829 0 0 1-.515-3.696h.006q-.085-1.106-.085-2.234c0-.193.004-.387.007-.578h-.007a29.43 29.43 0 0 1 .413-4.42h.01l.68.1a1.408 1.408 0 0 0 1.59-1.197 1.521 1.521 0 0 0 .016-.203 1.407 1.407 0 0 0-1.209-1.387l-.478-.069h-.006a29.263 29.263 0 0 1 1.378-3.974l.006.003.775.563a1.4 1.4 0 0 0 .824.268 1.406 1.406 0 0 0 1.138-.578 1.41 1.41 0 0 0 .253-1.046 1.405 1.405 0 0 0-.563-.919l-1.174-.856-.007-.003a29.022 29.022 0 0 1 2.069-3.25l.003.004 4.79 4.352a1.406 1.406 0 0 0 .943.365 1.41 1.41 0 0 0 1.043-.462 1.403 1.403 0 0 0 .362-1.012 1.391 1.391 0 0 0-.459-.972l-4.914-4.464-.003-.003c.084-.094.165-.188.256-.282a26.823 26.823 0 0 1 2.021-2.02c.132-.126.263-.245.394-.36l.006.006 5.59 6.155a1.424 1.424 0 0 0 1.043.459 1.406 1.406 0 0 0 .943-.366 1.398 1.398 0 0 0 .46-.971 1.41 1.41 0 0 0-.363-1.016l-5.467-6.02-.006-.006a29.606 29.606 0 0 1 10.697-4.874l.003.019.522 3.865a1.415 1.415 0 0 0 1.368 1.234 1.294 1.294 0 0 0 .219-.01 1.396 1.396 0 0 0 1.021-.684 1.465 1.465 0 0 0 .175-.947l-.534-3.958-.003-.022a28.44 28.44 0 0 1 2.546-.228v4.527a1.448 1.448 0 0 0 1.266 1.462 1.406 1.406 0 0 0 1.546-1.396v-4.593q1.42.066 2.8.266l-.004.018-.537 3.974a1.398 1.398 0 0 0 .275 1.04 1.394 1.394 0 0 0 .93.541 1.092 1.092 0 0 0 .204.01 1.399 1.399 0 0 0 1.378-1.213l.515-3.827.003-.015a29.552 29.552 0 0 1 10.607 4.926l-.006.007-5.365 5.904a1.413 1.413 0 0 0-.365 1.016 1.397 1.397 0 0 0 .46.971 1.413 1.413 0 0 0 .946.366 1.412 1.412 0 0 0 1.04-.46l5.474-6.029.006-.006c.084.075.169.15.253.234a26.255 26.255 0 0 1 2.021 2.021c.132.135.253.272.372.41l-.006.006-4.77 4.333a1.391 1.391 0 0 0-.46.972 1.405 1.405 0 0 0 .366 1.012 1.404 1.404 0 0 0 1.04.462 1.406 1.406 0 0 0 .943-.365l4.637-4.211.003-.004a29.941 29.941 0 0 1 2.04 3.243l-.006.003-.99.722a1.38 1.38 0 0 0-.563.919 1.394 1.394 0 0 0 .25 1.046 1.41 1.41 0 0 0 1.137.578 1.408 1.408 0 0 0 .828-.268l.578-.422.006-.003a29.122 29.122 0 0 1 1.325 3.87h-.006a27.612 27.612 0 0 1 .596 2.753h.01a29.68 29.68 0 0 1 .406 4.374h-.006c.003.197.006.394.006.59z" fill="#cca529"/><path d="M25.088 53.978s1.866-3.24 4.996-3.405c2.587-.136 9.601 3.93 11.956 5.344a1.397 1.397 0 0 0 1.533-.06c3.496-2.496 18.075-12.865 19.62-13.3 1.757-.494 4.173 1.977 4.173 1.977l6.149 27.677S42.218 70.188 41.23 69.66l-6.26-3.351z" fill="#e0e0e0"/><path d="m86.35 79.48-7.92 4.63-1.063.62-4.799 2.805-1.06.62-8.975 5.245-8.071-6.814-12.353-26.458 2.306-1.085 7.643-5.453 1.08-.768 4.481-3.197 1.077-.768 7.832-5.586a.67.67 0 0 1 .98.228L86.6 78.579a.675.675 0 0 1-.25.901zM54.958 93.4l-5.91-3.058-1.185-.612-1.435-.743-1.18-.61-4.95-2.562a.192.192 0 0 1-.083-.086l-15.66-32.042a.192.192 0 0 1 .252-.259l4.591 2.067.87.393 1.64.737.873.392 5.047 2.273 6.477 6.736z" fill="#212020"/><path d="M44.415 59.043 62.534 93.4h-7.577L37.826 59.29s3.22-2.641 6.589-.247zm25.04 5.301 5.108-1.222-3.804 3.622a6.163 6.163 0 0 0-1.744 5.898l1.222 5.11-3.622-3.805a6.163 6.163 0 0 0-5.898-1.744l-5.11 1.222 3.805-3.622a6.163 6.163 0 0 0 1.744-5.898l-1.222-5.109 3.622 3.804a6.163 6.163 0 0 0 5.898 1.744z" fill="#0f0f11"/><path d="M71.743 68.596a1.277 1.277 0 0 1-.757.136 1.877 1.877 0 0 0 1.696.05c1.16-.63 1.23-2.745.155-4.722-1.075-1.977-2.886-3.068-4.047-2.437-.677.368-.983 1.24-.907 2.293a1.499 1.499 0 0 1 .705-1.125c.94-.51 2.41.373 3.281 1.976s.814 3.318-.126 3.829zm-9.887 5.374a1.277 1.277 0 0 0 .526-.561 1.877 1.877 0 0 1-.88 1.45c-1.16.631-2.973-.461-4.047-2.438-1.075-1.977-1.005-4.09.156-4.721.676-.368 1.574-.151 2.418.485a1.499 1.499 0 0 0-1.328-.02c-.94.512-.998 2.225-.126 3.829s2.341 2.487 3.281 1.976zm9.65 14.185-19.45-34.566 1.079-.768 19.43 34.713zm5.859-3.425L57.617 49.624l1.077-.767 19.734 35.252zm-29.505 5L31.904 56.623l.874.393 16.267 33.325zm-2.615-1.353-15.85-32.882.87.392 16.16 33.1z" fill="#0f0f11"/></svg>