<svg data-name="Layer 1" viewBox="0 0 100 100" width="100" height="100" xmlns="http://www.w3.org/2000/svg"><path d="M5.166 18.608c-1.155 0-1.205 2.002-1.205 2.002v4.343h-.426a.538.538 0 0 0-.337.143.538.538 0 0 0-.059.058.538.538 0 0 0-.139.34v6.389a.537.537 0 0 0 .141.334.537.537 0 0 0 .06.058.537.537 0 0 0 .334.14h.426v3.646a1.802 1.802 0 0 0 .217.804 1.802 1.802 0 0 0 .072.143 1.802 1.802 0 0 0 .57.568 1.802 1.802 0 0 0 .135.067 1.802 1.802 0 0 0 .811.216h26.995s-.02 1.617-.04 3.809c-.003.96-.01 2.03-.01 3.125 0 3.578 2.335 5.523 6.626 6.28 4.29.752 4.36 1.75 5.008 5.29.654 3.542 1.887 5.426 9.234 6.598 7.351 1.168 9.121-.666 10.164-2.604a6.97 6.97 0 0 1 1.446-1.85 5.128 5.128 0 0 1 1.135-.794 7.222 7.222 0 0 1 .03-.016 7.222 7.222 0 0 1 1.25-.543c7.594-2.44 7.44 14.548 5.946 19.716-1.57 5.444 23.948 7.115 23.444-1.5-.498-8.62-6.876-23.346-10.546-27.315-3.666-3.97-5.884-7.623-5.313-9.692.567-2.073.949-4.358-1.506-4.213a10.4 10.4 0 0 1-2.463-.11v-.005a3.091 3.091 0 0 1-.888-.262l-.008.002a.01.01 0 0 1 .008-.004l-.08-.011a4.635 4.635 0 0 1-.432-.082.987.987 0 0 1-.143-.03 17.12 17.12 0 0 1-3.368-1.072c-1.016-.788-1.937-1.963-2.273-3.72-.268-1.402.975-1.842 2.092-3.307 1.111-1.466 2.554-1.118 2.877-1.53.327-.418-.05-1.11-1.797-1.11a4.144 4.144 0 0 0-3.37 1.672c-.605.754-2.309 1.368-4.382.796-.693-.19-1.29-.686-1.78-1.259a16.648 16.648 0 0 1-1.166-2.916l-.01-.033v-2a.455.455 0 0 0-.452-.453h-2.169a.775.775 0 0 0-.637.33l-1.385 1.965H15.787l-7.75-2.403Zm47.677 32.158a23.393 23.393 0 0 1 2.48.029 8.35 8.35 0 0 1 .12 3.865c-.48 2.624-2.726 3.576-2.885 3.957-.159.381 3.153.512 5.025-2.223a10.99 10.99 0 0 0 1.77-4.81 13.486 13.486 0 0 1 .016.004 4.88 4.88 0 0 1 .765.383c.066.046.133.099.195.148 3.503 2.812.29 8.02-1.77 8.652v-.002c-2.104.64-6.726-.224-8.858-1.253-2.133-1.03-3.13-3.753-2.713-6.14.419-2.386 4.469-2.61 5.855-2.61z" fill="#7a3e1b" stroke="#fff" stroke-width="6.000119999999999" stroke-linecap="round" stroke-linejoin="round" paint-order="stroke fill markers"/><g transform="translate(-204.453 -640.499) scale(.36034)"><path d="M771.503 1990.815c4.142-14.34 4.57-61.488-16.505-54.715a20.043 20.043 0 0 0-3.55 1.549s-6.459-10.11-7.34-26.338c-.869-16.24 17.978-40.702 28.251-38.386l6.71-1.712a8.58 8.58 0 0 0 2.468.73v.013a28.864 28.864 0 0 0 6.836.302c6.812-.403 5.754 5.943 4.18 11.696-1.586 5.741 4.57 15.876 14.743 26.892 10.185 11.016 27.886 51.882 29.27 75.803 1.398 23.908-69.419 19.275-65.063 4.167z" fill="#7a3e1b"/><path d="M781.537 1871.943v.013s-18.658 13.018-25.04 31.273c-3.942 11.243-2.884 24.411-1.5 32.872a20.043 20.043 0 0 0-3.55 1.548s-6.458-10.11-7.34-26.337c-.868-16.241 17.98-40.703 28.252-38.387l6.71-1.712a8.58 8.58 0 0 0 2.468.73z" fill="#663014"/><path d="M776.272 1871.818c-28.277-5.904-36.082-32.821-36.548-34.533.377.931 3.726 9.127 9.165 10.625 5.754 1.587 10.487-.113 12.162-2.203a11.5 11.5 0 0 1 9.354-4.645c4.847 0 5.892 1.926 4.986 3.084-.894 1.146-4.898.176-7.982 4.243-3.098 4.066-6.547 5.288-5.804 9.178 1.75 9.14 9.165 12.653 13.433 13.924.453.139.869.24 1.234.327zm-33.282 39.934s-.925 7.531-10.658 6.503a30.496 30.496 0 0 1-5.139 15.738c-5.197 7.59-14.387 7.223-13.946 6.166.44-1.057 6.672-3.697 8.008-10.979a23.17 23.17 0 0 0-.853-12.374s-5.409-1.53-6.377-9.84c0 0 19.495-1.072 28.965 4.786z" fill="#757575"/><path d="M778.85 1871.177c-.23-.028-.642-.1-1.2-.229a2.74 2.74 0 0 1-.394-.082 47.508 47.508 0 0 1-9.38-2.986c-.01 0-.01 0-.019-.01-12.98-5.698-20.208-16.095-23.89-23.414a46.201 46.201 0 0 1-3.252-8.125 2.977 2.977 0 0 0-.027-.092v-5.552a1.263 1.263 0 0 0-1.255-1.255h-6.018a2.15 2.15 0 0 0-1.768.916l-3.839 5.451H611.205l-21.509-6.669h-7.969c-3.206 0-3.344 5.56-3.344 5.56v12.046h-1.181a1.493 1.493 0 0 0-1.484 1.503v17.725a1.49 1.49 0 0 0 1.484 1.484h1.181v10.113a5.002 5.002 0 0 0 5.011 4.993h74.914s-.055 4.488-.11 10.57c-.01 2.667-.027 5.635-.027 8.676 0 9.93 6.477 15.325 18.385 17.423 11.909 2.089 12.101 4.855 13.897 14.684 1.814 9.83 5.24 15.06 25.63 18.312 20.4 3.243 25.311-1.85 28.206-7.228a19.34 19.34 0 0 1 4.012-5.139 14.231 14.231 0 0 1 3.151-2.198c-10.214-43.879 26.584-65.836 27.6-66.432a.028.028 0 0 1 .018-.01zm-48.954 74.96c-5.835 1.777-18.66-.623-24.577-3.48-5.918-2.859-8.684-10.416-7.53-17.039 1.163-6.623 12.403-7.246 16.25-7.246a64.92 64.92 0 0 1 6.898.083 37.426 37.426 0 0 1 11.213 2.198 13.542 13.542 0 0 1 2.125 1.063c.183.128.366.275.54.412 9.72 7.805.797 22.251-4.919 24.01z" fill="#504f53"/><path d="M772.942 1900.54c-3.467 3.07-10.15 15.85-.696 30.864 9.454 15.015 11.214 37.399 9.291 49.077-1.922 11.679 18.654 14.181 33.53 10.983 14.876-3.197 11.122-23.773 2.78-45.462-8.341-21.688-31.559-57.28-44.905-45.462z" fill="#8a4a24"/><circle cx="779.068" cy="1913.701" r="5.746" fill="#7a3e1b"/><circle cx="814.288" cy="1979.508" r="5.746" fill="#7a3e1b"/><path data-name="gr" d="M673.992 1850.763a2.047 2.047 0 0 0-2.048 2.048v42.258a2.048 2.048 0 0 0 2.048 2.048h38.252a14.408 14.408 0 0 0 11.36-5.444 28.309 28.309 0 0 0 5.99-17.807c0-8.307-2.277-13.777-4.826-17.298a14.332 14.332 0 0 0-11.641-5.806z" fill="#757575"/><path d="M680.465 1857.72h24.862a6.674 6.674 0 0 1 6.674 6.674 6.674 6.674 0 0 1-6.674 6.674h-24.862a1.044 1.044 0 0 1-1.044-1.044v-11.26a1.044 1.044 0 0 1 1.044-1.044zm0 17.408h24.862a6.674 6.674 0 0 1 6.674 6.675 6.674 6.674 0 0 1-6.674 6.674h-24.862a1.044 1.044 0 0 1-1.044-1.044v-11.26a1.044 1.044 0 0 1 1.044-1.045z" fill="#5f5f5f"/><path d="M658.335 1846.737v20.712h-81.134a1.49 1.49 0 0 1-1.484-1.484v-17.725a1.493 1.493 0 0 1 1.484-1.503zm0 25.677-.027 10.14h-74.914a5.002 5.002 0 0 1-5.011-4.992v-5.148z" fill="#5c5b60"/></g></svg>