<svg width="100" height="100" viewBox="0 0 26.458 26.458" xmlns="http://www.w3.org/2000/svg"><path d="M13.23.797c-6.003 0-10.87 4.849-10.87 10.83 0 3.172 1.368 6.024 3.549 8.005h-.063v.79H5.47a.534.534 0 0 0-.1.01h-.003a.456.456 0 0 0-.084.026l-.018.008a.495.495 0 0 0-.09.052l-.013.01a.495.495 0 0 0-.02.017l-.007.006a.5.5 0 0 0-.038.038l-.003.004-.02.023-.002.003a.498.498 0 0 0-.103.304v.191c0 .276.225.502.501.502h-.024s.097.975-.572 1.477h-.048c-.1 0-.195.016-.285.045h-.027s-.274.093-.314.2h.003a.917.917 0 0 0-.296.674v.736a.922.922 0 0 0 .92.92h16.794a.922.922 0 0 0 .92-.92v-.736a.916.916 0 0 0-.274-.653.557.557 0 0 0-.32-.206.91.91 0 0 0-.326-.06h-.116c-.187-.162-.426-.548-.504-1.477h-.024a.503.503 0 0 0 .502-.502v-.191a.498.498 0 0 0-.104-.304l-.002-.003a.518.518 0 0 0-.02-.024h-.001a.5.5 0 0 0-.04-.04l-.006-.007a.49.49 0 0 0-.02-.017l-.012-.008a.497.497 0 0 0-.196-.088.55.55 0 0 0-.043-.007l-.013-.001a.536.536 0 0 0-.045-.002h-.26l.016-.8h-.172a10.783 10.783 0 0 0 3.537-7.995c0-5.981-4.866-10.83-10.87-10.83z" fill="#fff" stroke="#fff" stroke-width="1.588704" stroke-linejoin="round"/><path d="M24.09 11.618c0 5.982-4.866 10.83-10.87 10.83-6.003 0-10.87-4.848-10.87-10.83C2.35 5.637 7.217.788 13.22.788c6.004 0 10.87 4.849 10.87 10.83" fill="#b7e5ff"/><path d="m20.725 19.613-14.889.01v1.984h-.398s.097.975-.573 1.477h-.047a.922.922 0 0 0-.92.92v.735c0 .506.414.92.92.92h16.795c.506 0 .92-.414.92-.92v-.736a.922.922 0 0 0-.92-.92h-.116c-.187-.16-.426-.547-.504-1.476h-.305z" fill="#cc803d"/><path d="M20.97 21.607H5.462a.503.503 0 0 1-.502-.501v-.192c0-.275.226-.501.502-.501H20.97c.276 0 .501.226.501.501v.192a.503.503 0 0 1-.501.501" fill="#bf7839"/><path d="M4.506 23.13s-.275.093-.314.2l18.073.03s-.133-.23-.518-.243z" fill="#e69045"/><path d="M19.531 11.686c0-2.98-2.825-6.283-6.31-6.283-3.486 0-6.311 3.304-6.311 6.283 0 2.1 1.405 3.302 3.455 3.83a.816.816 0 0 0-.082.356.821.821 0 0 0 .822.821.82.82 0 0 0 .705-.401.82.82 0 0 0 .705.401.821.821 0 0 0 .706-.401.82.82 0 0 0 .705.401.82.82 0 0 0 .705-.401.82.82 0 0 0 .705.401.822.822 0 0 0 .822-.821.818.818 0 0 0-.082-.356c2.05-.528 3.455-1.73 3.455-3.83" fill="#f0f0f0"/><path d="M13.22 5.403v10.89-.001a.82.82 0 0 0 .706.401.821.821 0 0 0 .705-.401.82.82 0 0 0 .706.401.822.822 0 0 0 .821-.821.82.82 0 0 0-.081-.356c2.05-.528 3.454-1.73 3.454-3.83 0-2.979-2.825-6.283-6.31-6.283z" fill="#fafafa"/><path d="M13.537 14.98h.543l-.86-1.535-.859 1.536h.543l.317-.264z" fill="#4b4b4b" stroke="#4b4b4b" stroke-width=".275621" stroke-linejoin="round"/><path d="M17.468 12.237a1.719 1.719 0 1 1-3.437 0 1.719 1.719 0 0 1 3.437 0M12.41 12.237a1.719 1.719 0 1 1-3.437 0 1.719 1.719 0 0 1 3.437 0" fill="#4b4b4b"/><g stroke="#f0f0f0" fill="none" stroke-width="1.528" stroke-linecap="round"><path d="M16.108 6.291c-.302.206-.872.745-.872.745l.491.792-.348.333M15.188 7.052l-.697-.095" stroke-linejoin="round" stroke-width=".20131400000000002"/></g><path d="M9.694 2.193C3.886 6.979 3.301 14.116 5.65 17.79c-.47-.062-6.773-8.752 4.044-15.597" opacity=".4" fill="#e3f5ff"/><path d="M5.462 20.412c-.184 0-.345.1-.432.25h16.372a.502.502 0 0 0-.432-.25z" fill="#e69045" paint-order="markers fill stroke"/></svg>