<svg data-name="Layer 1" viewBox="0 0 100 100" width="100" height="100" xmlns="http://www.w3.org/2000/svg"><path d="M96.501 9.215a.513.513 0 0 0-.103.01l-40.097 8.189a7.758 7.758 0 0 0-2.918 1.262L31.289 34.254a7.758 7.758 0 0 0-3.041 4.4L22.351 61.49l-.617-.023a.696.696 0 0 0-.664.414l-4.662 10.498a.696.696 0 0 0 .006.517L3.441 84.322c-.643.33-.562 1.588.117 1.77 2.904.777 8.653 2.09 17.452 3.133a247.574 247.574 0 0 0 28.906 1.558c.407 0 .809 0 1.209-.004.312 0 .624-.004.933-.008a296.33 296.33 0 0 0 5.54-.086c.403-.01.807-.022 1.206-.033.477-.014.952-.032 1.42-.047.447-.018.891-.033 1.334-.054a97.9 97.9 0 0 0 1.823-.08c.28-.011.555-.026.828-.037.403-.022.799-.043 1.195-.069.33-.014.661-.036.984-.055.335-.021.666-.04.993-.058.312-.026.628-.043.937-.065.636-.043 1.259-.087 1.87-.134l.784-.059.163-.014c.287-.021.574-.048.857-.074a.751.751 0 0 0 .129-.01 95.526 95.526 0 0 0 1.617-.142c.749-.07 1.481-.137 2.197-.213.375-.04.742-.081 1.106-.121.53-.055 1.05-.112 1.558-.174l.76-.088c.25-.033.499-.061.742-.094.396-.047.785-.1 1.162-.15.171-.018.335-.043.498-.064.302-.044.593-.084.887-.124.316-.043.629-.087.938-.134.221-.03.436-.064.65-.096.433-.062.851-.13 1.262-.195.014-.003.032-.004.047-.008.392-.062.774-.122 1.152-.184.807-.138 1.566-.273 2.29-.404.283-.054.562-.106.835-.16l.117-.022c.12-.025.24-.046.36-.068.29-.058.573-.114.845-.172l.662-.135c.73-.156 1.4-.305 2.006-.447a8.33 8.33 0 0 0 .36-.082h.007c.117-.029.226-.055.338-.08l.713-.176c.131-.036.257-.065.377-.097.24-.059.461-.12.672-.174.676-.182.757-1.44.113-1.77L83.105 73.25a.696.696 0 0 0 .295-.879l-4.64-10.49a.696.696 0 0 0-.663-.414l-.384.015-4.957-25.539 24.1-25.877A.5.5 0 0 0 97 9.713a.441.441 0 0 0-.02-.131.494.494 0 0 0-.478-.367Z" fill="#53447f" stroke="#fff" stroke-width="6" stroke-linecap="round" stroke-linejoin="round" paint-order="stroke fill markers"/><path d="M96.277 86.097c-.211.055-.433.117-.672.175-.12.032-.248.062-.379.098-.225.055-.464.112-.712.174-.112.026-.222.051-.338.08h-.007a8.78 8.78 0 0 1-.36.084q-.91.212-2.006.447c-.214.044-.436.087-.661.135-.273.058-.556.112-.847.17-.12.022-.24.044-.36.07l-.116.021c-.273.055-.553.105-.836.16-.724.131-1.483.265-2.29.404l-1.152.185c-.014.004-.032.004-.047.007-.41.065-.828.135-1.26.196-.215.033-.43.065-.652.095-.309.047-.62.09-.937.134-.294.04-.585.08-.887.124-.164.022-.327.047-.498.065-.378.05-.766.102-1.162.149-.244.032-.492.062-.742.094l-.76.088q-.763.092-1.559.174l-1.105.12a156.927 156.927 0 0 1-2.198.215c-.53.05-1.072.098-1.617.141a.751.751 0 0 1-.127.011c-.284.025-.571.05-.859.073l-.163.014-.785.059c-.61.047-1.232.09-1.868.134-.309.022-.625.04-.937.066-.328.018-.659.036-.993.057-.323.019-.654.04-.985.055-.396.026-.792.047-1.195.07-.273.01-.55.025-.83.036-.598.032-1.205.058-1.82.08-.443.021-.886.036-1.333.054-.47.015-.945.033-1.421.047l-1.207.033c-1.784.044-3.63.076-5.538.087-.31.004-.622.007-.934.007-.4.004-.803.004-1.21.004a247.577 247.577 0 0 1-28.907-1.559c-8.799-1.043-14.548-2.355-17.452-3.132-.68-.182-.76-1.44-.116-1.77l14.33-12.622 32.144 1.959 12.302-.444 3.558-.214 15.885-.956L96.39 84.328c.644.33.564 1.588-.112 1.77zm.575-76.025-24.1 25.877 5.036 25.943-12.744 3.502-15.129 4.16-27.952-6.568 6.282-24.327a7.758 7.758 0 0 1 3.04-4.4L53.38 18.68a7.758 7.758 0 0 1 2.918-1.26l40.099-8.19a.513.513 0 0 1 .102-.01.494.494 0 0 1 .48.366.442.442 0 0 1 .02.132.5.5 0 0 1-.146.354z" fill="#53447f"/><path d="m96.852 10.072-24.1 25.877 5.036 25.943-12.744 3.502-1.486-32.175 33.42-23.633a.442.442 0 0 1 .02.132.5.5 0 0 1-.146.354zm-.575 76.025c-.211.055-.433.117-.672.175-.12.032-.248.062-.379.098-.225.055-.464.112-.712.174-.112.026-.222.051-.338.08h-.007a8.78 8.78 0 0 1-.36.084q-.91.212-2.006.447c-.214.044-.436.087-.661.135-.273.058-.556.112-.847.17-.12.022-.24.044-.36.07l-.116.021c-.273.055-.553.105-.836.16-.724.131-1.483.265-2.29.404l-1.152.185c-.014.004-.032.004-.047.007-.41.065-.828.135-1.26.196-.215.033-.43.065-.652.095-.309.047-.62.09-.937.134-.294.04-.585.08-.887.124-.164.022-.327.047-.498.065-.378.05-.766.102-1.162.149-.244.032-.492.062-.742.094l-.76.088q-.763.092-1.559.174l-1.105.12a156.927 156.927 0 0 1-2.198.215c-.53.05-1.072.098-1.617.141a.751.751 0 0 1-.127.011c-.284.025-.571.05-.859.073l-.163.014-.785.059c-.61.047-1.232.09-1.868.134-.309.022-.625.04-.937.066-.328.018-.659.036-.993.057-.323.019-.654.04-.985.055-.396.026-.792.047-1.195.07-.273.01-.55.025-.83.036-.598.032-1.205.058-1.82.08-.443.021-.886.036-1.333.054-.47.015-.945.033-1.421.047l-1.207.033c-1.784.044-3.63.076-5.538.087-.31.004-.622.007-.934.007-.4.004-.803.004-1.21.004a247.577 247.577 0 0 1-28.907-1.559L21 89.226l47.772-4.332-3.002-11.887 15.885-.956L96.39 84.327c.644.33.564 1.589-.112 1.77z" fill="#4a4171"/><path d="m21.73 61.473 27.815 1.099h.054l28.495-1.1a.696.696 0 0 1 .663.415l4.64 10.49a.696.696 0 0 1-.595.976l-32.847 1.963a.697.697 0 0 1-.083 0l-32.873-1.953a.696.696 0 0 1-.595-.978l4.663-10.499a.696.696 0 0 1 .664-.413z" fill="#332b37"/><path d="M27.34 66.655s1.388-1.803 2.98-1.084c1.593.72 1.304 4.603-3.477 6.045 0 0-3.092-1.422-3.422-4.121-.33-2.699 1.77-2.91 2.573-2.392a3.721 3.721 0 0 1 1.345 1.552zm35.941.424s1.057-2.016 2.75-1.582c1.692.433 2.078 4.309-2.382 6.554 0 0-3.292-.868-4.082-3.469s1.242-3.172 2.12-2.799a3.721 3.721 0 0 1 1.594 1.296zm11.71-1.142s.84-2.116 2.569-1.863c1.729.254 2.52 4.067-1.68 6.77 0 0-3.364-.517-4.424-3.02-1.06-2.504.901-3.286 1.815-3.008a3.721 3.721 0 0 1 1.72 1.121z" fill="#1e1921"/><path d="m52.893 76.996-11.182-.229c-1.857-.038-3.34-1.441-3.305-3.128l.208-10.158c.034-1.687 1.573-3.029 3.43-2.99l11.181.228c1.858.038 3.34 1.442 3.306 3.129l-.208 10.157c-.035 1.688-1.574 3.03-3.43 2.991zM42.003 62.53a1.077 1.077 0 0 0-1.144.997l-.208 10.157a1.077 1.077 0 0 0 1.102 1.044l11.18.229a1.077 1.077 0 0 0 1.145-.998l.208-10.157a1.077 1.077 0 0 0-1.102-1.044z" fill="#efca37"/><path d="m46.33 69.6-6.341-.13a1.23 1.23 0 0 1-1.204-1.253 1.23 1.23 0 0 1 1.254-1.204l6.34.13a1.23 1.23 0 0 1 1.204 1.254 1.23 1.23 0 0 1-1.253 1.204z" fill="#efca37"/></svg>